<svg width="46" height="95" viewBox="0 0 46 95" fill="none" xmlns="http://www.w3.org/2000/svg">
<g clip-path="url(#clip0_21_3037)">
<path d="M19.74 76.0001C19.3772 76.002 19.022 75.8961 18.7196 75.6958C18.4171 75.4955 18.181 75.2098 18.0412 74.875C17.9015 74.5402 17.8644 74.1714 17.9347 73.8155C18.005 73.4596 18.1795 73.1326 18.436 72.8761C18.6926 72.6196 19.0195 72.4451 19.3755 72.3748C19.7314 72.3045 20.1001 72.3416 20.4349 72.4813C20.7697 72.621 21.0554 72.8572 21.2558 73.1596C21.4561 73.4621 21.562 73.8173 21.56 74.1801C21.56 74.6628 21.3683 75.1257 21.0269 75.467C20.6856 75.8083 20.2227 76.0001 19.74 76.0001Z" fill="#20ACF5"/>
<path d="M19.74 90.4601C19.2978 90.4562 18.8667 90.3215 18.501 90.0729C18.1353 89.8244 17.8513 89.4732 17.6848 89.0636C17.5183 88.6539 17.4768 88.2042 17.5655 87.771C17.6542 87.3378 17.8691 86.9406 18.1831 86.6293C18.4972 86.318 18.8963 86.1066 19.3303 86.0218C19.7643 85.937 20.2136 85.9825 20.6218 86.1526C21.0299 86.3227 21.3786 86.6098 21.6238 86.9778C21.8691 87.3457 22 87.778 22 88.2201C22 88.516 21.9414 88.8089 21.8276 89.082C21.7138 89.3551 21.547 89.6029 21.3369 89.8112C21.1267 90.0194 20.8774 90.184 20.6034 90.2954C20.3293 90.4068 20.0358 90.4628 19.74 90.4601Z" fill="#20ACF5"/>
<path d="M19.74 83.24C19.3445 83.24 18.9578 83.1227 18.6289 82.9029C18.3 82.6832 18.0436 82.3708 17.8923 82.0054C17.7409 81.6399 17.7013 81.2378 17.7785 80.8498C17.8556 80.4619 18.0461 80.1055 18.3258 79.8258C18.6055 79.5461 18.9619 79.3556 19.3498 79.2784C19.7378 79.2012 20.1399 79.2409 20.5054 79.3922C20.8708 79.5436 21.1832 79.8 21.403 80.1289C21.6227 80.4578 21.74 80.8444 21.74 81.24C21.74 81.7704 21.5293 82.2791 21.1542 82.6542C20.7792 83.0293 20.2705 83.24 19.74 83.24Z" fill="#20ACF5"/>
<path d="M19.74 54.5201C19.475 54.5201 19.2159 54.4415 18.9956 54.2943C18.7752 54.147 18.6034 53.9377 18.502 53.6929C18.4006 53.448 18.3741 53.1786 18.4258 52.9187C18.4775 52.6587 18.6051 52.42 18.7925 52.2326C18.9799 52.0452 19.2187 51.9175 19.4786 51.8658C19.7385 51.8141 20.008 51.8407 20.2528 51.9421C20.4977 52.0435 20.7069 52.2153 20.8542 52.4356C21.0014 52.656 21.08 52.9151 21.08 53.1801C21.08 53.5355 20.9388 53.8763 20.6875 54.1276C20.4362 54.3789 20.0954 54.5201 19.74 54.5201Z" fill="#20ACF5"/>
<path d="M19.74 47.3902C19.4983 47.3921 19.2615 47.3223 19.0595 47.1894C18.8576 47.0566 18.6996 46.8667 18.6058 46.644C18.5119 46.4213 18.4863 46.1756 18.5322 45.9383C18.5782 45.701 18.6936 45.4827 18.8638 45.3111C19.034 45.1395 19.2514 45.0223 19.4883 44.9744C19.7252 44.9265 19.971 44.9501 20.1945 45.0421C20.4181 45.1341 20.6092 45.2905 20.7437 45.4913C20.8782 45.6922 20.95 45.9284 20.95 46.1702C20.95 46.492 20.8229 46.8008 20.5962 47.0293C20.3696 47.2578 20.0618 47.3875 19.74 47.3902Z" fill="#20ACF5"/>
<path d="M19.74 61.6802C19.4449 61.6821 19.1558 61.5964 18.9095 61.4339C18.6632 61.2714 18.4706 61.0394 18.3563 60.7673C18.242 60.4952 18.2111 60.1953 18.2674 59.9057C18.3238 59.616 18.4649 59.3495 18.6729 59.1402C18.8808 58.9308 19.1463 58.7879 19.4356 58.7296C19.7249 58.6713 20.025 58.7002 20.2979 58.8127C20.5707 58.9251 20.804 59.1161 20.9682 59.3613C21.1323 59.6066 21.22 59.895 21.22 60.1902C21.22 60.5836 21.0644 60.9611 20.7871 61.2402C20.5099 61.5194 20.1334 61.6775 19.74 61.6802Z" fill="#20ACF5"/>
<path d="M16.23 79.63C15.8507 79.628 15.4805 79.5138 15.166 79.3016C14.8516 79.0894 14.6071 78.7889 14.4633 78.4379C14.3195 78.0869 14.2829 77.7011 14.3581 77.3293C14.4333 76.9576 14.617 76.6164 14.8859 76.3489C15.1548 76.0814 15.4969 75.8995 15.8691 75.8262C16.2413 75.7529 16.6268 75.7915 16.977 75.9371C17.3273 76.0827 17.6266 76.3288 17.8371 76.6444C18.0476 76.9599 18.16 77.3307 18.16 77.71C18.16 77.963 18.11 78.2135 18.0129 78.4471C17.9158 78.6807 17.7735 78.8928 17.5941 79.0712C17.4148 79.2496 17.2019 79.3908 16.9678 79.4867C16.7337 79.5826 16.483 79.6313 16.23 79.63Z" fill="#20ACF5"/>
<path d="M19.74 40.26C19.5216 40.262 19.3076 40.1989 19.1251 40.0788C18.9427 39.9587 18.8002 39.787 18.7157 39.5856C18.6312 39.3842 18.6086 39.1622 18.6507 38.9479C18.6928 38.7336 18.7978 38.5367 18.9522 38.3822C19.1067 38.2278 19.3036 38.1228 19.5179 38.0807C19.7322 38.0386 19.9542 38.0612 20.1556 38.1457C20.357 38.2302 20.5287 38.3727 20.6488 38.5552C20.7689 38.7376 20.832 38.9516 20.83 39.17C20.83 39.3132 20.8018 39.4549 20.747 39.5871C20.6923 39.7194 20.612 39.8395 20.5107 39.9408C20.4095 40.042 20.2894 40.1223 20.1571 40.177C20.0249 40.2318 19.8831 40.26 19.74 40.26Z" fill="#20ACF5"/>
<path d="M16.23 86.8502C15.9508 86.8502 15.6743 86.795 15.4164 86.6879C15.1585 86.5807 14.9244 86.4236 14.7274 86.2257C14.5304 86.0278 14.3745 85.7929 14.2685 85.5345C14.1626 85.2762 14.1087 84.9994 14.11 84.7202C14.0946 84.5773 14.0946 84.4331 14.11 84.2902C14.21 83.8112 14.4719 83.3813 14.8516 83.0727C15.2313 82.7642 15.7057 82.5957 16.195 82.5957C16.6843 82.5957 17.1587 82.7642 17.5384 83.0727C17.9181 83.3813 18.18 83.8112 18.28 84.2902C18.2955 84.4331 18.2955 84.5773 18.28 84.7202C18.2813 85.0003 18.2271 85.2778 18.1206 85.5369C18.014 85.7959 17.8571 86.0312 17.6591 86.2293C17.461 86.4273 17.2257 86.5842 16.9667 86.6907C16.7077 86.7973 16.4301 86.8515 16.15 86.8502H16.23Z" fill="#20ACF5"/>
<path d="M19.74 11.8602C19.5464 11.8602 19.3607 11.7832 19.2238 11.6463C19.0869 11.5094 19.01 11.3238 19.01 11.1302C19.0127 10.9383 19.0907 10.7552 19.2273 10.6204C19.364 10.4857 19.5481 10.4101 19.74 10.4102C19.931 10.4102 20.1141 10.486 20.2491 10.621C20.3842 10.7561 20.46 10.9392 20.46 11.1302C20.46 11.322 20.3845 11.5062 20.2498 11.6428C20.115 11.7795 19.9319 11.8575 19.74 11.8602Z" fill="#20ACF5"/>
<path d="M19.74 19.0001C19.5794 19.002 19.4218 18.9562 19.2873 18.8684C19.1528 18.7807 19.0474 18.6549 18.9846 18.507C18.9217 18.3592 18.9043 18.196 18.9344 18.0383C18.9645 17.8805 19.0408 17.7352 19.1537 17.6209C19.2666 17.5067 19.4109 17.4285 19.5683 17.3964C19.7257 17.3644 19.889 17.3798 20.0376 17.4408C20.1862 17.5018 20.3133 17.6056 20.4028 17.739C20.4922 17.8724 20.54 18.0294 20.54 18.1901C20.54 18.4032 20.4561 18.6077 20.3063 18.7593C20.1566 18.9109 19.9531 18.9974 19.74 19.0001Z" fill="#20ACF5"/>
<path d="M19.74 26C19.564 26 19.3919 25.9478 19.2455 25.85C19.0992 25.7522 18.9851 25.6132 18.9178 25.4506C18.8504 25.2879 18.8328 25.109 18.8671 24.9363C18.9014 24.7637 18.9862 24.6051 19.1107 24.4806C19.2352 24.3562 19.3937 24.2714 19.5664 24.2371C19.739 24.2027 19.918 24.2204 20.0806 24.2877C20.2432 24.3551 20.3822 24.4692 20.48 24.6155C20.5778 24.7619 20.63 24.9339 20.63 25.11C20.63 25.346 20.5362 25.5724 20.3693 25.7393C20.2024 25.9062 19.976 26 19.74 26Z" fill="#20ACF5"/>
<path d="M19.74 4.78013C19.6086 4.78211 19.4797 4.74483 19.3696 4.67308C19.2596 4.60132 19.1734 4.49835 19.1222 4.37735C19.071 4.25636 19.0571 4.12283 19.0823 3.99388C19.1074 3.86493 19.1705 3.74642 19.2634 3.65351C19.3563 3.56061 19.4748 3.49755 19.6038 3.47241C19.7327 3.44726 19.8662 3.46117 19.9872 3.51236C20.1082 3.56355 20.2112 3.64969 20.2829 3.75974C20.3547 3.8698 20.392 3.99876 20.39 4.13013C20.39 4.30252 20.3215 4.46785 20.1996 4.58975C20.0777 4.71165 19.9124 4.78013 19.74 4.78013Z" fill="#20ACF5"/>
<path d="M19.74 33.1401C19.5422 33.1401 19.3489 33.0815 19.1845 32.9716C19.02 32.8617 18.8918 32.7055 18.8161 32.5228C18.7405 32.3401 18.7207 32.139 18.7592 31.945C18.7978 31.7511 18.8931 31.5729 19.0329 31.433C19.1728 31.2932 19.351 31.1979 19.5449 31.1594C19.7389 31.1208 19.94 31.1406 20.1227 31.2163C20.3054 31.2919 20.4616 31.4201 20.5715 31.5846C20.6814 31.749 20.74 31.9424 20.74 32.1401C20.74 32.4054 20.6347 32.6597 20.4471 32.8472C20.2596 33.0348 20.0052 33.1401 19.74 33.1401Z" fill="#20ACF5"/>
<path d="M26.75 11.8602C26.5564 11.8602 26.3707 11.7832 26.2338 11.6463C26.0969 11.5094 26.02 11.3238 26.02 11.1302C26.0226 10.9383 26.1007 10.7552 26.2373 10.6204C26.3739 10.4857 26.5581 10.4101 26.75 10.4102C26.941 10.4102 27.1241 10.486 27.2591 10.621C27.3941 10.7561 27.47 10.9392 27.47 11.1302C27.47 11.322 27.3945 11.5062 27.2597 11.6428C27.125 11.7795 26.9419 11.8575 26.75 11.8602Z" fill="#20ACF5"/>
<path d="M26.75 4.78013C26.6186 4.78211 26.4897 4.74483 26.3796 4.67308C26.2696 4.60132 26.1834 4.49835 26.1322 4.37735C26.0811 4.25636 26.0671 4.12283 26.0923 3.99388C26.1174 3.86493 26.1805 3.74642 26.2734 3.65351C26.3663 3.56061 26.4848 3.49755 26.6138 3.47241C26.7427 3.44726 26.8762 3.46117 26.9972 3.51236C27.1182 3.56355 27.2212 3.64969 27.293 3.75974C27.3647 3.8698 27.402 3.99876 27.4 4.13013C27.4 4.30252 27.3315 4.46785 27.2096 4.58975C27.0877 4.71165 26.9224 4.78013 26.75 4.78013Z" fill="#20ACF5"/>
<path d="M26.75 19.0001C26.5894 19.002 26.4318 18.9562 26.2973 18.8684C26.1628 18.7807 26.0574 18.6549 25.9946 18.507C25.9317 18.3592 25.9143 18.196 25.9444 18.0383C25.9745 17.8805 26.0508 17.7352 26.1637 17.6209C26.2766 17.5067 26.4209 17.4285 26.5783 17.3964C26.7357 17.3644 26.899 17.3798 27.0476 17.4408C27.1962 17.5018 27.3233 17.6056 27.4128 17.739C27.5022 17.8724 27.55 18.0294 27.55 18.1901C27.55 18.4032 27.4661 18.6077 27.3163 18.7593C27.1666 18.9109 26.9631 18.9974 26.75 19.0001Z" fill="#20ACF5"/>
<path d="M23.68 1.06003C23.6259 1.1202 23.5569 1.16504 23.48 1.19003C23.4058 1.22764 23.323 1.24489 23.24 1.24003C23.1421 1.24317 23.0448 1.22306 22.9562 1.18134C22.8675 1.13962 22.79 1.07749 22.73 1.00003C22.6583 0.897417 22.6199 0.775222 22.62 0.650032C22.62 0.650032 22.62 0.570032 22.62 0.530032C22.6479 0.388849 22.7239 0.261751 22.8352 0.170526C22.9465 0.0793015 23.0861 0.0296317 23.23 0.0300317C23.3126 0.030003 23.3943 0.0470249 23.47 0.0800317C23.545 0.10904 23.6131 0.153309 23.67 0.210032C23.7606 0.294911 23.8204 0.407473 23.84 0.530032C23.8449 0.569881 23.8449 0.610183 23.84 0.650032C23.8391 0.773618 23.8045 0.89462 23.74 1.00003L23.68 1.06003Z" fill="#20ACF5"/>
<path d="M26.75 26C26.574 26 26.4019 25.9478 26.2556 25.85C26.1092 25.7522 25.9951 25.6132 25.9278 25.4506C25.8604 25.2879 25.8428 25.109 25.8771 24.9363C25.9115 24.7637 25.9962 24.6051 26.1207 24.4806C26.2452 24.3562 26.4037 24.2714 26.5764 24.2371C26.749 24.2027 26.928 24.2204 27.0906 24.2877C27.2532 24.3551 27.3922 24.4692 27.49 24.6155C27.5878 24.7619 27.64 24.9339 27.64 25.11C27.64 25.346 27.5462 25.5724 27.3793 25.7393C27.2124 25.9062 26.9861 26 26.75 26Z" fill="#20ACF5"/>
<path d="M26.75 33.1401C26.5522 33.1401 26.3589 33.0815 26.1944 32.9716C26.03 32.8617 25.9018 32.7055 25.8261 32.5228C25.7504 32.3401 25.7306 32.139 25.7692 31.945C25.8078 31.7511 25.903 31.5729 26.0429 31.433C26.1827 31.2932 26.3609 31.1979 26.5549 31.1594C26.7489 31.1208 26.95 31.1406 27.1327 31.2163C27.3154 31.2919 27.4716 31.4201 27.5815 31.5846C27.6914 31.749 27.75 31.9424 27.75 32.1401C27.75 32.4054 27.6446 32.6597 27.4571 32.8472C27.2696 33.0348 27.0152 33.1401 26.75 33.1401Z" fill="#20ACF5"/>
<path d="M26.75 61.6802C26.4549 61.6821 26.1658 61.5964 25.9195 61.4339C25.6732 61.2714 25.4806 61.0394 25.3663 60.7673C25.252 60.4952 25.2211 60.1953 25.2774 59.9057C25.3338 59.616 25.4749 59.3495 25.6829 59.1402C25.8909 58.9308 26.1563 58.7879 26.4456 58.7296C26.7349 58.6713 27.035 58.7002 27.3079 58.8127C27.5807 58.9251 27.814 59.1161 27.9782 59.3613C28.1424 59.6066 28.23 59.895 28.23 60.1902C28.23 60.5836 28.0744 60.9611 27.7971 61.2402C27.5199 61.5194 27.1434 61.6775 26.75 61.6802Z" fill="#20ACF5"/>
<path d="M26.75 83.24C26.3544 83.24 25.9678 83.1227 25.6389 82.9029C25.31 82.6832 25.0536 82.3708 24.9022 82.0054C24.7509 81.6399 24.7113 81.2378 24.7884 80.8498C24.8656 80.4619 25.0561 80.1055 25.3358 79.8258C25.6155 79.5461 25.9719 79.3556 26.3598 79.2784C26.7478 79.2012 27.1499 79.2409 27.5154 79.3922C27.8808 79.5436 28.1932 79.8 28.4129 80.1289C28.6327 80.4578 28.75 80.8444 28.75 81.24C28.75 81.7704 28.5393 82.2791 28.1642 82.6542C27.7891 83.0293 27.2804 83.24 26.75 83.24Z" fill="#20ACF5"/>
<path d="M26.75 76.0001C26.3872 76.002 26.032 75.8961 25.7296 75.6958C25.4271 75.4955 25.191 75.2098 25.0513 74.875C24.9115 74.5402 24.8744 74.1714 24.9447 73.8155C25.015 73.4596 25.1895 73.1326 25.446 72.8761C25.7026 72.6196 26.0296 72.4451 26.3855 72.3748C26.7414 72.3045 27.1102 72.3416 27.445 72.4813C27.7797 72.621 28.0654 72.8572 28.2658 73.1596C28.4661 73.4621 28.572 73.8173 28.57 74.1801C28.57 74.6628 28.3783 75.1257 28.0369 75.467C27.6956 75.8083 27.2327 76.0001 26.75 76.0001Z" fill="#20ACF5"/>
<path d="M26.75 40.26C26.5316 40.262 26.3176 40.1989 26.1352 40.0788C25.9527 39.9587 25.8102 39.787 25.7257 39.5856C25.6412 39.3842 25.6186 39.1622 25.6607 38.9479C25.7028 38.7336 25.8078 38.5367 25.9622 38.3822C26.1167 38.2278 26.3136 38.1228 26.5279 38.0807C26.7422 38.0386 26.9642 38.0612 27.1656 38.1457C27.367 38.2302 27.5387 38.3727 27.6588 38.5552C27.7789 38.7376 27.842 38.9516 27.84 39.17C27.84 39.3132 27.8118 39.4549 27.757 39.5871C27.7023 39.7194 27.622 39.8395 27.5208 39.9408C27.4195 40.042 27.2994 40.1223 27.1671 40.177C27.0349 40.2318 26.8932 40.26 26.75 40.26Z" fill="#20ACF5"/>
<path d="M26.75 54.5201C26.485 54.5201 26.2259 54.4415 26.0055 54.2943C25.7852 54.147 25.6134 53.9377 25.512 53.6929C25.4106 53.448 25.384 53.1786 25.4357 52.9187C25.4874 52.6587 25.6151 52.42 25.8025 52.2326C25.9899 52.0452 26.2286 51.9175 26.4886 51.8658C26.7485 51.8141 27.0179 51.8407 27.2628 51.9421C27.5076 52.0435 27.7169 52.2153 27.8642 52.4356C28.0114 52.656 28.09 52.9151 28.09 53.1801C28.0874 53.5347 27.9454 53.874 27.6946 54.1247C27.4439 54.3755 27.1046 54.5175 26.75 54.5201Z" fill="#20ACF5"/>
<path d="M26.75 47.3901C26.5101 47.3842 26.2772 47.3076 26.0806 47.17C25.8839 47.0324 25.7322 46.8399 25.6445 46.6165C25.5567 46.3932 25.5368 46.1488 25.5872 45.9142C25.6376 45.6796 25.7561 45.465 25.9279 45.2974C26.0996 45.1297 26.317 45.0165 26.5528 44.9718C26.7886 44.9271 27.0324 44.9529 27.2535 45.0461C27.4747 45.1392 27.6635 45.2956 27.7963 45.4955C27.9291 45.6954 27.9999 45.9301 28 46.1701C28 46.3328 27.9675 46.494 27.9043 46.644C27.8412 46.794 27.7486 46.9298 27.6321 47.0435C27.5156 47.1572 27.3776 47.2464 27.2261 47.306C27.0746 47.3655 26.9127 47.3941 26.75 47.3901Z" fill="#20ACF5"/>
<path d="M23.74 50.8501C23.5826 50.9195 23.412 50.9537 23.24 50.9501C22.9213 50.9219 22.6248 50.7753 22.4088 50.5394C22.1928 50.3034 22.073 49.9951 22.073 49.6751C22.073 49.3552 22.1928 49.0469 22.4088 48.8109C22.6248 48.5749 22.9213 48.4284 23.24 48.4001C23.4115 48.4014 23.5812 48.4354 23.74 48.5001C23.8903 48.5665 24.0262 48.6616 24.14 48.7801C24.2597 48.8975 24.3549 49.0375 24.4198 49.192C24.4847 49.3466 24.5182 49.5125 24.5182 49.6801C24.5182 49.8478 24.4847 50.0137 24.4198 50.1683C24.3549 50.3228 24.2597 50.4628 24.14 50.5801C24.0285 50.6989 23.8918 50.7912 23.74 50.8501Z" fill="#20ACF5"/>
<path d="M23.65 36.6201C23.5196 36.6725 23.3805 36.6996 23.24 36.7001C22.9642 36.7001 22.6996 36.5905 22.5046 36.3955C22.3096 36.2005 22.2 35.9359 22.2 35.6601C22.2 35.3843 22.3096 35.1198 22.5046 34.9247C22.6996 34.7297 22.9642 34.6201 23.24 34.6201C23.3815 34.6208 23.5212 34.6514 23.65 34.7101C23.7736 34.7607 23.8858 34.8355 23.98 34.9301C24.1724 35.1264 24.2802 35.3903 24.2802 35.6651C24.2802 35.94 24.1724 36.2038 23.98 36.4001C23.8831 36.4914 23.7715 36.5658 23.65 36.6201Z" fill="#20ACF5"/>
<path d="M24.06 43.4802C23.9542 43.5869 23.8285 43.6718 23.69 43.7302C23.5478 43.7906 23.3946 43.8213 23.24 43.8202C23.052 43.8193 22.8672 43.7723 22.7015 43.6834C22.5359 43.5945 22.3946 43.4664 22.29 43.3102C22.1571 43.1235 22.0871 42.8993 22.09 42.6702C22.0796 42.5939 22.0796 42.5165 22.09 42.4402C22.1241 42.2739 22.1946 42.1172 22.2965 41.9813C22.3983 41.8455 22.529 41.7339 22.6791 41.6546C22.8292 41.5752 22.995 41.5301 23.1646 41.5224C23.3342 41.5147 23.5034 41.5447 23.66 41.6102C23.7985 41.6685 23.9242 41.7535 24.03 41.8602C24.1867 42.0199 24.2943 42.2212 24.34 42.4402C24.3454 42.5168 24.3454 42.5936 24.34 42.6702C24.3414 42.8976 24.2752 43.1203 24.15 43.3102C24.1244 43.369 24.0943 43.4259 24.06 43.4802Z" fill="#20ACF5"/>
<path d="M24 57.86C23.9246 57.9112 23.8442 57.9548 23.76 57.99C23.5858 58.0628 23.3988 58.1002 23.21 58.1C22.836 58.1 22.4774 57.9514 22.213 57.687C21.9485 57.4226 21.8 57.0639 21.8 56.69C21.7897 56.5936 21.7897 56.4964 21.8 56.4C21.8571 56.1322 21.9888 55.886 22.18 55.69C22.245 55.6274 22.3152 55.5705 22.39 55.52C22.5715 55.3963 22.7813 55.3206 23 55.3C23.093 55.2897 23.1869 55.2897 23.28 55.3C23.3764 55.2901 23.4736 55.2901 23.57 55.3C23.66 55.3194 23.7473 55.3496 23.83 55.39C23.916 55.4211 23.9969 55.465 24.07 55.52C24.1484 55.5654 24.2193 55.6227 24.28 55.69C24.4744 55.8851 24.6096 56.1313 24.67 56.4C24.6753 56.4966 24.6753 56.5934 24.67 56.69C24.6713 56.8755 24.6358 57.0595 24.5654 57.2311C24.495 57.4028 24.3912 57.5588 24.26 57.69C24.1811 57.7577 24.0937 57.8148 24 57.86Z" fill="#20ACF5"/>
<path d="M23.67 15.2701L23.54 15.3401C23.4454 15.3811 23.3431 15.4015 23.24 15.4001C23.0392 15.3975 22.8474 15.3166 22.7055 15.1747C22.5635 15.0327 22.4826 14.8409 22.48 14.6401C22.475 14.5869 22.475 14.5333 22.48 14.4801C22.5176 14.3381 22.5897 14.2075 22.69 14.1001L22.82 14.0001C22.8998 13.9402 22.9921 13.8992 23.09 13.8801H23.24H23.4H23.54L23.67 13.9601C23.7132 13.9812 23.7508 14.012 23.78 14.0501C23.8874 14.1522 23.9608 14.2849 23.99 14.4301C23.9949 14.4833 23.9949 14.5369 23.99 14.5901C23.9894 14.6909 23.9687 14.7905 23.9292 14.8832C23.8898 14.9759 23.8322 15.0599 23.76 15.1301L23.67 15.2701Z" fill="#20ACF5"/>
<path d="M23.51 8.26006C23.4259 8.30082 23.3335 8.32136 23.24 8.32006C23.057 8.32006 22.8815 8.24737 22.7521 8.11797C22.6227 7.98857 22.55 7.81306 22.55 7.63006C22.55 7.44707 22.6227 7.27156 22.7521 7.14216C22.8815 7.01276 23.057 6.94006 23.24 6.94006C23.3293 6.92395 23.4207 6.92395 23.51 6.94006C23.5907 6.97834 23.6649 7.02895 23.73 7.09006C23.7965 7.15524 23.8494 7.23303 23.8855 7.31889C23.9215 7.40475 23.9401 7.49694 23.9401 7.59006C23.9401 7.68319 23.9215 7.77538 23.8855 7.86124C23.8494 7.94709 23.7965 8.02489 23.73 8.09006C23.67 8.16217 23.5949 8.2202 23.51 8.26006Z" fill="#20ACF5"/>
<path d="M23.85 65.1402C23.6569 65.2212 23.4494 65.2621 23.24 65.2602C22.8465 65.2287 22.4794 65.0502 22.2116 64.7602C21.9439 64.4701 21.7952 64.0899 21.7952 63.6952C21.7952 63.3005 21.9439 62.9202 22.2116 62.6302C22.4794 62.3402 22.8465 62.1617 23.24 62.1302C23.4494 62.1283 23.6569 62.1691 23.85 62.2502C24.037 62.3303 24.2068 62.4457 24.35 62.5902C24.4954 62.7351 24.6108 62.9073 24.6896 63.097C24.7683 63.2866 24.8088 63.4899 24.8088 63.6952C24.8088 63.9005 24.7683 64.1038 24.6896 64.2934C24.6108 64.483 24.4954 64.6553 24.35 64.8002C24.2068 64.9447 24.037 65.0601 23.85 65.1402Z" fill="#20ACF5"/>
<path d="M23.57 22.4301C23.4649 22.471 23.3529 22.4914 23.24 22.4901C23.0318 22.4674 22.8392 22.3686 22.6993 22.2126C22.5594 22.0567 22.4821 21.8546 22.4821 21.6451C22.4821 21.4356 22.5594 21.2335 22.6993 21.0775C22.8392 20.9216 23.0318 20.8228 23.24 20.8001C23.354 20.7969 23.4671 20.8209 23.57 20.8701C23.6714 20.911 23.7633 20.9723 23.84 21.0501C23.9196 21.1274 23.9828 21.2199 24.0259 21.3221C24.0691 21.4243 24.0913 21.5341 24.0913 21.6451C24.0913 21.756 24.0691 21.8658 24.0259 21.968C23.9828 22.0702 23.9196 22.1627 23.84 22.2401C23.7612 22.3179 23.6699 22.3821 23.57 22.4301Z" fill="#20ACF5"/>
<path d="M23.77 29.43L23.61 29.52C23.4913 29.5633 23.3663 29.587 23.24 29.59C23.117 29.59 22.9953 29.5656 22.8818 29.5183C22.7683 29.4709 22.6653 29.4015 22.5788 29.3141C22.4923 29.2267 22.424 29.123 22.3779 29.009C22.3318 28.895 22.3087 28.773 22.31 28.65C22.305 28.5901 22.305 28.5299 22.31 28.47C22.3473 28.2878 22.4378 28.1208 22.57 27.99L22.71 27.88C22.8082 27.8093 22.9209 27.7614 23.04 27.74C23.103 27.7302 23.167 27.7302 23.23 27.74C23.2929 27.7296 23.3571 27.7296 23.42 27.74L23.6 27.79C23.6573 27.8123 23.7112 27.8426 23.76 27.88C23.8077 27.9112 23.8514 27.9481 23.89 27.99C24.0222 28.1208 24.1127 28.2878 24.15 28.47C24.1549 28.5299 24.1549 28.5901 24.15 28.65C24.1439 28.9005 24.044 29.1397 23.87 29.32C23.8407 29.3602 23.8072 29.3971 23.77 29.43Z" fill="#20ACF5"/>
<path d="M24.16 93.9C23.8694 94.0251 23.5564 94.0898 23.24 94.09C22.6141 94.09 22.0138 93.8414 21.5712 93.3988C21.1286 92.9562 20.88 92.3559 20.88 91.73C20.88 91.1041 21.1286 90.5038 21.5712 90.0612C22.0138 89.6186 22.6141 89.37 23.24 89.37C23.5557 89.3668 23.8688 89.428 24.16 89.55C24.4398 89.6714 24.6942 89.8444 24.91 90.06C25.3509 90.504 25.5983 91.1043 25.5983 91.73C25.5983 92.3557 25.3509 92.956 24.91 93.4C24.6938 93.6125 24.4393 93.7822 24.16 93.9Z" fill="#20ACF5"/>
<path d="M24 79.4801C23.7631 79.5815 23.5077 79.6326 23.25 79.6301C22.7408 79.6301 22.2524 79.4278 21.8924 79.0678C21.5323 78.7077 21.33 78.2193 21.33 77.7101C21.33 77.2009 21.5323 76.7126 21.8924 76.3525C22.2524 75.9924 22.7408 75.7901 23.25 75.7901C23.5077 75.7876 23.7631 75.8387 24 75.9401C24.2269 76.0379 24.4338 76.1769 24.61 76.3501C24.9691 76.7117 25.1706 77.2006 25.1706 77.7101C25.1706 78.2197 24.9691 78.7086 24.61 79.0701C24.4338 79.2433 24.2269 79.3823 24 79.4801Z" fill="#20ACF5"/>
<path d="M26.75 90.4602C26.3074 90.4582 25.8753 90.3252 25.5083 90.0778C25.1412 89.8305 24.8557 89.48 24.6877 89.0705C24.5196 88.661 24.4767 88.211 24.5643 87.7771C24.6518 87.3432 24.8659 86.945 25.1796 86.6328C25.4933 86.3205 25.8924 86.1082 26.3267 86.0225C26.7609 85.9369 27.2108 85.9819 27.6195 86.1517C28.0282 86.3215 28.3775 86.6086 28.6232 86.9768C28.8689 87.3449 29 87.7776 29 88.2202C29 88.5152 28.9417 88.8073 28.8285 89.0797C28.7153 89.3522 28.5495 89.5995 28.3404 89.8077C28.1313 90.0158 27.8832 90.1806 27.6103 90.2926C27.3374 90.4045 27.045 90.4615 26.75 90.4602Z" fill="#20ACF5"/>
<path d="M24.75 86.2301C24.5528 86.4205 24.3223 86.573 24.07 86.6801C23.8082 86.794 23.5255 86.8519 23.24 86.8501C22.6759 86.8475 22.1357 86.6222 21.7368 86.2234C21.3379 85.8245 21.1127 85.2842 21.11 84.7201C21.1111 84.5754 21.1278 84.4312 21.16 84.2901C21.257 83.8101 21.5172 83.3785 21.8964 83.0686C22.2756 82.7587 22.7503 82.5897 23.24 82.5901C23.5255 82.5884 23.8082 82.6463 24.07 82.7601C24.3223 82.8673 24.5528 83.0198 24.75 83.2101C25.0441 83.5062 25.2456 83.8815 25.33 84.2901C25.3455 84.433 25.3455 84.5772 25.33 84.7201C25.3412 85.1408 25.2262 85.5553 25 85.9101C24.9222 86.021 24.8387 86.1278 24.75 86.2301Z" fill="#20ACF5"/>
<path d="M10.2 72.1401C10.014 72.2694 9.80268 72.358 9.58002 72.4001C9.46356 72.4099 9.34648 72.4099 9.23002 72.4001C8.87338 72.4081 8.52334 72.3031 8.23002 72.1001C7.99366 71.9413 7.79985 71.7271 7.66561 71.476C7.53136 71.2249 7.46076 70.9448 7.46002 70.6601C7.45023 70.5436 7.45023 70.4265 7.46002 70.3101C7.53085 69.9813 7.69388 69.6795 7.93002 69.4401C8.00962 69.3617 8.0967 69.2914 8.19002 69.2301C8.37583 69.0982 8.58693 69.0063 8.81002 68.9601C8.92646 68.9498 9.04358 68.9498 9.16002 68.9601C9.27648 68.9502 9.39356 68.9502 9.51002 68.9601C9.73189 69.0101 9.94227 69.1017 10.13 69.2301C10.2201 69.2916 10.3039 69.3619 10.38 69.4401C10.6226 69.6762 10.7897 69.9789 10.86 70.3101C10.8699 70.4265 10.8699 70.5436 10.86 70.6601C10.8792 70.9419 10.8291 71.2241 10.714 71.4821C10.599 71.7401 10.4225 71.966 10.2 72.1401Z" fill="#20ACF5"/>
<path d="M9.61001 79.59C9.4838 79.6053 9.35621 79.6053 9.23001 79.59C8.72079 79.59 8.23243 79.3877 7.87236 79.0276C7.51229 78.6676 7.31001 78.1792 7.31001 77.67C7.31001 77.1608 7.51229 76.6724 7.87236 76.3123C8.23243 75.9523 8.72079 75.75 9.23001 75.75C9.35621 75.7347 9.4838 75.7347 9.61001 75.75C10.0423 75.8396 10.4305 76.0756 10.7093 76.418C10.988 76.7604 11.1401 77.1885 11.1401 77.63C11.1401 78.0715 10.988 78.4995 10.7093 78.842C10.4305 79.1844 10.0423 79.4203 9.61001 79.51V79.59Z" fill="#20ACF5"/>
<path d="M9.53999 65.2302C9.43689 65.24 9.33309 65.24 9.22999 65.2302C9.01396 65.2474 8.79668 65.2198 8.59185 65.149C8.38702 65.0782 8.19906 64.9657 8.03982 64.8187C7.88058 64.6717 7.7535 64.4933 7.66658 64.2948C7.57966 64.0963 7.53479 63.8819 7.53479 63.6652C7.53479 63.4484 7.57966 63.2341 7.66658 63.0355C7.7535 62.837 7.88058 62.6586 8.03982 62.5116C8.19906 62.3646 8.38702 62.2521 8.59185 62.1813C8.79668 62.1105 9.01396 62.0829 9.22999 62.1002C9.33309 62.0903 9.43689 62.0903 9.53999 62.1002C9.89112 62.1756 10.2058 62.3691 10.4315 62.6484C10.6572 62.9278 10.7803 63.276 10.7803 63.6352C10.7803 63.9943 10.6572 64.3426 10.4315 64.6219C10.2058 64.9012 9.89112 65.0948 9.53999 65.1702V65.2302Z" fill="#20ACF5"/>
<path d="M5.72002 76.0001C5.35766 76.0001 5.00345 75.8925 4.7023 75.691C4.40114 75.4894 4.1666 75.203 4.02839 74.8681C3.89018 74.5331 3.85453 74.1646 3.92595 73.8094C3.99738 73.4541 4.17266 73.1281 4.42959 72.8725C4.68653 72.617 5.01354 72.4435 5.36918 72.374C5.72482 72.3046 6.09308 72.3422 6.42729 72.4823C6.7615 72.6223 7.04661 72.8584 7.24649 73.1607C7.44636 73.4629 7.552 73.8177 7.55002 74.1801C7.55136 74.4203 7.50487 74.6584 7.41326 74.8805C7.32164 75.1025 7.18673 75.3042 7.0164 75.4736C6.84607 75.643 6.64372 75.7768 6.42115 75.8672C6.19858 75.9576 5.96024 76.0027 5.72002 76.0001Z" fill="#20ACF5"/>
<path d="M17.2 72.1402C16.9162 72.3358 16.5797 72.4406 16.235 72.4406C15.8903 72.4406 15.5538 72.3358 15.27 72.1402C15.0324 71.9827 14.8376 71.7687 14.7032 71.5174C14.5688 71.266 14.499 70.9852 14.5 70.7002C14.4853 70.584 14.4853 70.4664 14.5 70.3502C14.5664 70.0198 14.7301 69.7168 14.97 69.4802C15.0475 69.3995 15.1348 69.329 15.23 69.2702C15.4158 69.1383 15.6269 69.0464 15.85 69.0002C15.9631 68.9899 16.0769 68.9899 16.19 69.0002C16.3064 68.9899 16.4236 68.9899 16.54 69.0002C16.7631 69.0464 16.9742 69.1383 17.16 69.2702C17.2552 69.329 17.3425 69.3995 17.42 69.4802C17.6599 69.7168 17.8236 70.0198 17.89 70.3502C17.9047 70.4664 17.9047 70.584 17.89 70.7002C17.9 70.9781 17.8424 71.2543 17.7222 71.5051C17.6021 71.7559 17.4229 71.9738 17.2 72.1402Z" fill="#20ACF5"/>
<path d="M16.23 1.2401C16.1321 1.24324 16.0348 1.22312 15.9461 1.18141C15.8575 1.13969 15.78 1.07755 15.72 1.0001C15.6483 0.897485 15.6099 0.77529 15.61 0.6501C15.6052 0.610245 15.6052 0.569955 15.61 0.5301C15.6408 0.392628 15.7175 0.269746 15.8275 0.18169C15.9374 0.0936333 16.0741 0.0456543 16.215 0.0456543C16.3559 0.0456543 16.4926 0.0936333 16.6025 0.18169C16.7125 0.269746 16.7892 0.392628 16.82 0.5301C16.8248 0.569955 16.8248 0.610245 16.82 0.6501C16.8201 0.77529 16.7817 0.897485 16.71 1.0001C16.6526 1.07298 16.5798 1.13228 16.4968 1.17377C16.4139 1.21525 16.3227 1.2379 16.23 1.2401Z" fill="#20ACF5"/>
<path d="M16.23 8.32019C16.047 8.32019 15.8715 8.24749 15.7421 8.11809C15.6127 7.98869 15.54 7.81318 15.54 7.63019C15.54 7.44719 15.6127 7.27168 15.7421 7.14228C15.8715 7.01288 16.047 6.94019 16.23 6.94019C16.413 6.94019 16.5885 7.01288 16.7179 7.14228C16.8473 7.27168 16.92 7.44719 16.92 7.63019C16.92 7.81318 16.8473 7.98869 16.7179 8.11809C16.5885 8.24749 16.413 8.32019 16.23 8.32019Z" fill="#20ACF5"/>
<path d="M16.23 43.8201C15.9258 43.8175 15.6348 43.6955 15.4197 43.4804C15.2046 43.2653 15.0826 42.9743 15.08 42.6701C15.0696 42.5938 15.0696 42.5164 15.08 42.4401C15.1347 42.1822 15.2763 41.951 15.4811 41.785C15.6858 41.6191 15.9414 41.5286 16.205 41.5286C16.4686 41.5286 16.7242 41.6191 16.929 41.785C17.1338 41.951 17.2754 42.1822 17.33 42.4401C17.3404 42.5164 17.3404 42.5938 17.33 42.6701C17.3274 42.976 17.204 43.2685 16.9867 43.4839C16.7695 43.6993 16.4759 43.8201 16.17 43.8201H16.23Z" fill="#20ACF5"/>
<path d="M17 57.8602C16.7683 58.0171 16.4949 58.101 16.215 58.101C15.9352 58.101 15.6617 58.0171 15.43 57.8602C15.2375 57.7314 15.0795 57.5574 14.9697 57.3534C14.8599 57.1495 14.8016 56.9218 14.8 56.6902C14.7897 56.5938 14.7897 56.4966 14.8 56.4002C14.8566 56.1301 14.9924 55.8829 15.19 55.6902C15.2507 55.6229 15.3216 55.5656 15.4 55.5202C15.6278 55.3581 15.9004 55.2707 16.18 55.2702C16.2764 55.2599 16.3736 55.2599 16.47 55.2702C16.6502 55.3079 16.8205 55.3828 16.97 55.4902C17.0484 55.5356 17.1193 55.5929 17.18 55.6602C17.3776 55.8529 17.5134 56.1001 17.57 56.3702C17.5803 56.4666 17.5803 56.5638 17.57 56.6602C17.58 56.8915 17.5333 57.1218 17.434 57.331C17.3346 57.5401 17.1857 57.7218 17 57.8602Z" fill="#20ACF5"/>
<path d="M16.23 51.0002C15.9764 51.0002 15.7285 50.9248 15.5178 50.7838C15.3071 50.6427 15.1431 50.4422 15.0465 50.2077C14.9499 49.9732 14.9252 49.7153 14.9754 49.4668C15.0256 49.2182 15.1485 48.9902 15.3285 48.8115C15.5085 48.6329 15.7375 48.5118 15.9865 48.4636C16.2354 48.4153 16.4931 48.4421 16.7268 48.5405C16.9605 48.6389 17.1597 48.8045 17.2992 49.0164C17.4386 49.2282 17.512 49.4766 17.51 49.7302C17.51 49.8978 17.4768 50.0638 17.4124 50.2185C17.3479 50.3733 17.2535 50.5137 17.1345 50.6318C17.0155 50.7498 16.8743 50.8432 16.7191 50.9064C16.5638 50.9696 16.3976 51.0015 16.23 51.0002Z" fill="#20ACF5"/>
<path d="M16.76 29.43C16.6048 29.5345 16.422 29.5903 16.235 29.5903C16.0479 29.5903 15.8652 29.5345 15.71 29.43C15.5825 29.344 15.4783 29.2278 15.4067 29.0917C15.3352 28.9555 15.2985 28.8038 15.3 28.65C15.2901 28.5904 15.2901 28.5296 15.3 28.47C15.3339 28.2888 15.4209 28.1217 15.55 27.99L15.69 27.88C15.7907 27.8073 15.9072 27.7593 16.03 27.74C16.0896 27.7301 16.1504 27.7301 16.21 27.74C16.2729 27.7296 16.3371 27.7296 16.4 27.74C16.5228 27.7593 16.6393 27.8073 16.74 27.88L16.9 28C17.0291 28.1317 17.1161 28.2988 17.15 28.48C17.1599 28.5396 17.1599 28.6004 17.15 28.66C17.1521 28.8103 17.1177 28.9589 17.0497 29.093C16.9818 29.2271 16.8824 29.3427 16.76 29.43Z" fill="#20ACF5"/>
<path d="M16.23 22.49C16.0615 22.49 15.8968 22.4399 15.7568 22.3461C15.6168 22.2522 15.5078 22.1189 15.4438 21.963C15.3798 21.8071 15.3635 21.6357 15.3972 21.4705C15.4308 21.3053 15.5127 21.1539 15.6326 21.0355C15.7525 20.917 15.9049 20.8368 16.0704 20.8052C16.2359 20.7735 16.4072 20.7918 16.5623 20.8576C16.7174 20.9235 16.8495 21.034 16.9417 21.1751C17.0338 21.3162 17.082 21.4815 17.08 21.65C17.0774 21.8737 16.9867 22.0874 16.8276 22.2446C16.6684 22.4019 16.4537 22.4901 16.23 22.49Z" fill="#20ACF5"/>
<path d="M16.23 36.7002C16.0322 36.7002 15.8389 36.6415 15.6744 36.5317C15.51 36.4218 15.3818 36.2656 15.3061 36.0829C15.2304 35.9002 15.2106 35.6991 15.2492 35.5051C15.2878 35.3111 15.3831 35.1329 15.5229 34.9931C15.6628 34.8532 15.8409 34.758 16.0349 34.7194C16.2289 34.6808 16.43 34.7006 16.6127 34.7763C16.7954 34.852 16.9516 34.9802 17.0615 35.1446C17.1714 35.3091 17.23 35.5024 17.23 35.7002C17.23 35.9654 17.1247 36.2198 16.9371 36.4073C16.7496 36.5948 16.4952 36.7002 16.23 36.7002Z" fill="#20ACF5"/>
<path d="M16.66 15.2701C16.5325 15.3547 16.383 15.3999 16.23 15.4001C16.0293 15.3975 15.8374 15.3166 15.6955 15.1747C15.5535 15.0327 15.4726 14.8409 15.47 14.6401C15.4652 14.5869 15.4652 14.5334 15.47 14.4801C15.4992 14.3349 15.5726 14.2022 15.68 14.1001C15.7092 14.062 15.7469 14.0312 15.79 14.0101C15.8698 13.9502 15.9621 13.9092 16.06 13.8901H16.21H16.37C16.4679 13.9092 16.5602 13.9502 16.64 14.0101C16.6832 14.0312 16.7208 14.062 16.75 14.1001C16.8574 14.2022 16.9308 14.3349 16.96 14.4801C16.9649 14.5334 16.9649 14.5869 16.96 14.6401C16.9623 14.7612 16.9365 14.8812 16.8844 14.9906C16.8323 15.0999 16.7555 15.1956 16.66 15.2701Z" fill="#20ACF5"/>
<path d="M12.73 83.24C12.3344 83.24 11.9478 83.1227 11.6189 82.9029C11.29 82.6832 11.0336 82.3708 10.8823 82.0054C10.7309 81.6399 10.6913 81.2378 10.7684 80.8498C10.8456 80.4619 11.0361 80.1055 11.3158 79.8258C11.5955 79.5461 11.9519 79.3556 12.3398 79.2784C12.7278 79.2012 13.1299 79.2409 13.4954 79.3922C13.8608 79.5436 14.1732 79.8 14.393 80.1289C14.6127 80.4578 14.73 80.8444 14.73 81.24C14.73 81.7704 14.5193 82.2791 14.1442 82.6542C13.7692 83.0293 13.2604 83.24 12.73 83.24Z" fill="#20ACF5"/>
<path d="M12.73 76.0001C12.3676 76.0001 12.0134 75.8925 11.7123 75.691C11.4111 75.4894 11.1766 75.203 11.0384 74.8681C10.9002 74.5331 10.8645 74.1646 10.9359 73.8094C11.0074 73.4541 11.1826 73.1281 11.4396 72.8725C11.6965 72.617 12.0235 72.4435 12.3792 72.374C12.7348 72.3046 13.1031 72.3422 13.4373 72.4823C13.7715 72.6223 14.0566 72.8584 14.2565 73.1607C14.4563 73.4629 14.562 73.8177 14.56 74.1801C14.5613 74.4203 14.5149 74.6584 14.4232 74.8805C14.3316 75.1025 14.1967 75.3042 14.0264 75.4736C13.856 75.643 13.6537 75.7768 13.4311 75.8672C13.2086 75.9576 12.9702 76.0027 12.73 76.0001Z" fill="#20ACF5"/>
<path d="M12.73 68.85C12.4037 68.85 12.0847 68.7533 11.8133 68.572C11.542 68.3907 11.3305 68.133 11.2056 67.8315C11.0807 67.53 11.048 67.1982 11.1117 66.8781C11.1754 66.5581 11.3325 66.2641 11.5633 66.0333C11.794 65.8026 12.088 65.6454 12.4081 65.5818C12.7282 65.5181 13.0599 65.5508 13.3614 65.6756C13.6629 65.8005 13.9206 66.012 14.1019 66.2834C14.2832 66.5547 14.38 66.8737 14.38 67.2C14.38 67.6377 14.2062 68.0573 13.8967 68.3668C13.5873 68.6762 13.1676 68.85 12.73 68.85Z" fill="#20ACF5"/>
<path d="M40.76 76.0001C40.3976 76.0001 40.0434 75.8925 39.7423 75.691C39.4411 75.4894 39.2066 75.203 39.0684 74.8681C38.9302 74.5331 38.8945 74.1646 38.9659 73.8094C39.0374 73.4541 39.2126 73.1281 39.4696 72.8725C39.7265 72.617 40.0535 72.4435 40.4092 72.374C40.7648 72.3046 41.1331 72.3422 41.4673 72.4823C41.8015 72.6223 42.0866 72.8584 42.2865 73.1607C42.4863 73.4629 42.592 73.8177 42.59 74.1801C42.5913 74.4203 42.5448 74.6584 42.4532 74.8805C42.3616 75.1025 42.2267 75.3042 42.0564 75.4736C41.886 75.643 41.6837 75.7768 41.4611 75.8672C41.2386 75.9576 41.0002 76.0027 40.76 76.0001Z" fill="#20ACF5"/>
<path d="M40.76 68.85C40.4337 68.85 40.1147 68.7533 39.8433 68.572C39.572 68.3907 39.3605 68.133 39.2356 67.8315C39.1107 67.53 39.078 67.1982 39.1417 66.8781C39.2054 66.5581 39.3625 66.2641 39.5933 66.0333C39.824 65.8026 40.118 65.6454 40.4381 65.5818C40.7582 65.5181 41.0899 65.5508 41.3914 65.6756C41.6929 65.8005 41.9506 66.012 42.1319 66.2834C42.3132 66.5547 42.41 66.8737 42.41 67.2C42.41 67.6377 42.2362 68.0573 41.9267 68.3668C41.6173 68.6762 41.1976 68.85 40.76 68.85Z" fill="#20ACF5"/>
<path d="M40.76 61.6802C40.4653 61.6802 40.1772 61.5928 39.9322 61.4291C39.6872 61.2654 39.4962 61.0327 39.3834 60.7604C39.2706 60.4881 39.2411 60.1885 39.2986 59.8995C39.3561 59.6105 39.498 59.345 39.7064 59.1366C39.9148 58.9282 40.1803 58.7863 40.4693 58.7288C40.7583 58.6713 41.0579 58.7008 41.3302 58.8136C41.6025 58.9264 41.8352 59.1174 41.9989 59.3624C42.1626 59.6074 42.25 59.8955 42.25 60.1902C42.25 60.5854 42.093 60.9644 41.8136 61.2438C41.5342 61.5232 41.1552 61.6802 40.76 61.6802Z" fill="#20ACF5"/>
<path d="M45.24 72.1401C44.9452 72.3401 44.5962 72.4448 44.24 72.4401C43.8834 72.4482 43.5333 72.3431 43.24 72.1401C43.0036 71.9814 42.8098 71.7671 42.6756 71.516C42.5413 71.265 42.4708 70.9848 42.47 70.7001C42.4553 70.5839 42.4553 70.4663 42.47 70.3501C42.553 70.0125 42.7381 69.7087 43 69.4801C43.0775 69.3995 43.1649 69.3289 43.26 69.2701C43.4577 69.1331 43.683 69.0409 43.92 69.0001C44.0365 68.9899 44.1536 68.9899 44.27 69.0001C44.3865 68.9902 44.5036 68.9902 44.62 69.0001C44.8419 69.0501 45.0523 69.1417 45.24 69.2701C45.3301 69.3316 45.4139 69.402 45.49 69.4801C45.7335 69.714 45.8978 70.0182 45.96 70.3501C45.9748 70.4663 45.9748 70.5839 45.96 70.7001C45.9657 70.9805 45.9032 71.2581 45.7777 71.509C45.6523 71.7598 45.4678 71.9764 45.24 72.1401Z" fill="#20ACF5"/>
<path d="M45.06 57.86C44.8258 58.0154 44.5511 58.0988 44.27 58.1C43.9884 58.1018 43.713 58.0182 43.48 57.86C43.2875 57.7311 43.1295 57.5572 43.0197 57.3532C42.9099 57.1493 42.8516 56.9216 42.85 56.69C42.8397 56.5936 42.8397 56.4964 42.85 56.4C42.9104 56.1313 43.0456 55.8851 43.24 55.69C43.3007 55.6227 43.3716 55.5654 43.45 55.52C43.6143 55.4059 43.8024 55.3307 44 55.3C44.0964 55.2897 44.1936 55.2897 44.29 55.3C44.3831 55.2901 44.4769 55.2901 44.57 55.3C44.7533 55.3375 44.927 55.4124 45.08 55.52C45.1535 55.5682 45.2206 55.6253 45.28 55.69C45.4776 55.8827 45.6134 56.1299 45.67 56.4C45.6803 56.4964 45.6803 56.5936 45.67 56.69C45.6689 56.9195 45.613 57.1454 45.5069 57.349C45.4008 57.5525 45.2476 57.7277 45.06 57.86Z" fill="#20ACF5"/>
<path d="M44.27 65.2601C43.9587 65.2621 43.6537 65.1714 43.394 64.9997C43.1343 64.8279 42.9315 64.5828 42.8115 64.2955C42.6914 64.0082 42.6595 63.6917 42.7197 63.3863C42.78 63.0808 42.9297 62.8001 43.1499 62.58C43.3701 62.3598 43.6507 62.2101 43.9562 62.1498C44.2617 62.0895 44.5782 62.1215 44.8655 62.2415C45.1527 62.3616 45.3978 62.5644 45.5696 62.8241C45.7413 63.0838 45.832 63.3887 45.83 63.7001C45.83 64.1138 45.6657 64.5106 45.3731 64.8032C45.0805 65.0957 44.6838 65.2601 44.27 65.2601Z" fill="#20ACF5"/>
<path d="M31.22 72.1402C30.9342 72.3354 30.5961 72.4398 30.25 72.4398C29.9039 72.4398 29.5658 72.3354 29.28 72.1402C29.0449 71.9809 28.8526 71.7663 28.72 71.5152C28.5875 71.264 28.5188 70.9841 28.52 70.7002C28.5101 70.5837 28.5101 70.4666 28.52 70.3502C28.5909 70.0214 28.7539 69.7196 28.99 69.4802C29.0696 69.4018 29.1567 69.3315 29.25 69.2702C29.4468 69.1383 29.6677 69.0465 29.9 69.0002C30.1316 68.9602 30.3684 68.9602 30.6 69.0002C30.9312 69.078 31.2352 69.2439 31.48 69.4802C31.7162 69.7196 31.8792 70.0214 31.95 70.3502C31.9599 70.4666 31.9599 70.5837 31.95 70.7002C31.9546 70.9815 31.8905 71.2596 31.7633 71.5105C31.6361 71.7615 31.4496 71.9776 31.22 72.1402Z" fill="#20ACF5"/>
<path d="M30.25 86.8502C29.6859 86.8476 29.1457 86.6223 28.7468 86.2234C28.3479 85.8245 28.1226 85.2843 28.12 84.7202C28.1211 84.5755 28.1378 84.4313 28.17 84.2902C28.27 83.8112 28.5319 83.3813 28.9116 83.0727C29.2913 82.7642 29.7657 82.5957 30.255 82.5957C30.7443 82.5957 31.2187 82.7642 31.5984 83.0727C31.9781 83.3813 32.24 83.8112 32.34 84.2902C32.3503 84.4333 32.3503 84.577 32.34 84.7202C32.3482 85.1419 32.2297 85.5564 32 85.9102C31.806 86.1967 31.5455 86.4318 31.2407 86.5955C30.9359 86.7593 30.596 86.8466 30.25 86.8502Z" fill="#20ACF5"/>
<path d="M31 57.8601C30.7878 58.0036 30.5405 58.0866 30.2847 58.1002C30.0288 58.1137 29.7741 58.0573 29.5479 57.9371C29.3217 57.8168 29.1326 57.6371 29.0008 57.4174C28.869 57.1977 28.7996 56.9462 28.8 56.6901C28.7897 56.5937 28.7897 56.4965 28.8 56.4001C28.8527 56.1307 28.9851 55.8833 29.18 55.6901C29.245 55.6275 29.3152 55.5706 29.39 55.5201C29.5715 55.3964 29.7814 55.3207 30 55.3001C30.1845 55.26 30.3755 55.26 30.56 55.3001C30.7439 55.3358 30.9178 55.4108 31.07 55.5201C31.1448 55.5706 31.215 55.6275 31.28 55.6901C31.4749 55.8833 31.6073 56.1307 31.66 56.4001C31.6703 56.4965 31.6703 56.5937 31.66 56.6901C31.656 56.9246 31.5935 57.1544 31.4783 57.3587C31.363 57.563 31.1987 57.7353 31 57.8601Z" fill="#20ACF5"/>
<path d="M30.25 79.63C29.8703 79.63 29.4991 79.5174 29.1833 79.3065C28.8676 79.0955 28.6215 78.7956 28.4762 78.4448C28.3308 78.094 28.2928 77.7079 28.3669 77.3355C28.441 76.963 28.6239 76.6209 28.8924 76.3524C29.1609 76.0839 29.503 75.901 29.8754 75.8269C30.2479 75.7528 30.6339 75.7909 30.9848 75.9362C31.3356 76.0815 31.6355 76.3276 31.8464 76.6433C32.0574 76.9591 32.17 77.3303 32.17 77.71C32.17 78.2193 31.9677 78.7076 31.6077 79.0677C31.2476 79.4278 30.7592 79.63 30.25 79.63Z" fill="#20ACF5"/>
<path d="M30.25 36.7002C30.0522 36.7002 29.8589 36.6415 29.6944 36.5317C29.53 36.4218 29.4018 36.2656 29.3261 36.0829C29.2504 35.9002 29.2306 35.6991 29.2692 35.5051C29.3078 35.3111 29.403 35.1329 29.5429 34.9931C29.6827 34.8532 29.8609 34.758 30.0549 34.7194C30.2489 34.6808 30.45 34.7006 30.6327 34.7763C30.8154 34.852 30.9716 34.9802 31.0815 35.1446C31.1914 35.3091 31.25 35.5024 31.25 35.7002C31.25 35.9654 31.1446 36.2198 30.9571 36.4073C30.7696 36.5948 30.5152 36.7002 30.25 36.7002Z" fill="#20ACF5"/>
<path d="M30.25 22.4902C30.0418 22.4675 29.8492 22.3687 29.7093 22.2127C29.5694 22.0568 29.4921 21.8547 29.4921 21.6452C29.4921 21.4357 29.5694 21.2336 29.7093 21.0776C29.8492 20.9217 30.0418 20.8229 30.25 20.8002C30.3687 20.7872 30.4888 20.7995 30.6024 20.836C30.7161 20.8726 30.8208 20.9327 30.9096 21.0124C30.9985 21.0921 31.0696 21.1897 31.1183 21.2987C31.1669 21.4077 31.1921 21.5258 31.1921 21.6452C31.1921 21.7646 31.1669 21.8826 31.1183 21.9916C31.0696 22.1007 30.9985 22.1982 30.9096 22.2779C30.8208 22.3576 30.7161 22.4177 30.6024 22.4543C30.4888 22.4909 30.3687 22.5031 30.25 22.4902Z" fill="#20ACF5"/>
<path d="M30.77 29.43C30.6286 29.5239 30.4644 29.5778 30.2949 29.5859C30.1253 29.594 29.9568 29.556 29.8071 29.476C29.6573 29.3961 29.5321 29.277 29.4446 29.1316C29.3571 28.9862 29.3106 28.8197 29.31 28.65C29.3051 28.5901 29.3051 28.5299 29.31 28.47C29.3473 28.2878 29.4378 28.1208 29.57 27.99L29.71 27.88C29.8082 27.8093 29.9209 27.7614 30.04 27.74C30.103 27.7302 30.167 27.7302 30.23 27.74C30.2929 27.7296 30.3571 27.7296 30.42 27.74C30.5391 27.7614 30.6518 27.8093 30.75 27.88L30.89 27.99C31.0222 28.1208 31.1127 28.2878 31.15 28.47C31.1549 28.5299 31.1549 28.5901 31.15 28.65C31.154 28.801 31.1215 28.9507 31.0554 29.0865C30.9892 29.2223 30.8913 29.3401 30.77 29.43Z" fill="#20ACF5"/>
<path d="M30.25 43.8201C30.0615 43.8219 29.8757 43.7761 29.7096 43.687C29.5435 43.5978 29.4027 43.4682 29.3 43.3101C29.1671 43.1234 29.0971 42.8993 29.1 42.6701C29.0946 42.5935 29.0946 42.5167 29.1 42.4401C29.1498 42.1768 29.2899 41.9392 29.4962 41.7682C29.7025 41.5972 29.9621 41.5037 30.23 41.5037C30.498 41.5037 30.7575 41.5972 30.9638 41.7682C31.1701 41.9392 31.3103 42.1768 31.36 42.4401C31.3654 42.5167 31.3654 42.5935 31.36 42.6701C31.3629 42.8993 31.2929 43.1234 31.16 43.3101C31.0611 43.4626 30.9266 43.5887 30.768 43.6775C30.6095 43.7664 30.4317 43.8153 30.25 43.8201Z" fill="#20ACF5"/>
<path d="M30.25 1.24009C30.1521 1.24323 30.0548 1.22311 29.9662 1.1814C29.8775 1.13968 29.8 1.07755 29.74 1.00009C29.6683 0.897476 29.6299 0.775281 29.63 0.650091C29.6251 0.610242 29.6251 0.56994 29.63 0.530091C29.656 0.387235 29.7313 0.258026 29.8427 0.164991C29.9542 0.071956 30.0948 0.0209961 30.24 0.0209961C30.3852 0.0209961 30.5258 0.071956 30.6373 0.164991C30.7488 0.258026 30.824 0.387235 30.85 0.530091C30.8549 0.56994 30.8549 0.610242 30.85 0.650091C30.8491 0.773677 30.8145 0.894679 30.75 1.00009C30.6891 1.07398 30.6128 1.13372 30.5264 1.17516C30.4401 1.2166 30.3458 1.23876 30.25 1.24009Z" fill="#20ACF5"/>
<path d="M30.25 51.0002C29.9964 51.0002 29.7486 50.9248 29.5379 50.7838C29.3272 50.6427 29.1631 50.4422 29.0665 50.2077C28.9699 49.9732 28.9452 49.7153 28.9954 49.4668C29.0456 49.2182 29.1685 48.9902 29.3485 48.8115C29.5285 48.6329 29.7575 48.5118 30.0065 48.4636C30.2554 48.4153 30.5131 48.4421 30.7468 48.5405C30.9805 48.6389 31.1797 48.8045 31.3192 49.0164C31.4586 49.2282 31.532 49.4766 31.53 49.7302C31.53 49.8978 31.4968 50.0638 31.4324 50.2185C31.368 50.3733 31.2735 50.5137 31.1545 50.6318C31.0355 50.7498 30.8943 50.8432 30.7391 50.9064C30.5839 50.9696 30.4176 51.0015 30.25 51.0002Z" fill="#20ACF5"/>
<path d="M30.25 8.32019C30.1135 8.32019 29.9801 8.27972 29.8667 8.2039C29.7532 8.12808 29.6648 8.02032 29.6125 7.89424C29.5603 7.76816 29.5466 7.62942 29.5733 7.49557C29.5999 7.36173 29.6656 7.23878 29.7621 7.14228C29.8586 7.04578 29.9815 6.98007 30.1154 6.95344C30.2492 6.92682 30.388 6.94048 30.5141 6.99271C30.6401 7.04493 30.7479 7.13337 30.8237 7.24684C30.8995 7.36031 30.94 7.49372 30.94 7.63019C30.94 7.81319 30.8673 7.98869 30.7379 8.11809C30.6085 8.24749 30.433 8.32019 30.25 8.32019Z" fill="#20ACF5"/>
<path d="M30.68 15.2701C30.5525 15.3547 30.403 15.3999 30.25 15.4001C30.0972 15.3988 29.948 15.3536 29.82 15.2701C29.7184 15.1994 29.6354 15.1052 29.5779 14.9955C29.5205 14.8858 29.4903 14.7639 29.49 14.6401C29.485 14.5869 29.485 14.5334 29.49 14.4801C29.5232 14.3363 29.5959 14.2047 29.7 14.1001C29.7316 14.0644 29.7687 14.034 29.81 14.0101C29.8944 13.9519 29.9896 13.9111 30.09 13.8901H30.24H30.39C30.491 13.9091 30.5866 13.9501 30.67 14.0101C30.7132 14.0312 30.7508 14.062 30.78 14.1001C30.8841 14.2047 30.9569 14.3363 30.99 14.4801C30.995 14.5334 30.995 14.5869 30.99 14.6401C30.992 14.7622 30.9649 14.883 30.911 14.9925C30.8571 15.1021 30.7779 15.1972 30.68 15.2701Z" fill="#20ACF5"/>
<path d="M38 79.4801C37.7628 79.5804 37.5076 79.6314 37.25 79.6301C36.7408 79.6301 36.2524 79.4278 35.8924 79.0677C35.5323 78.7076 35.33 78.2193 35.33 77.7101C35.33 77.2008 35.5323 76.7125 35.8924 76.3524C36.2524 75.9924 36.7408 75.7901 37.25 75.7901C37.5076 75.7887 37.7628 75.8397 38 75.9401C38.2258 76.04 38.4322 76.1788 38.61 76.3501C38.9691 76.7116 39.1706 77.2005 39.1706 77.7101C39.1706 78.2196 38.9691 78.7085 38.61 79.0701C38.4322 79.2414 38.2258 79.3801 38 79.4801Z" fill="#20ACF5"/>
<path d="M38.23 72.1401C38.1355 72.2032 38.035 72.2568 37.93 72.3001C37.7187 72.3925 37.4906 72.4402 37.26 72.4401C36.9035 72.4468 36.5539 72.3419 36.26 72.1401C36.0236 71.9814 35.8298 71.7671 35.6956 71.516C35.5613 71.265 35.4907 70.9848 35.49 70.7001C35.4802 70.5836 35.4802 70.4666 35.49 70.3501C35.5608 70.0213 35.7239 69.7196 35.96 69.4801C36.0396 69.4018 36.1267 69.3314 36.22 69.2701C36.4266 69.129 36.6625 69.0366 36.91 69.0001C37.0264 68.9899 37.1436 68.9899 37.26 69.0001C37.3765 68.9902 37.4935 68.9902 37.61 69.0001C37.72 69.0262 37.8272 69.0631 37.93 69.1101C38.0369 69.1494 38.1378 69.2032 38.23 69.2701C38.322 69.3291 38.406 69.3996 38.48 69.4801C38.7226 69.7162 38.8896 70.019 38.96 70.3501C38.9699 70.4666 38.9699 70.5836 38.96 70.7001C38.9616 70.9288 38.9172 71.1555 38.8296 71.3668C38.742 71.5781 38.6129 71.7696 38.45 71.9301C38.3853 72.0087 38.3115 72.0792 38.23 72.1401Z" fill="#20ACF5"/>
<path d="M37.87 65.14C37.6313 65.2414 37.3711 65.2821 37.1128 65.2584C36.8545 65.2348 36.6061 65.1475 36.3898 65.0043C36.1735 64.8612 35.996 64.6667 35.8732 64.4382C35.7504 64.2097 35.6861 63.9544 35.6861 63.695C35.6861 63.4356 35.7504 63.1803 35.8732 62.9518C35.996 62.7233 36.1735 62.5288 36.3898 62.3857C36.6061 62.2425 36.8545 62.1552 37.1128 62.1316C37.3711 62.1079 37.6313 62.1486 37.87 62.25C38.0525 62.3328 38.2186 62.448 38.36 62.59C38.5055 62.7349 38.6208 62.9071 38.6996 63.0968C38.7783 63.2864 38.8188 63.4897 38.8188 63.695C38.8188 63.9003 38.7783 64.1036 38.6996 64.2932C38.6208 64.4829 38.5055 64.6551 38.36 64.8C38.2186 64.942 38.0525 65.0572 37.87 65.14Z" fill="#20ACF5"/>
<path d="M33.75 76.0001C33.3877 76.0001 33.0335 75.8925 32.7323 75.691C32.4311 75.4894 32.1966 75.203 32.0584 74.8681C31.9202 74.5331 31.8845 74.1646 31.9559 73.8094C32.0274 73.4541 32.2027 73.1281 32.4596 72.8725C32.7165 72.617 33.0435 72.4435 33.3992 72.374C33.7548 72.3046 34.1231 72.3422 34.4573 72.4823C34.7915 72.6223 35.0766 72.8584 35.2765 73.1607C35.4764 73.4629 35.582 73.8177 35.58 74.1801C35.58 74.4199 35.5326 74.6574 35.4405 74.8789C35.3484 75.1004 35.2135 75.3014 35.0434 75.4706C34.8734 75.6397 34.6715 75.7736 34.4496 75.8644C34.2276 75.9553 33.9899 76.0014 33.75 76.0001Z" fill="#20ACF5"/>
<path d="M5.72 68.85C5.39366 68.85 5.07465 68.7533 4.80331 68.572C4.53197 68.3907 4.32048 68.133 4.19559 67.8315C4.07071 67.53 4.03803 67.1982 4.1017 66.8781C4.16537 66.5581 4.32251 66.2641 4.55327 66.0333C4.78402 65.8026 5.07803 65.6454 5.3981 65.5818C5.71817 65.5181 6.04993 65.5508 6.35143 65.6756C6.65292 65.8005 6.91062 66.012 7.09192 66.2834C7.27323 66.5547 7.36999 66.8737 7.36999 67.2C7.37132 67.4171 7.32955 67.6323 7.2471 67.833C7.16465 68.0338 7.04316 68.2163 6.88968 68.3697C6.7362 68.5232 6.55378 68.6447 6.35299 68.7272C6.15221 68.8096 5.93705 68.8514 5.72 68.85Z" fill="#20ACF5"/>
<path d="M33.75 68.85C33.4237 68.85 33.1046 68.7533 32.8333 68.572C32.562 68.3907 32.3505 68.133 32.2256 67.8315C32.1007 67.53 32.068 67.1982 32.1317 66.8781C32.1954 66.5581 32.3525 66.2641 32.5833 66.0333C32.814 65.8026 33.108 65.6454 33.4281 65.5818C33.7482 65.5181 34.0799 65.5508 34.3814 65.6756C34.6829 65.8005 34.9406 66.012 35.1219 66.2834C35.3032 66.5547 35.4 66.8737 35.4 67.2C35.4013 67.4171 35.3595 67.6323 35.2771 67.833C35.1946 68.0338 35.0732 68.2163 34.9197 68.3697C34.7662 68.5232 34.5838 68.6447 34.383 68.7272C34.1822 68.8096 33.967 68.8514 33.75 68.85Z" fill="#20ACF5"/>
<path d="M33.75 83.24C33.3544 83.24 32.9678 83.1227 32.6389 82.9029C32.31 82.6832 32.0536 82.3708 31.9022 82.0054C31.7509 81.6399 31.7113 81.2378 31.7884 80.8498C31.8656 80.4619 32.0561 80.1055 32.3358 79.8258C32.6155 79.5461 32.9719 79.3556 33.3598 79.2784C33.7478 79.2012 34.1499 79.2409 34.5154 79.3922C34.8808 79.5436 35.1932 79.8 35.4129 80.1289C35.6327 80.4578 35.75 80.8444 35.75 81.24C35.75 81.7704 35.5393 82.2791 35.1642 82.6542C34.7891 83.0293 34.2804 83.24 33.75 83.24Z" fill="#20ACF5"/>
<path d="M5.72002 61.6802C5.42533 61.6802 5.13725 61.5928 4.89222 61.4291C4.64719 61.2654 4.45622 61.0327 4.34344 60.7604C4.23067 60.4881 4.20116 60.1885 4.25865 59.8995C4.31614 59.6105 4.45806 59.345 4.66644 59.1366C4.87482 58.9282 5.1403 58.7863 5.42934 58.7288C5.71837 58.6713 6.01796 58.7008 6.29022 58.8136C6.56248 58.9264 6.79519 59.1174 6.95891 59.3624C7.12264 59.6074 7.21002 59.8955 7.21002 60.1902C7.21002 60.3859 7.17148 60.5796 7.0966 60.7604C7.02172 60.9412 6.91197 61.1054 6.77361 61.2438C6.63525 61.3821 6.471 61.4919 6.29022 61.5668C6.10945 61.6417 5.91569 61.6802 5.72002 61.6802Z" fill="#20ACF5"/>
<path d="M3.19002 72.1402C2.9042 72.3354 2.56614 72.4398 2.22002 72.4398C1.87391 72.4398 1.53584 72.3354 1.25002 72.1402C1.01489 71.9809 0.822563 71.7663 0.690019 71.5152C0.557475 71.264 0.48879 70.9841 0.490022 70.7002C0.480141 70.5837 0.480141 70.4666 0.490022 70.3502C0.560856 70.0214 0.723883 69.7196 0.96002 69.4802C1.03962 69.4018 1.12671 69.3315 1.22002 69.2702C1.40583 69.1383 1.61693 69.0464 1.84002 69.0002C2.07165 68.9602 2.3084 68.9602 2.54002 69.0002C2.76189 69.0502 2.97227 69.1418 3.16002 69.2702C3.25204 69.3291 3.33607 69.3997 3.41002 69.4802C3.65261 69.7163 3.81966 70.019 3.89002 70.3502C3.8999 70.4666 3.8999 70.5837 3.89002 70.7002C3.898 70.9788 3.83851 71.2553 3.71663 71.506C3.59475 71.7567 3.41409 71.9743 3.19002 72.1402Z" fill="#20ACF5"/>
<path d="M2.22 65.2601C1.90864 65.2621 1.60372 65.1714 1.34401 64.9997C1.0843 64.8279 0.881521 64.5828 0.761454 64.2955C0.641387 64.0082 0.609455 63.6917 0.669715 63.3863C0.729974 63.0808 0.879703 62.8001 1.09987 62.58C1.32004 62.3598 1.60071 62.2101 1.90618 62.1498C2.21166 62.0895 2.52816 62.1215 2.81544 62.2415C3.10273 62.3616 3.34783 62.5644 3.51958 62.8241C3.69133 63.0838 3.78197 63.3887 3.78 63.7001C3.77738 64.113 3.61218 64.5083 3.32019 64.8003C3.0282 65.0923 2.63293 65.2575 2.22 65.2601Z" fill="#20ACF5"/>
<path d="M3 57.86C2.76625 58.0165 2.49129 58.1 2.20999 58.1C1.9287 58.1 1.65374 58.0165 1.41999 57.86C1.22876 57.7306 1.07221 57.5563 0.964111 57.3523C0.856007 57.1483 0.799652 56.9209 0.799995 56.69C0.789659 56.5936 0.789659 56.4964 0.799995 56.4C0.852674 56.1306 0.985062 55.8832 1.18 55.69C1.24072 55.6227 1.31157 55.5654 1.39 55.52C1.5395 55.4126 1.70981 55.3376 1.89 55.3C1.98641 55.2901 2.08358 55.2901 2.18 55.3C2.27304 55.2897 2.36695 55.2897 2.45999 55.3C2.64386 55.3357 2.81783 55.4108 2.97 55.52C3.04475 55.5705 3.11501 55.6274 3.18 55.69C3.37493 55.8832 3.50732 56.1306 3.56 56.4C3.57033 56.4964 3.57033 56.5936 3.56 56.69C3.56468 56.9152 3.51645 57.1384 3.41919 57.3416C3.32193 57.5448 3.17835 57.7224 3 57.86Z" fill="#20ACF5"/>
</g>
<defs>
<clipPath id="clip0_21_3037">
<rect width="45.51" height="94.09" fill="white" transform="matrix(-1 0 0 1 46 0)"/>
</clipPath>
</defs>
</svg>
