<svg width="72" height="29" viewBox="0 0 72 29" fill="none" xmlns="http://www.w3.org/2000/svg">
<path d="M33.9802 14.1793V22.387H31.3583V2.11757H38.3122C39.1423 2.10035 39.9675 2.24655 40.7404 2.54773C41.5132 2.8489 42.2184 3.2991 42.8151 3.87232C43.4179 4.41075 43.8976 5.07107 44.2221 5.80891C44.5465 6.54675 44.7081 7.34501 44.6961 8.15003C44.7134 8.95937 44.5542 9.76284 44.2296 10.5054C43.9049 11.2479 43.4224 11.912 42.8151 12.452C41.5992 13.6035 40.0982 14.1787 38.3122 14.1776H33.9802V14.1793ZM33.9802 4.61304V11.6886H38.3773C38.8594 11.7028 39.3391 11.617 39.7858 11.4365C40.2326 11.256 40.6364 10.985 40.9716 10.6406C41.3051 10.3187 41.5701 9.93364 41.7511 9.50821C41.9321 9.08278 42.0254 8.62562 42.0254 8.16378C42.0254 7.70194 41.9321 7.24479 41.7511 6.81936C41.5701 6.39392 41.3051 6.00885 40.9716 5.68691C40.6406 5.33533 40.2382 5.05762 39.7909 4.87221C39.3436 4.68679 38.8618 4.5979 38.3773 4.61142H33.9802V4.61304Z" fill="#5F6368"/>
<path d="M50.7381 8.06592C52.676 8.06592 54.2058 8.58021 55.3273 9.60881C56.4489 10.6374 57.0091 12.0477 57.008 13.8396V22.3869H54.5V20.4624H54.386C53.3003 22.0473 51.8563 22.8398 50.0541 22.8398C48.5156 22.8398 47.2285 22.3869 46.1928 21.4813C45.6957 21.0656 45.2983 20.545 45.0295 19.9575C44.7608 19.3699 44.6274 18.7302 44.6391 18.085C44.6391 16.6499 45.1852 15.5086 46.2775 14.6612C47.3697 13.8137 48.8278 13.3889 50.6518 13.3868C52.2087 13.3868 53.4909 13.6698 54.4984 14.2358V13.6407C54.5014 13.2008 54.4057 12.7658 54.2184 12.3672C54.0311 11.9686 53.7568 11.6163 53.4154 11.3361C52.7221 10.7148 51.8184 10.3759 50.8846 10.3867C49.42 10.3867 48.261 11.0002 47.4077 12.2272L45.0984 10.783C46.3687 8.9716 48.2486 8.06592 50.7381 8.06592ZM47.3458 18.1416C47.344 18.473 47.422 18.8 47.5733 19.0954C47.7246 19.3907 47.9447 19.646 48.2154 19.8397C48.7953 20.2927 49.5151 20.5327 50.2528 20.519C51.3592 20.5172 52.4198 20.0798 53.2021 19.3028C54.0706 18.4909 54.5049 17.5383 54.5049 16.4451C53.6874 15.7981 52.5474 15.4747 51.085 15.4747C50.0199 15.4747 49.1318 15.7297 48.4206 16.2397C47.7024 16.7572 47.3458 17.3863 47.3458 18.1416Z" fill="#5F6368"/>
<path d="M71.4044 8.51855L62.6493 28.5001H59.9427L63.1916 21.5086L57.4347 8.51855H60.2847L64.4456 18.481H64.5026L68.5496 8.51855H71.4044Z" fill="#5F6368"/>
<path d="M23.3849 12.4102C23.3859 11.6167 23.3183 10.8245 23.183 10.0425H12.1251V14.5272H18.4586C18.329 15.2435 18.0546 15.9263 17.6522 16.5344C17.2497 17.1426 16.7274 17.6635 16.1167 18.0658V20.9769H19.8966C22.1098 18.9505 23.3849 15.9536 23.3849 12.4102Z" fill="#4285F4"/>
<path d="M12.1251 23.7893C15.2894 23.7893 17.9537 22.7575 19.8966 20.9785L16.1167 18.0674C15.0646 18.7758 13.7097 19.1801 12.1251 19.1801C9.06668 19.1801 6.47076 17.1326 5.54249 14.3735H1.64862V17.3736C2.62456 19.3022 4.12105 20.9234 5.97103 22.0563C7.821 23.1892 9.95165 23.7892 12.1251 23.7893Z" fill="#34A853"/>
<path d="M5.54246 14.3733C5.05171 12.9275 5.05171 11.3619 5.54246 9.91607V6.91602H1.64859C0.827597 8.5384 0.400024 10.329 0.400024 12.1447C0.400024 13.9604 0.827597 15.751 1.64859 17.3734L5.54246 14.3733Z" fill="#FBBC04"/>
<path d="M12.1251 5.10953C13.7973 5.0824 15.413 5.70983 16.6232 6.85619L19.9698 3.53268C17.8477 1.55325 15.0363 0.466508 12.1251 0.500276C9.95165 0.500374 7.821 1.10038 5.97103 2.23329C4.12105 3.36621 2.62456 4.98746 1.64862 6.91603L5.54249 9.91609C6.47076 7.15701 9.06668 5.10953 12.1251 5.10953Z" fill="#EA4335"/>
</svg>
