<svg width="71" height="39" viewBox="0 0 71 39" fill="none" xmlns="http://www.w3.org/2000/svg">
<g clip-path="url(#clip0_144_1101)">
<path d="M33.5802 19.1793V27.387H30.9583V7.11757H37.9122C38.7422 7.10035 39.5675 7.24655 40.3404 7.54773C41.1132 7.8489 41.8184 8.2991 42.4151 8.87232C43.0179 9.41075 43.4976 10.0711 43.822 10.8089C44.1465 11.5467 44.3081 12.345 44.2961 13.15C44.3134 13.9594 44.1542 14.7628 43.8295 15.5054C43.5049 16.2479 43.0224 16.912 42.4151 17.452C41.1991 18.6035 39.6982 19.1787 37.9122 19.1776H33.5802V19.1793ZM33.5802 9.61304V16.6886H37.9773C38.4594 16.7028 38.9391 16.617 39.3858 16.4365C39.8325 16.256 40.2364 15.985 40.5716 15.6406C40.905 15.3187 41.1701 14.9336 41.3511 14.5082C41.5321 14.0828 41.6253 13.6256 41.6253 13.1638C41.6253 12.7019 41.5321 12.2448 41.3511 11.8194C41.1701 11.3939 40.905 11.0089 40.5716 10.6869C40.2406 10.3353 39.8381 10.0576 39.3909 9.87221C38.9436 9.68679 38.4618 9.5979 37.9773 9.61142H33.5802V9.61304Z" fill="#5F6368"/>
<path d="M50.338 13.0659C52.276 13.0659 53.8058 13.5802 54.9273 14.6088C56.0488 15.6374 56.6091 17.0477 56.608 18.8396V27.3869H54.1V25.4624H53.986C52.9003 27.0473 51.4563 27.8398 49.6541 27.8398C48.1156 27.8398 46.8285 27.3869 45.7928 26.4813C45.2957 26.0656 44.8983 25.545 44.6295 24.9575C44.3607 24.3699 44.2274 23.7302 44.2391 23.085C44.2391 21.6499 44.7852 20.5086 45.8774 19.6612C46.9697 18.8137 48.4278 18.3889 50.2517 18.3868C51.8086 18.3868 53.0908 18.6698 54.0984 19.2358V18.6407C54.1013 18.2008 54.0057 17.7658 53.8184 17.3672C53.6311 16.9686 53.3568 16.6163 53.0154 16.3361C52.322 15.7148 51.4184 15.3759 50.4846 15.3867C49.02 15.3867 47.861 16.0002 47.0077 17.2272L44.6984 15.783C45.9686 13.9716 47.8485 13.0659 50.338 13.0659ZM46.9458 23.1416C46.944 23.473 47.022 23.8 47.1733 24.0954C47.3246 24.3907 47.5447 24.646 47.8154 24.8397C48.3953 25.2927 49.1151 25.5327 49.8527 25.519C50.9592 25.5172 52.0197 25.0798 52.802 24.3028C53.6706 23.4909 54.1049 22.5383 54.1049 21.4451C53.2874 20.7981 52.1474 20.4747 50.6849 20.4747C49.6199 20.4747 48.7318 20.7297 48.0206 21.2397C47.3024 21.7572 46.9458 22.3863 46.9458 23.1416V23.1416Z" fill="#5F6368"/>
<path d="M71.0044 13.5186L62.2493 33.5001H59.5426L62.7916 26.5086L57.0347 13.5186H59.8846L64.0456 23.481H64.1026L68.1495 13.5186H71.0044Z" fill="#5F6368"/>
<path d="M22.9849 17.4102C22.9859 16.6167 22.9183 15.8245 22.783 15.0425H11.7251V19.5272H18.0585C17.9289 20.2435 17.6546 20.9263 17.2521 21.5344C16.8497 22.1426 16.3273 22.6635 15.7167 23.0658V25.9769H19.4965C21.7097 23.9505 22.9849 20.9536 22.9849 17.4102Z" fill="#4285F4"/>
<path d="M11.7251 28.7893C14.8894 28.7893 17.5537 27.7575 19.4965 25.9785L15.7167 23.0674C14.6646 23.7758 13.3097 24.1801 11.7251 24.1801C8.66665 24.1801 6.07074 22.1326 5.14246 19.3735H1.2486V22.3736C2.22453 24.3022 3.72103 25.9234 5.571 27.0563C7.42098 28.1892 9.55163 28.7892 11.7251 28.7893V28.7893Z" fill="#34A853"/>
<path d="M5.14243 19.3733C4.65169 17.9275 4.65169 16.3619 5.14243 14.9161V11.916H1.24857C0.427573 13.5384 0 15.329 0 17.1447C0 18.9604 0.427573 20.751 1.24857 22.3734L5.14243 19.3733Z" fill="#FBBC04"/>
<path d="M11.7251 10.1095C13.3973 10.0824 15.013 10.7098 16.2231 11.8562L19.5698 8.53268C17.4477 6.55325 14.6363 5.46651 11.7251 5.50028C9.55163 5.50037 7.42098 6.10038 5.571 7.23329C3.72103 8.36621 2.22453 9.98746 1.2486 11.916L5.14246 14.9161C6.07074 12.157 8.66665 10.1095 11.7251 10.1095Z" fill="#EA4335"/>
</g>
<defs>
<clipPath id="clip0_144_1101">
<rect width="71" height="39" fill="white"/>
</clipPath>
</defs>
</svg>
