<svg width="109" height="54" viewBox="0 0 109 54" fill="none" xmlns="http://www.w3.org/2000/svg">
<path d="M78.6228 24.6921C78.6245 24.3836 78.5345 24.0815 78.3641 23.8243C78.1937 23.5671 77.9508 23.3663 77.666 23.2474C77.3813 23.1286 77.0677 23.097 76.765 23.1568C76.4623 23.2166 76.1843 23.365 75.9661 23.5832C75.7479 23.8013 75.5995 24.0794 75.5397 24.3821C75.48 24.6848 75.5115 24.9984 75.6303 25.2831C75.7492 25.5678 75.95 25.8108 76.2072 25.9812C76.4645 26.1515 76.7665 26.2416 77.075 26.2399C77.4855 26.2399 77.8792 26.0768 78.1695 25.7866C78.4598 25.4963 78.6228 25.1026 78.6228 24.6921Z" fill="#20ACF5"/>
<path d="M90.9202 24.6921C90.9169 24.3161 90.8023 23.9494 90.591 23.6384C90.3796 23.3274 90.0809 23.0859 89.7326 22.9443C89.3842 22.8027 89.0017 22.7674 88.6333 22.8428C88.2649 22.9182 87.9271 23.101 87.6623 23.3681C87.3976 23.6351 87.2179 23.9746 87.1457 24.3437C87.0736 24.7127 87.1123 25.0949 87.257 25.442C87.4016 25.7891 87.6458 26.0856 87.9587 26.2942C88.2716 26.5028 88.6392 26.6141 89.0153 26.6141C89.2669 26.6141 89.516 26.5643 89.7482 26.4675C89.9805 26.3707 90.1912 26.2288 90.3683 26.0501C90.5455 25.8714 90.6854 25.6594 90.7801 25.4263C90.8749 25.1932 90.9225 24.9437 90.9202 24.6921Z" fill="#20ACF5"/>
<path d="M84.7801 24.6921C84.7801 24.3557 84.6803 24.0268 84.4934 23.7471C84.3065 23.4674 84.0409 23.2494 83.7301 23.1207C83.4193 22.9919 83.0773 22.9582 82.7474 23.0239C82.4174 23.0895 82.1143 23.2515 81.8765 23.4894C81.6386 23.7272 81.4766 24.0303 81.411 24.3602C81.3453 24.6902 81.379 25.0322 81.5078 25.343C81.6365 25.6538 81.8545 25.9194 82.1342 26.1063C82.4139 26.2932 82.7428 26.3929 83.0792 26.3929C83.5303 26.3929 83.9629 26.2137 84.2819 25.8948C84.6009 25.5758 84.7801 25.1432 84.7801 24.6921Z" fill="#20ACF5"/>
<path d="M60.3555 24.6921C60.3555 24.4667 60.2886 24.2464 60.1634 24.059C60.0382 23.8716 59.8602 23.7255 59.652 23.6392C59.4437 23.553 59.2146 23.5304 58.9936 23.5744C58.7725 23.6184 58.5694 23.7269 58.4101 23.8863C58.2507 24.0456 58.1422 24.2487 58.0982 24.4698C58.0542 24.6908 58.0768 24.9199 58.163 25.1282C58.2493 25.3364 58.3954 25.5144 58.5828 25.6396C58.7702 25.7648 58.9905 25.8317 59.2159 25.8317C59.5181 25.8317 59.808 25.7116 60.0217 25.4979C60.2354 25.2842 60.3555 24.9943 60.3555 24.6921Z" fill="#20ACF5"/>
<path d="M54.2918 24.6921C54.2935 24.4865 54.2341 24.2851 54.1211 24.1134C54.0081 23.9416 53.8467 23.8073 53.6573 23.7275C53.4678 23.6477 53.259 23.6259 53.0571 23.665C52.8553 23.704 52.6697 23.8022 52.5237 23.9469C52.3778 24.0917 52.2781 24.2765 52.2374 24.478C52.1966 24.6795 52.2167 24.8886 52.295 25.0787C52.3732 25.2687 52.5062 25.4313 52.677 25.5457C52.8478 25.6601 53.0487 25.7211 53.2543 25.7211C53.528 25.7211 53.7906 25.613 53.985 25.4203C54.1793 25.2275 54.2896 24.9658 54.2918 24.6921Z" fill="#20ACF5"/>
<path d="M66.4446 24.6921C66.4462 24.4411 66.3734 24.1953 66.2351 23.9858C66.0969 23.7763 65.8996 23.6126 65.6682 23.5154C65.4369 23.4181 65.1818 23.3918 64.9354 23.4398C64.6891 23.4877 64.4625 23.6077 64.2844 23.7846C64.1064 23.9614 63.9848 24.1872 63.9353 24.4332C63.8857 24.6793 63.9103 24.9345 64.0059 25.1665C64.1016 25.3986 64.264 25.597 64.4725 25.7366C64.6811 25.8762 64.9264 25.9507 65.1774 25.9507C65.512 25.9508 65.833 25.8184 66.0704 25.5826C66.3078 25.3468 66.4423 25.0267 66.4446 24.6921Z" fill="#20ACF5"/>
<path d="M81.71 21.7071C81.7083 21.3845 81.6111 21.0697 81.4307 20.8023C81.2503 20.5349 80.9947 20.3269 80.6961 20.2046C80.3976 20.0823 80.0696 20.0512 79.7534 20.1152C79.4372 20.1791 79.1471 20.3353 78.9196 20.564C78.6921 20.7927 78.5374 21.0837 78.4751 21.4002C78.4128 21.7167 78.4456 22.0445 78.5694 22.3424C78.6933 22.6403 78.9026 22.8948 79.1709 23.0738C79.4392 23.2529 79.7546 23.3484 80.0772 23.3484C80.2923 23.3485 80.5053 23.3059 80.704 23.2233C80.9026 23.1408 81.083 23.0197 81.2348 22.8672C81.3865 22.7147 81.5066 22.5337 81.5882 22.3346C81.6697 22.1355 81.7111 21.9222 81.71 21.7071Z" fill="#20ACF5"/>
<path d="M48.2282 24.6921C48.2299 24.5064 48.1763 24.3244 48.0741 24.1692C47.972 24.0141 47.826 23.8929 47.6547 23.821C47.4834 23.7492 47.2946 23.7299 47.1124 23.7657C46.9301 23.8016 46.7626 23.8908 46.6313 24.0222C46.5 24.1535 46.4107 24.321 46.3749 24.5032C46.339 24.6855 46.3583 24.8743 46.4301 25.0456C46.502 25.2168 46.6232 25.3629 46.7783 25.465C46.9335 25.5671 47.1155 25.6208 47.3012 25.6191C47.423 25.6191 47.5435 25.5951 47.656 25.5485C47.7685 25.502 47.8706 25.4337 47.9567 25.3476C48.0428 25.2615 48.1111 25.1593 48.1577 25.0469C48.2042 24.9344 48.2282 24.8139 48.2282 24.6921Z" fill="#20ACF5"/>
<path d="M87.8501 21.7071C87.8501 21.4696 87.8032 21.2344 87.7121 21.0151C87.6209 20.7959 87.4874 20.5967 87.319 20.4292C87.1507 20.2617 86.951 20.129 86.7312 20.0389C86.5115 19.9488 86.2762 19.903 86.0387 19.9041C85.9171 19.891 85.7945 19.891 85.673 19.9041C85.2657 19.9892 84.9001 20.2119 84.6376 20.5349C84.3752 20.8578 84.2319 21.2612 84.2319 21.6773C84.2319 22.0934 84.3752 22.4968 84.6376 22.8198C84.9001 23.1427 85.2657 23.3654 85.673 23.4505C85.7945 23.4636 85.9171 23.4636 86.0387 23.4505C86.2769 23.4516 86.5129 23.4055 86.7332 23.3149C86.9535 23.2242 87.1536 23.0909 87.3221 22.9224C87.4905 22.754 87.6239 22.5539 87.7145 22.3336C87.8051 22.1133 87.8512 21.8772 87.8501 21.639L87.8501 21.7071Z" fill="#20ACF5"/>
<path d="M24.0757 24.6921C24.0757 24.5275 24.0103 24.3696 23.8938 24.2531C23.7774 24.1367 23.6195 24.0713 23.4548 24.0713C23.2917 24.0735 23.1359 24.1399 23.0213 24.2561C22.9068 24.3723 22.8425 24.5289 22.8425 24.6921C22.8425 24.8545 22.907 25.0103 23.0219 25.1251C23.1367 25.2399 23.2924 25.3044 23.4548 25.3044C23.618 25.3045 23.7747 25.2402 23.8909 25.1256C24.007 25.011 24.0734 24.8553 24.0757 24.6921Z" fill="#20ACF5"/>
<path d="M30.1478 24.6921C30.1495 24.5556 30.1105 24.4215 30.0359 24.3071C29.9612 24.1928 29.8542 24.1031 29.7285 24.0497C29.6028 23.9963 29.464 23.9814 29.3298 24.007C29.1957 24.0326 29.0721 24.0975 28.9749 24.1935C28.8777 24.2895 28.8113 24.4122 28.784 24.5461C28.7567 24.6799 28.7699 24.8189 28.8218 24.9453C28.8736 25.0716 28.9619 25.1797 29.0754 25.2558C29.1888 25.3319 29.3223 25.3725 29.4589 25.3725C29.6402 25.3725 29.8141 25.3011 29.9431 25.1738C30.072 25.0464 30.1456 24.8734 30.1478 24.6921Z" fill="#20ACF5"/>
<path d="M36.1009 24.6921C36.1009 24.5424 36.0565 24.396 35.9734 24.2716C35.8902 24.1471 35.772 24.0501 35.6337 23.9928C35.4954 23.9355 35.3432 23.9205 35.1964 23.9497C35.0496 23.9789 34.9147 24.051 34.8088 24.1569C34.703 24.2627 34.6309 24.3976 34.6017 24.5444C34.5725 24.6912 34.5875 24.8434 34.6448 24.9817C34.7021 25.12 34.7991 25.2382 34.9235 25.3214C35.048 25.4046 35.1944 25.449 35.3441 25.449C35.5448 25.449 35.7373 25.3692 35.8793 25.2273C36.0212 25.0853 36.1009 24.8928 36.1009 24.6921Z" fill="#20ACF5"/>
<path d="M18.0546 24.6921C18.0563 24.5804 18.0246 24.4707 17.9636 24.3771C17.9026 24.2835 17.815 24.2102 17.7121 24.1667C17.6092 24.1232 17.4957 24.1113 17.386 24.1327C17.2763 24.1541 17.1755 24.2077 17.0965 24.2868C17.0175 24.3658 16.9639 24.4665 16.9425 24.5762C16.9211 24.6859 16.933 24.7994 16.9765 24.9023C17.02 25.0052 17.0933 25.0928 17.1869 25.1538C17.2805 25.2149 17.3901 25.2466 17.5019 25.2449C17.6485 25.2449 17.7891 25.1866 17.8927 25.083C17.9964 24.9793 18.0546 24.8387 18.0546 24.6921Z" fill="#20ACF5"/>
<path d="M42.1732 24.6921C42.1732 24.5239 42.1233 24.3595 42.0298 24.2196C41.9364 24.0798 41.8036 23.9708 41.6482 23.9064C41.4928 23.842 41.3218 23.8252 41.1568 23.858C40.9918 23.8908 40.8403 23.9718 40.7214 24.0908C40.6024 24.2097 40.5214 24.3612 40.4886 24.5262C40.4558 24.6912 40.4727 24.8622 40.537 25.0176C40.6014 25.1729 40.7104 25.3058 40.8503 25.3992C40.9901 25.4927 41.1545 25.5425 41.3227 25.5425C41.5483 25.5425 41.7646 25.4529 41.9241 25.2935C42.0836 25.134 42.1732 24.9177 42.1732 24.6921Z" fill="#20ACF5"/>
<path d="M24.0757 30.6537C24.0757 30.489 24.0103 30.3311 23.8938 30.2147C23.7774 30.0983 23.6195 30.0329 23.4548 30.0329C23.2917 30.0351 23.1359 30.1015 23.0213 30.2177C22.9068 30.3339 22.8425 30.4905 22.8425 30.6537C22.8425 30.8161 22.907 30.9718 23.0219 31.0866C23.1367 31.2015 23.2924 31.266 23.4548 31.266C23.618 31.266 23.7747 31.2018 23.8909 31.0872C24.007 30.9726 24.0734 30.8168 24.0757 30.6537Z" fill="#20ACF5"/>
<path d="M18.0546 30.6537C18.0563 30.542 18.0246 30.4323 17.9636 30.3387C17.9026 30.2451 17.815 30.1719 17.7121 30.1283C17.6092 30.0848 17.4957 30.073 17.386 30.0943C17.2763 30.1157 17.1755 30.1694 17.0965 30.2484C17.0175 30.3274 16.9639 30.4282 16.9425 30.5378C16.9211 30.6475 16.933 30.761 16.9765 30.8639C17.02 30.9668 17.0933 31.0544 17.1869 31.1154C17.2805 31.1765 17.3901 31.2082 17.5019 31.2065C17.6485 31.2065 17.7891 31.1482 17.8927 31.0446C17.9964 30.9409 18.0546 30.8003 18.0546 30.6537Z" fill="#20ACF5"/>
<path d="M30.1478 30.6536C30.1495 30.517 30.1105 30.383 30.0359 30.2686C29.9612 30.1542 29.8542 30.0646 29.7285 30.0112C29.6028 29.9577 29.464 29.9429 29.3298 29.9685C29.1957 29.9941 29.0721 30.059 28.9749 30.155C28.8777 30.251 28.8113 30.3737 28.784 30.5076C28.7567 30.6414 28.7699 30.7804 28.8218 30.9067C28.8736 31.0331 28.9619 31.1412 29.0754 31.2173C29.1888 31.2934 29.3223 31.334 29.4589 31.334C29.6402 31.334 29.8141 31.2626 29.9431 31.1352C30.072 31.0079 30.1456 30.8349 30.1478 30.6536Z" fill="#20ACF5"/>
<path d="M14.891 28.0428C14.9421 27.9968 14.9803 27.9381 15.0015 27.8727C15.0335 27.8096 15.0482 27.7392 15.044 27.6686C15.0467 27.5853 15.0296 27.5026 14.9941 27.4272C14.9587 27.3518 14.9058 27.2859 14.8399 27.2349C14.7527 27.1739 14.6488 27.1412 14.5423 27.1413C14.5423 27.1413 14.4743 27.1413 14.4402 27.1413C14.3202 27.165 14.2121 27.2297 14.1345 27.3244C14.0569 27.419 14.0147 27.5377 14.015 27.6601C14.015 27.7303 14.0295 27.7998 14.0575 27.8642C14.0822 27.928 14.1199 27.9859 14.1681 28.0343C14.2403 28.1113 14.336 28.1622 14.4402 28.1789C14.4741 28.1831 14.5084 28.1831 14.5423 28.1789C14.6474 28.1781 14.7503 28.1487 14.8399 28.0938L14.891 28.0428Z" fill="#20ACF5"/>
<path d="M36.1009 30.6537C36.1009 30.504 36.0565 30.3577 35.9734 30.2332C35.8902 30.1087 35.772 30.0117 35.6337 29.9544C35.4954 29.8971 35.3432 29.8821 35.1964 29.9113C35.0496 29.9406 34.9147 30.0126 34.8088 30.1185C34.703 30.2243 34.6309 30.3592 34.6017 30.506C34.5725 30.6529 34.5875 30.805 34.6448 30.9433C34.7021 31.0816 34.7991 31.1999 34.9235 31.283C35.048 31.3662 35.1944 31.4106 35.3441 31.4106C35.5448 31.4106 35.7373 31.3308 35.8793 31.1889C36.0212 31.047 36.1009 30.8544 36.1009 30.6537Z" fill="#20ACF5"/>
<path d="M42.1732 30.6537C42.1732 30.4854 42.1233 30.321 42.0298 30.1812C41.9364 30.0413 41.8036 29.9323 41.6482 29.8679C41.4928 29.8036 41.3218 29.7867 41.1568 29.8196C40.9918 29.8524 40.8403 29.9334 40.7214 30.0523C40.6024 30.1712 40.5214 30.3228 40.4886 30.4877C40.4558 30.6527 40.4727 30.8237 40.537 30.9791C40.6014 31.1345 40.7104 31.2673 40.8503 31.3608C40.9901 31.4542 41.1545 31.5041 41.3227 31.5041C41.5483 31.5041 41.7646 31.4145 41.9241 31.255C42.0836 31.0955 42.1732 30.8792 42.1732 30.6537Z" fill="#20ACF5"/>
<path d="M66.4446 30.6536C66.4462 30.4027 66.3734 30.1568 66.2351 29.9473C66.0969 29.7378 65.8996 29.5741 65.6682 29.4769C65.4369 29.3797 65.1818 29.3534 64.9354 29.4013C64.6891 29.4492 64.4625 29.5692 64.2844 29.7461C64.1064 29.923 63.9848 30.1488 63.9353 30.3948C63.8857 30.6408 63.9103 30.896 64.0059 31.1281C64.1016 31.3601 64.264 31.5585 64.4725 31.6981C64.6811 31.8377 64.9264 31.9123 65.1774 31.9123C65.512 31.9123 65.833 31.78 66.0704 31.5442C66.3078 31.3084 66.4423 30.9882 66.4446 30.6536Z" fill="#20ACF5"/>
<path d="M84.7801 30.6537C84.7801 30.3173 84.6803 29.9884 84.4934 29.7087C84.3065 29.429 84.0409 29.211 83.7301 29.0823C83.4193 28.9535 83.0773 28.9199 82.7474 28.9855C82.4174 29.0511 82.1143 29.2131 81.8765 29.451C81.6386 29.6888 81.4766 29.9919 81.411 30.3219C81.3453 30.6518 81.379 30.9938 81.5078 31.3046C81.6365 31.6154 81.8545 31.881 82.1342 32.0679C82.4139 32.2548 82.7428 32.3546 83.0792 32.3546C83.5303 32.3546 83.9629 32.1754 84.2819 31.8564C84.6009 31.5374 84.7801 31.1048 84.7801 30.6537Z" fill="#20ACF5"/>
<path d="M78.6228 30.6537C78.6245 30.3451 78.5345 30.0431 78.3641 29.7858C78.1937 29.5286 77.9508 29.3278 77.666 29.209C77.3813 29.0901 77.0677 29.0586 76.765 29.1184C76.4623 29.1781 76.1843 29.3265 75.9661 29.5447C75.7479 29.7629 75.5995 30.041 75.5397 30.3436C75.48 30.6463 75.5115 30.9599 75.6303 31.2447C75.7492 31.5294 75.95 31.7724 76.2072 31.9427C76.4645 32.1131 76.7665 32.2031 77.075 32.2015C77.4855 32.2015 77.8792 32.0384 78.1695 31.7481C78.4598 31.4578 78.6228 31.0642 78.6228 30.6537Z" fill="#20ACF5"/>
<path d="M48.2282 30.6537C48.2299 30.4679 48.1763 30.2859 48.0741 30.1308C47.972 29.9756 47.826 29.8544 47.6547 29.7826C47.4834 29.7107 47.2946 29.6915 47.1124 29.7273C46.9301 29.7631 46.7626 29.8524 46.6313 29.9837C46.5 30.1151 46.4107 30.2825 46.3749 30.4648C46.339 30.647 46.3583 30.8358 46.4301 31.0071C46.502 31.1784 46.6232 31.3244 46.7783 31.4265C46.9335 31.5287 47.1155 31.5823 47.3012 31.5807C47.423 31.5807 47.5435 31.5567 47.656 31.5101C47.7685 31.4635 47.8706 31.3952 47.9567 31.3091C48.0428 31.2231 48.1111 31.1209 48.1577 31.0084C48.2042 30.8959 48.2282 30.7754 48.2282 30.6537Z" fill="#20ACF5"/>
<path d="M60.3555 30.6537C60.3555 30.4283 60.2886 30.208 60.1634 30.0206C60.0382 29.8332 59.8602 29.6871 59.652 29.6008C59.4437 29.5146 59.2146 29.492 58.9936 29.536C58.7725 29.58 58.5694 29.6885 58.4101 29.8479C58.2507 30.0072 58.1422 30.2103 58.0982 30.4314C58.0542 30.6524 58.0768 30.8816 58.163 31.0898C58.2493 31.298 58.3954 31.476 58.5828 31.6012C58.7702 31.7264 58.9905 31.7933 59.2159 31.7933C59.5174 31.791 59.806 31.6703 60.0192 31.457C60.2325 31.2438 60.3532 30.9552 60.3555 30.6537Z" fill="#20ACF5"/>
<path d="M54.2918 30.6537C54.2868 30.4496 54.2217 30.2516 54.1047 30.0844C53.9877 29.9171 53.8239 29.7881 53.634 29.7135C53.444 29.6389 53.2362 29.6219 53.0367 29.6648C52.8371 29.7077 52.6546 29.8084 52.5121 29.9545C52.3695 30.1006 52.2732 30.2855 52.2352 30.486C52.1972 30.6865 52.2192 30.8938 52.2984 31.0819C52.3776 31.27 52.5106 31.4306 52.6806 31.5435C52.8506 31.6564 53.0502 31.7167 53.2543 31.7167C53.3927 31.7168 53.5297 31.6891 53.6573 31.6354C53.7849 31.5817 53.9004 31.5029 53.9971 31.4039C54.0938 31.3048 54.1697 31.1874 54.2203 31.0586C54.2709 30.9297 54.2952 30.7921 54.2918 30.6537Z" fill="#20ACF5"/>
<path d="M57.2345 28.0938C57.2935 27.96 57.3225 27.8148 57.3195 27.6686C57.2955 27.3976 57.1708 27.1454 56.9701 26.9617C56.7695 26.778 56.5073 26.6762 56.2352 26.6762C55.9631 26.6762 55.7009 26.778 55.5002 26.9617C55.2995 27.1454 55.1749 27.3976 55.1509 27.6686C55.152 27.8145 55.1808 27.9588 55.2359 28.0938C55.2924 28.2217 55.3732 28.3372 55.474 28.434C55.5738 28.5358 55.6929 28.6167 55.8243 28.6719C55.9558 28.7272 56.0969 28.7556 56.2394 28.7556C56.382 28.7556 56.5231 28.7272 56.6545 28.6719C56.786 28.6167 56.9051 28.5358 57.0048 28.434C57.1058 28.3392 57.1843 28.2229 57.2345 28.0938Z" fill="#20ACF5"/>
<path d="M45.1326 28.0173C45.1772 27.9064 45.2003 27.7881 45.2007 27.6686C45.2007 27.4341 45.1075 27.2091 44.9416 27.0432C44.7758 26.8774 44.5508 26.7842 44.3162 26.7842C44.0816 26.7842 43.8567 26.8774 43.6908 27.0432C43.5249 27.2091 43.4318 27.4341 43.4318 27.6686C43.4323 27.789 43.4584 27.9078 43.5083 28.0173C43.5513 28.1224 43.6149 28.2178 43.6954 28.298C43.8623 28.4616 44.0867 28.5532 44.3205 28.5532C44.5542 28.5532 44.7786 28.4616 44.9455 28.298C45.0232 28.2155 45.0864 28.1207 45.1326 28.0173Z" fill="#20ACF5"/>
<path d="M50.9666 28.366C51.0574 28.276 51.1296 28.1691 51.1792 28.0513C51.2306 27.9303 51.2567 27.8001 51.2558 27.6686C51.255 27.5088 51.2151 27.3515 51.1395 27.2107C51.0638 27.0698 50.9549 26.9497 50.822 26.8607C50.6633 26.7477 50.4726 26.6881 50.2778 26.6906C50.2129 26.6818 50.1471 26.6818 50.0822 26.6906C49.9407 26.7196 49.8075 26.7796 49.6919 26.8662C49.5764 26.9528 49.4815 27.064 49.414 27.1916C49.3466 27.3192 49.3082 27.4602 49.3017 27.6045C49.2951 27.7487 49.3206 27.8926 49.3763 28.0258C49.4259 28.1436 49.4982 28.2505 49.5889 28.3405C49.7247 28.4737 49.8959 28.5652 50.0822 28.6041C50.1473 28.6087 50.2126 28.6087 50.2778 28.6041C50.4712 28.6053 50.6606 28.549 50.822 28.4425C50.8721 28.4207 50.9204 28.3951 50.9666 28.366Z" fill="#20ACF5"/>
<path d="M63.1959 28.315C63.2395 28.2508 63.2766 28.1825 63.3065 28.1109C63.3684 27.9628 63.4002 27.8037 63.4 27.6432C63.4 27.3251 63.2737 27.0201 63.0488 26.7952C62.8239 26.5704 62.5189 26.444 62.2009 26.444C62.1189 26.4352 62.0362 26.4352 61.9543 26.444C61.7265 26.4926 61.5172 26.6046 61.3505 26.7672C61.2972 26.8225 61.2489 26.8822 61.2059 26.9458C61.1007 27.1001 61.0363 27.2786 61.0188 27.4646C61.01 27.5437 61.01 27.6236 61.0188 27.7027C61.0104 27.7847 61.0104 27.8673 61.0188 27.9493C61.0353 28.0258 61.061 28.1001 61.0953 28.1704C61.1218 28.2436 61.1591 28.3124 61.2059 28.3745C61.2445 28.4412 61.2933 28.5015 61.3505 28.5531C61.5164 28.7184 61.7257 28.8334 61.9543 28.8848C62.0364 28.8893 62.1188 28.8893 62.2009 28.8848C62.3587 28.8859 62.5151 28.8557 62.6611 28.7958C62.8071 28.736 62.9398 28.6477 63.0513 28.5361C63.1089 28.469 63.1575 28.3947 63.1959 28.315Z" fill="#20ACF5"/>
<path d="M26.9758 28.0343L27.0353 27.9238C27.0702 27.8433 27.0876 27.7563 27.0864 27.6686C27.0842 27.4979 27.0154 27.3348 26.8946 27.2141C26.7739 27.0933 26.6108 27.0245 26.44 27.0223C26.3948 27.0181 26.3492 27.0181 26.304 27.0223C26.1832 27.0542 26.0721 27.1156 25.9808 27.2009L25.8958 27.3115C25.8448 27.3793 25.8099 27.4578 25.7937 27.5411L25.7937 27.6686L25.7937 27.8047L25.7937 27.9238L25.8617 28.0343C25.8797 28.071 25.9059 28.103 25.9383 28.1279C26.0251 28.2192 26.1379 28.2816 26.2614 28.3065C26.3067 28.3106 26.3523 28.3106 26.3975 28.3065C26.4832 28.3059 26.5679 28.2884 26.6468 28.2548C26.7256 28.2212 26.797 28.1723 26.8567 28.1109L26.9758 28.0343Z" fill="#20ACF5"/>
<path d="M21.0142 27.8983C21.0489 27.8267 21.0663 27.7481 21.0652 27.6686C21.0652 27.513 21.0034 27.3638 20.8934 27.2537C20.7833 27.1437 20.6341 27.0818 20.4784 27.0818C20.3228 27.0818 20.1735 27.1437 20.0635 27.2537C19.9535 27.3638 19.8916 27.513 19.8916 27.6686C19.8779 27.7446 19.8779 27.8223 19.8916 27.8983C19.9242 27.9669 19.9672 28.03 20.0192 28.0854C20.0746 28.1419 20.1408 28.1869 20.2138 28.2176C20.2868 28.2482 20.3652 28.264 20.4444 28.264C20.5236 28.264 20.602 28.2482 20.675 28.2176C20.748 28.1869 20.8142 28.1419 20.8696 28.0854C20.931 28.0343 20.9803 27.9705 21.0142 27.8983Z" fill="#20ACF5"/>
<path d="M69.3871 28.1874C69.4561 28.0232 69.4908 27.8467 69.4892 27.6686C69.4624 27.334 69.3106 27.0217 69.064 26.794C68.8173 26.5663 68.4939 26.4399 68.1583 26.4399C67.8226 26.4399 67.4992 26.5663 67.2526 26.794C67.0059 27.0217 66.8541 27.334 66.8273 27.6686C66.8257 27.8467 66.8604 28.0232 66.9294 28.1874C66.9975 28.3464 67.0957 28.4908 67.2185 28.6126C67.3418 28.7363 67.4882 28.8344 67.6495 28.9014C67.8108 28.9683 67.9836 29.0028 68.1583 29.0028C68.3329 29.0028 68.5058 28.9683 68.667 28.9014C68.8283 28.8344 68.9747 28.7363 69.098 28.6126C69.2209 28.4908 69.319 28.3464 69.3871 28.1874Z" fill="#20ACF5"/>
<path d="M33.0649 27.9492C33.0998 27.8598 33.1171 27.7645 33.1159 27.6686C33.0966 27.4915 33.0126 27.3277 32.88 27.2088C32.7474 27.0898 32.5755 27.024 32.3973 27.024C32.2192 27.024 32.0473 27.0898 31.9146 27.2088C31.782 27.3277 31.698 27.4915 31.6787 27.6686C31.676 27.7655 31.6964 27.8617 31.7382 27.9492C31.773 28.0354 31.8251 28.1136 31.8913 28.1788C31.9571 28.2465 32.0358 28.3002 32.1227 28.337C32.2096 28.3737 32.303 28.3926 32.3973 28.3926C32.4917 28.3926 32.5851 28.3737 32.672 28.337C32.7589 28.3002 32.8376 28.2465 32.9033 28.1788C32.9695 28.1118 33.0241 28.0342 33.0649 27.9492Z" fill="#20ACF5"/>
<path d="M39.018 28.1194L39.0945 27.9833C39.1314 27.8824 39.1515 27.7761 39.1541 27.6686C39.1541 27.5641 39.1333 27.4605 39.0931 27.364C39.0528 27.2675 38.9938 27.1799 38.9194 27.1064C38.8451 27.0328 38.7569 26.9747 38.6599 26.9355C38.563 26.8962 38.4592 26.8766 38.3547 26.8777C38.3037 26.8735 38.2525 26.8735 38.2016 26.8777C38.0466 26.9094 37.9046 26.9864 37.7934 27.0988L37.6998 27.2179C37.6397 27.3014 37.599 27.3973 37.5808 27.4986C37.5725 27.5521 37.5725 27.6066 37.5808 27.6601C37.5719 27.7136 37.5719 27.7682 37.5808 27.8217L37.6233 27.9748C37.6422 28.0236 37.668 28.0694 37.6998 28.1109C37.7263 28.1514 37.7577 28.1886 37.7934 28.2214C37.9046 28.3339 38.0466 28.4108 38.2016 28.4425C38.2525 28.4467 38.3037 28.4467 38.3547 28.4425C38.5677 28.4374 38.7711 28.3524 38.9245 28.2044C38.9586 28.1795 38.99 28.151 39.018 28.1194Z" fill="#20ACF5"/>
<path d="M93.8458 28.451C93.9522 28.2039 94.0072 27.9377 94.0073 27.6686C94.0073 27.1363 93.7959 26.6258 93.4195 26.2494C93.0431 25.8731 92.5326 25.6616 92.0003 25.6616C91.468 25.6616 90.9575 25.8731 90.5811 26.2494C90.2047 26.6258 89.9933 27.1363 89.9933 27.6686C89.9905 27.9371 90.0426 28.2034 90.1463 28.451C90.2496 28.689 90.3967 28.9054 90.5801 29.0889C90.9576 29.4638 91.4682 29.6743 92.0003 29.6743C92.5324 29.6743 93.043 29.4638 93.4205 29.0889C93.6013 28.905 93.7456 28.6886 93.8458 28.451Z" fill="#20ACF5"/>
<path d="M81.5824 28.315C81.6687 28.1135 81.7121 27.8963 81.71 27.6771C81.71 27.2441 81.5379 26.8288 81.2317 26.5226C80.9255 26.2163 80.5102 26.0443 80.0771 26.0443C79.6441 26.0443 79.2288 26.2163 78.9225 26.5226C78.6163 26.8288 78.4443 27.2441 78.4443 27.6771C78.4422 27.8963 78.4856 28.1135 78.5719 28.315C78.655 28.508 78.7733 28.6838 78.9205 28.8337C79.228 29.1391 79.6438 29.3105 80.0771 29.3105C80.5105 29.3105 80.9262 29.1391 81.2337 28.8337C81.381 28.6838 81.4992 28.508 81.5824 28.315Z" fill="#20ACF5"/>
<path d="M90.9202 30.6537C90.9185 30.2772 90.8053 29.9098 90.595 29.5976C90.3847 29.2855 90.0866 29.0426 89.7383 28.8998C89.3901 28.7569 89.0073 28.7204 88.6384 28.7948C88.2694 28.8693 87.9308 29.0514 87.6652 29.3181C87.3996 29.5849 87.219 29.9243 87.1462 30.2936C87.0734 30.6629 87.1116 31.0455 87.256 31.3931C87.4005 31.7407 87.6446 32.0377 87.9577 32.2467C88.2708 32.4556 88.6388 32.5671 89.0152 32.5671C89.2661 32.5671 89.5145 32.5176 89.7462 32.4213C89.9778 32.3251 90.1882 32.184 90.3652 32.0062C90.5422 31.8284 90.6824 31.6174 90.7776 31.3853C90.8728 31.1532 90.9213 30.9045 90.9202 30.6537Z" fill="#20ACF5"/>
<path d="M87.3229 28.9528C87.4848 28.7851 87.6145 28.5891 87.7056 28.3745C87.8024 28.1519 87.8517 27.9114 87.8502 27.6687C87.848 27.1889 87.6564 26.7295 87.3172 26.3903C86.9779 26.051 86.5185 25.8595 86.0388 25.8572C85.9157 25.8581 85.7931 25.8724 85.6731 25.8997C85.2649 25.9823 84.8978 26.2035 84.6343 26.526C84.3707 26.8484 84.2269 27.2522 84.2273 27.6687C84.2258 27.9114 84.2751 28.1519 84.3719 28.3745C84.463 28.5891 84.5927 28.7851 84.7546 28.9528C85.0064 29.2029 85.3255 29.3743 85.6731 29.4461C85.7946 29.4592 85.9172 29.4592 86.0388 29.4461C86.3965 29.4555 86.749 29.3578 87.0508 29.1654C87.145 29.0992 87.2359 29.0283 87.3229 28.9528Z" fill="#20ACF5"/>
<path d="M75.3402 16.5789C75.4502 16.4207 75.5255 16.241 75.5613 16.0516C75.5696 15.9526 75.5696 15.853 75.5613 15.754C75.5682 15.4507 75.4788 15.153 75.3062 14.9035C75.1712 14.7025 74.989 14.5377 74.7754 14.4235C74.5619 14.3094 74.3237 14.2493 74.0815 14.2487C73.9825 14.2404 73.8829 14.2404 73.7839 14.2487C73.5043 14.3089 73.2477 14.4476 73.044 14.6484C72.9774 14.7161 72.9176 14.7901 72.8654 14.8695C72.7533 15.0275 72.6751 15.2071 72.6358 15.3968C72.6271 15.4958 72.6271 15.5954 72.6358 15.6944C72.6274 15.7935 72.6274 15.893 72.6358 15.9921C72.6783 16.1808 72.7563 16.3597 72.8654 16.5194C72.9177 16.596 72.9776 16.6672 73.044 16.732C73.2448 16.9383 73.5023 17.0803 73.7839 17.1402C73.8829 17.1486 73.9825 17.1486 74.0815 17.1402C74.3212 17.1565 74.5612 17.1139 74.7807 17.016C75.0001 16.9182 75.1922 16.7681 75.3402 16.5789Z" fill="#20ACF5"/>
<path d="M81.6759 16.0771C81.6889 15.9698 81.6889 15.8613 81.6759 15.754C81.6759 15.3209 81.5039 14.9056 81.1977 14.5994C80.8915 14.2932 80.4762 14.1211 80.0431 14.1211C79.61 14.1211 79.1947 14.2932 78.8885 14.5994C78.5823 14.9056 78.4103 15.3209 78.4103 15.754C78.3973 15.8613 78.3973 15.9698 78.4103 16.0771C78.4865 16.4448 78.6871 16.775 78.9784 17.012C79.2696 17.249 79.6336 17.3784 80.0091 17.3784C80.3846 17.3784 80.7486 17.249 81.0398 17.012C81.331 16.775 81.5317 16.4448 81.6079 16.0771L81.6759 16.0771Z" fill="#20ACF5"/>
<path d="M69.4636 16.0176C69.4719 15.9299 69.4719 15.8417 69.4636 15.754C69.4783 15.5703 69.4548 15.3855 69.3945 15.2113C69.3343 15.0371 69.2387 14.8772 69.1137 14.7418C68.9886 14.6064 68.8369 14.4983 68.6681 14.4244C68.4993 14.3505 68.3169 14.3123 68.1326 14.3123C67.9483 14.3123 67.766 14.3505 67.5972 14.4244C67.4283 14.4983 67.2766 14.6064 67.1516 14.7418C67.0266 14.8772 66.9309 15.0371 66.8707 15.2113C66.8105 15.3855 66.787 15.5703 66.8017 15.754C66.7933 15.8417 66.7933 15.9299 66.8017 16.0176C66.8658 16.3162 67.0304 16.5838 67.2679 16.7758C67.5055 16.9677 67.8017 17.0724 68.1071 17.0724C68.4125 17.0724 68.7087 16.9677 68.9463 16.7758C69.1838 16.5838 69.3484 16.3162 69.4125 16.0176L69.4636 16.0176Z" fill="#20ACF5"/>
<path d="M78.6229 12.7689C78.6229 12.4608 78.5314 12.1595 78.36 11.9034C78.1886 11.6473 77.945 11.4478 77.6601 11.3303C77.3753 11.2128 77.0619 11.1824 76.7598 11.2432C76.4577 11.3039 76.1804 11.453 75.9631 11.6715C75.7458 11.89 75.5982 12.1681 75.5391 12.4706C75.48 12.773 75.5121 13.0862 75.6312 13.3704C75.7503 13.6546 75.9511 13.8971 76.2081 14.0671C76.4652 14.2371 76.7669 14.3269 77.0751 14.3252C77.2794 14.3264 77.4818 14.2868 77.6707 14.2089C77.8596 14.131 78.031 14.0163 78.1751 13.8714C78.3191 13.7266 78.4329 13.5545 78.5098 13.3652C78.5867 13.1759 78.6251 12.9732 78.6229 12.7689Z" fill="#20ACF5"/>
<path d="M75.3402 22.532C75.5066 22.2906 75.5957 22.0044 75.5957 21.7113C75.5957 21.4182 75.5066 21.1319 75.3402 20.8906C75.2063 20.6885 75.0243 20.5229 74.8105 20.4086C74.5968 20.2943 74.3579 20.2349 74.1155 20.2358C74.0167 20.2232 73.9167 20.2232 73.8179 20.2358C73.5369 20.2923 73.2793 20.4315 73.078 20.6355C73.0094 20.7014 72.9494 20.7757 72.8994 20.8566C72.7873 21.0146 72.7091 21.1941 72.6698 21.3839C72.661 21.4801 72.661 21.5768 72.6698 21.673C72.6611 21.7721 72.6611 21.8716 72.6698 21.9707C72.7091 22.1604 72.7873 22.3399 72.8994 22.4979C72.9494 22.5789 73.0094 22.6532 73.078 22.7191C73.2793 22.9231 73.5369 23.0623 73.8179 23.1188C73.9167 23.1313 74.0167 23.1313 74.1155 23.1188C74.3519 23.1272 74.5868 23.0783 74.8001 22.9761C75.0134 22.8739 75.1987 22.7215 75.3402 22.532Z" fill="#20ACF5"/>
<path d="M15.0441 21.707C15.0468 21.6237 15.0297 21.541 14.9942 21.4656C14.9587 21.3902 14.9059 21.3243 14.84 21.2733C14.7528 21.2123 14.6488 21.1797 14.5424 21.1798C14.5085 21.1757 14.4742 21.1757 14.4403 21.1798C14.3234 21.2059 14.2189 21.2712 14.144 21.3647C14.0691 21.4582 14.0283 21.5745 14.0283 21.6943C14.0283 21.8141 14.0691 21.9303 14.144 22.0238C14.2189 22.1174 14.3234 22.1826 14.4403 22.2088C14.4742 22.2129 14.5085 22.2129 14.5424 22.2088C14.6488 22.2089 14.7528 22.1762 14.84 22.1152C14.902 22.0664 14.9524 22.0045 14.9877 21.9339C15.023 21.8634 15.0423 21.7859 15.0441 21.707Z" fill="#20ACF5"/>
<path d="M21.0652 21.707C21.0652 21.5514 21.0034 21.4021 20.8933 21.2921C20.7833 21.182 20.634 21.1202 20.4784 21.1202C20.3228 21.1202 20.1735 21.182 20.0635 21.2921C19.9534 21.4021 19.8916 21.5514 19.8916 21.707C19.8916 21.8626 19.9534 22.0119 20.0635 22.122C20.1735 22.232 20.3228 22.2938 20.4784 22.2938C20.634 22.2938 20.7833 22.232 20.8933 22.122C21.0034 22.0119 21.0652 21.8626 21.0652 21.707Z" fill="#20ACF5"/>
<path d="M51.2558 21.707C51.2536 21.4483 51.1498 21.2009 50.9669 21.0179C50.784 20.835 50.5365 20.7313 50.2778 20.729C50.2129 20.7202 50.1471 20.7202 50.0822 20.729C49.8629 20.7755 49.6662 20.8959 49.5251 21.0701C49.384 21.2443 49.307 21.4616 49.307 21.6858C49.307 21.9099 49.384 22.1273 49.5251 22.3015C49.6662 22.4756 49.8629 22.596 50.0822 22.6425C50.1471 22.6514 50.2129 22.6514 50.2778 22.6425C50.538 22.6403 50.7867 22.5354 50.9699 22.3506C51.153 22.1658 51.2558 21.9162 51.2558 21.656L51.2558 21.707Z" fill="#20ACF5"/>
<path d="M63.1959 22.3619C63.3294 22.1648 63.4007 21.9323 63.4007 21.6943C63.4007 21.4563 63.3294 21.2237 63.1959 21.0267C63.0863 20.863 62.9384 20.7286 62.765 20.6352C62.5915 20.5418 62.3979 20.4923 62.2009 20.4909C62.1189 20.4821 62.0363 20.4821 61.9543 20.4909C61.7245 20.5391 61.5143 20.6545 61.3505 20.8226C61.2933 20.8742 61.2445 20.9345 61.2059 21.0012C61.068 21.1949 60.9937 21.4267 60.9933 21.6645C60.9845 21.7465 60.9845 21.8292 60.9933 21.9111C61.0253 22.0644 61.0891 22.2092 61.1804 22.3364C61.219 22.4031 61.2678 22.4633 61.325 22.5149C61.4888 22.683 61.699 22.7985 61.9288 22.8466C62.0107 22.8554 62.0934 22.8554 62.1754 22.8466C62.3721 22.8551 62.568 22.8154 62.7458 22.7309C62.9237 22.6465 63.0782 22.5198 63.1959 22.3619Z" fill="#20ACF5"/>
<path d="M57.3619 21.7071C57.3619 21.4914 57.2979 21.2806 57.1779 21.1014C57.0579 20.9222 56.8874 20.7827 56.688 20.7006C56.4886 20.6184 56.2693 20.5974 56.0579 20.6401C55.8465 20.6828 55.6525 20.7873 55.5006 20.9404C55.3487 21.0935 55.2457 21.2882 55.2047 21.5C55.1637 21.7117 55.1864 21.9308 55.2701 22.1296C55.3538 22.3283 55.4947 22.4977 55.6748 22.6163C55.8549 22.7349 56.0662 22.7973 56.2819 22.7956C56.4244 22.7956 56.5656 22.7674 56.6972 22.7126C56.8288 22.6578 56.9482 22.5775 57.0486 22.4763C57.149 22.3751 57.2284 22.255 57.2822 22.123C57.336 21.991 57.3631 21.8496 57.3619 21.7071Z" fill="#20ACF5"/>
<path d="M39.018 22.1578C39.1068 22.0258 39.1543 21.8703 39.1543 21.7113C39.1543 21.5522 39.1068 21.3967 39.018 21.2648C38.9449 21.1564 38.846 21.0677 38.7302 21.0069C38.6145 20.946 38.4854 20.9149 38.3547 20.9161C38.304 20.9077 38.2523 20.9077 38.2016 20.9161C38.0474 20.9449 37.9054 21.0189 37.7934 21.1287L37.6998 21.2478C37.6379 21.3335 37.5972 21.4325 37.5808 21.5369C37.5724 21.5876 37.5724 21.6393 37.5808 21.69C37.5719 21.7435 37.5719 21.7981 37.5808 21.8516C37.5972 21.956 37.6379 22.0551 37.6998 22.1407L37.8019 22.2768C37.9139 22.3866 38.0559 22.4606 38.2101 22.4894C38.2608 22.4978 38.3125 22.4978 38.3632 22.4894C38.491 22.4912 38.6173 22.4619 38.7314 22.4042C38.8454 22.3464 38.9438 22.2618 39.018 22.1578Z" fill="#20ACF5"/>
<path d="M33.1159 21.7071C33.1159 21.5637 33.0733 21.4236 32.9935 21.3046C32.9137 21.1855 32.8003 21.0929 32.6677 21.0384C32.5351 20.984 32.3893 20.9702 32.2489 20.9988C32.1084 21.0274 31.9796 21.0971 31.8789 21.199C31.7781 21.301 31.71 21.4306 31.683 21.5713C31.6561 21.7121 31.6716 21.8577 31.7277 21.9896C31.7837 22.1216 31.8777 22.2339 31.9976 22.3123C32.1176 22.3907 32.2582 22.4316 32.4015 22.4299C32.5918 22.4277 32.7735 22.3506 32.9072 22.2152C33.0409 22.0799 33.1159 21.8973 33.1159 21.7071Z" fill="#20ACF5"/>
<path d="M45.2006 21.7071C45.2006 21.5389 45.1508 21.3744 45.0573 21.2346C44.9639 21.0947 44.831 20.9857 44.6756 20.9214C44.5202 20.857 44.3493 20.8401 44.1843 20.873C44.0193 20.9058 43.8678 20.9868 43.7488 21.1057C43.6299 21.2246 43.5489 21.3762 43.5161 21.5411C43.4833 21.7061 43.5001 21.8771 43.5645 22.0325C43.6289 22.1879 43.7379 22.3207 43.8777 22.4142C44.0176 22.5076 44.182 22.5575 44.3502 22.5575C44.5757 22.5575 44.7921 22.4679 44.9515 22.3084C45.111 22.1489 45.2006 21.9326 45.2006 21.7071Z" fill="#20ACF5"/>
<path d="M26.9757 22.0727C27.0476 21.9643 27.0861 21.8371 27.0863 21.707C27.0841 21.5363 27.0153 21.3732 26.8945 21.2524C26.7738 21.1317 26.6107 21.0629 26.44 21.0607C26.3947 21.0565 26.3491 21.0565 26.3039 21.0607C26.1803 21.0855 26.0675 21.1479 25.9807 21.2393C25.9483 21.2641 25.9221 21.2961 25.9042 21.3328C25.8532 21.4007 25.8184 21.4792 25.8021 21.5624L25.8021 21.69L25.8021 21.8261C25.8184 21.9093 25.8532 21.9878 25.9042 22.0557C25.9221 22.0924 25.9483 22.1244 25.9807 22.1492C26.0675 22.2406 26.1803 22.303 26.3039 22.3278C26.3491 22.332 26.3947 22.332 26.44 22.3278C26.5429 22.3298 26.645 22.3078 26.738 22.2635C26.831 22.2192 26.9124 22.1539 26.9757 22.0727Z" fill="#20ACF5"/>
<path d="M84.7801 18.7305C84.7801 18.3941 84.6803 18.0653 84.4934 17.7856C84.3065 17.5059 84.0409 17.2878 83.7301 17.1591C83.4193 17.0304 83.0773 16.9967 82.7474 17.0623C82.4174 17.128 82.1143 17.2899 81.8765 17.5278C81.6386 17.7657 81.4766 18.0688 81.411 18.3987C81.3453 18.7286 81.379 19.0706 81.5078 19.3814C81.6365 19.6922 81.8545 19.9579 82.1342 20.1447C82.4139 20.3316 82.7428 20.4314 83.0792 20.4314C83.5303 20.4314 83.9629 20.2522 84.2819 19.9332C84.6009 19.6142 84.7801 19.1816 84.7801 18.7305Z" fill="#20ACF5"/>
<path d="M78.6229 18.7305C78.6229 18.4224 78.5314 18.1211 78.36 17.865C78.1886 17.6089 77.945 17.4094 77.6601 17.2919C77.3753 17.1744 77.0619 17.144 76.7598 17.2048C76.4577 17.2655 76.1804 17.4146 75.9631 17.6331C75.7458 17.8516 75.5982 18.1297 75.5391 18.4322C75.48 18.7346 75.5121 19.0478 75.6312 19.332C75.7503 19.6163 75.9511 19.8587 76.2081 20.0287C76.4652 20.1987 76.7669 20.2885 77.0751 20.2868C77.2794 20.288 77.4818 20.2484 77.6707 20.1705C77.8596 20.0926 78.031 19.9779 78.1751 19.833C78.3191 19.6882 78.4329 19.5161 78.5098 19.3268C78.5867 19.1375 78.6251 18.9348 78.6229 18.7305Z" fill="#20ACF5"/>
<path d="M72.5422 18.7305C72.5422 18.453 72.4599 18.1817 72.3057 17.9509C72.1515 17.7202 71.9323 17.5403 71.6759 17.4341C71.4195 17.3279 71.1374 17.3001 70.8652 17.3542C70.593 17.4084 70.343 17.542 70.1467 17.7383C69.9505 17.9345 69.8168 18.1845 69.7627 18.4567C69.7085 18.7289 69.7363 19.0111 69.8425 19.2675C69.9487 19.5239 70.1286 19.7431 70.3594 19.8972C70.5901 20.0514 70.8614 20.1337 71.1389 20.1337C71.5111 20.1337 71.868 19.9859 72.1312 19.7227C72.3943 19.4596 72.5422 19.1027 72.5422 18.7305Z" fill="#20ACF5"/>
<path d="M78.6229 42.5683C78.6229 42.2601 78.5314 41.9589 78.36 41.7028C78.1886 41.4467 77.945 41.2472 77.6601 41.1297C77.3753 41.0121 77.0619 40.9818 76.7598 41.0426C76.4577 41.1033 76.1804 41.2524 75.9631 41.4709C75.7458 41.6894 75.5982 41.9675 75.5391 42.2699C75.48 42.5724 75.5121 42.8856 75.6312 43.1698C75.7503 43.454 75.9511 43.6965 76.2081 43.8665C76.4652 44.0365 76.7669 44.1263 77.0751 44.1246C77.2794 44.1258 77.4818 44.0862 77.6707 44.0083C77.8596 43.9304 78.031 43.8157 78.1751 43.6708C78.3191 43.5259 78.4329 43.3539 78.5098 43.1646C78.5867 42.9753 78.6251 42.7726 78.6229 42.5683Z" fill="#20ACF5"/>
<path d="M72.5422 42.5683C72.5422 42.2908 72.4599 42.0195 72.3057 41.7887C72.1515 41.558 71.9323 41.3781 71.6759 41.2719C71.4195 41.1657 71.1374 41.1379 70.8652 41.1921C70.593 41.2462 70.343 41.3799 70.1467 41.5761C69.9505 41.7723 69.8168 42.0224 69.7627 42.2946C69.7085 42.5668 69.7363 42.8489 69.8425 43.1053C69.9487 43.3617 70.1286 43.5809 70.3594 43.7351C70.5901 43.8893 70.8614 43.9716 71.1389 43.9716C71.5111 43.9716 71.868 43.8237 72.1312 43.5606C72.3943 43.2974 72.5422 42.9405 72.5422 42.5683Z" fill="#20ACF5"/>
<path d="M66.4446 42.5683C66.4446 42.3177 66.3703 42.0727 66.231 41.8643C66.0918 41.6559 65.8939 41.4935 65.6623 41.3976C65.4308 41.3017 65.176 41.2766 64.9302 41.3255C64.6844 41.3744 64.4586 41.4951 64.2814 41.6723C64.1042 41.8495 63.9835 42.0753 63.9346 42.3211C63.8857 42.5669 63.9108 42.8217 64.0067 43.0532C64.1026 43.2848 64.2651 43.4827 64.4734 43.6219C64.6818 43.7611 64.9268 43.8354 65.1774 43.8354C65.5135 43.8354 65.8358 43.7019 66.0734 43.4643C66.3111 43.2267 66.4446 42.9044 66.4446 42.5683Z" fill="#20ACF5"/>
<path d="M75.3402 46.3783C75.5103 46.1276 75.5994 45.8308 75.5954 45.5278C75.6022 45.2245 75.5129 44.9268 75.3402 44.6774C75.2053 44.4764 75.023 44.3116 74.8095 44.1974C74.596 44.0832 74.3577 44.0232 74.1156 44.0226C74.0168 44.01 73.9168 44.01 73.8179 44.0226C73.5308 44.0931 73.2725 44.2505 73.0781 44.4733C73.0095 44.5392 72.9495 44.6135 72.8995 44.6944C72.7829 44.8625 72.7046 45.0541 72.6699 45.2557C72.6612 45.3547 72.6612 45.4543 72.6699 45.5534C72.6615 45.6524 72.6615 45.752 72.6699 45.851C72.7124 46.0397 72.7903 46.2186 72.8995 46.3783C72.9518 46.4549 73.0116 46.5261 73.0781 46.5909C73.277 46.798 73.5357 46.9377 73.8179 46.9906C73.9168 47.0031 74.0168 47.0031 74.1156 46.9906C74.3541 46.9954 74.5901 46.9422 74.8035 46.8356C75.0168 46.7289 75.201 46.572 75.3402 46.3783Z" fill="#20ACF5"/>
<path d="M63.1959 46.2252C63.3281 46.026 63.399 45.7924 63.4 45.5533C63.4016 45.3139 63.3304 45.0796 63.1959 44.8815C63.0863 44.7178 62.9384 44.5834 62.765 44.49C62.5915 44.3966 62.3979 44.3471 62.2009 44.3457C62.1189 44.3369 62.0363 44.3369 61.9543 44.3457C61.7258 44.3971 61.5164 44.5121 61.3505 44.6774C61.2933 44.729 61.2445 44.7893 61.2059 44.856C61.1089 44.9957 61.0449 45.1556 61.0188 45.3237C61.01 45.4057 61.01 45.4884 61.0188 45.5704C61.0104 45.6495 61.0104 45.7293 61.0188 45.8085C61.0507 45.9644 61.1144 46.112 61.2059 46.2422C61.2469 46.3047 61.2954 46.3618 61.3505 46.4123C61.5143 46.5803 61.7245 46.6958 61.9543 46.744C62.0363 46.7527 62.1189 46.7527 62.2009 46.744C62.3961 46.743 62.5882 46.6955 62.7613 46.6052C62.9344 46.515 63.0834 46.3847 63.1959 46.2252Z" fill="#20ACF5"/>
<path d="M69.4892 45.5534C69.4909 45.2886 69.4138 45.0293 69.2677 44.8084C69.1217 44.5875 68.9132 44.4151 68.6689 44.313C68.4246 44.2108 68.1554 44.1837 67.8956 44.2349C67.6358 44.2862 67.3972 44.4135 67.2099 44.6008C67.0227 44.788 66.8953 45.0267 66.8441 45.2865C66.7928 45.5463 66.82 45.8154 66.9221 46.0597C67.0242 46.3041 67.1967 46.5125 67.4175 46.6586C67.6384 46.8046 67.8977 46.8817 68.1625 46.88C68.5144 46.88 68.8518 46.7403 69.1006 46.4915C69.3494 46.2427 69.4892 45.9052 69.4892 45.5534Z" fill="#20ACF5"/>
<path d="M75.3401 34.4551C75.5061 34.212 75.5949 33.9245 75.5949 33.6302C75.5949 33.3358 75.5061 33.0483 75.3401 32.8052C75.2047 32.6053 75.0222 32.4417 74.8086 32.329C74.595 32.2163 74.357 32.1579 74.1155 32.1589C74.0165 32.1505 73.9169 32.1505 73.8178 32.1589C73.5383 32.2191 73.2816 32.3578 73.078 32.5586C73.0114 32.6263 72.9515 32.7004 72.8994 32.7797C72.7872 32.9471 72.7092 33.1349 72.6698 33.3325C72.6358 33.5295 72.6358 33.7308 72.6698 33.9278C72.736 34.2095 72.877 34.468 73.078 34.6762C73.2816 34.877 73.5383 35.0157 73.8178 35.0759C73.9169 35.0843 74.0165 35.0843 74.1155 35.0759C74.3547 35.0798 74.5913 35.0253 74.8047 34.9171C75.0181 34.8089 75.2019 34.6503 75.3401 34.4551Z" fill="#20ACF5"/>
<path d="M87.8501 33.6302C87.8479 33.1505 87.6563 32.691 87.3171 32.3518C86.9779 32.0126 86.5184 31.821 86.0387 31.8188C85.9156 31.8197 85.793 31.8339 85.673 31.8613C85.2657 31.9464 84.9001 32.1691 84.6376 32.492C84.3752 32.8149 84.2319 33.2184 84.2319 33.6345C84.2319 34.0506 84.3752 34.454 84.6376 34.7769C84.9001 35.0998 85.2657 35.3225 85.673 35.4076C85.7947 35.4164 85.9169 35.4164 86.0387 35.4076C86.3973 35.4146 86.7498 35.3138 87.0507 35.1185C87.2943 34.9535 87.4943 34.7319 87.6336 34.4727C87.7728 34.2135 87.8471 33.9244 87.8501 33.6302Z" fill="#20ACF5"/>
<path d="M63.196 34.2681C63.318 34.0876 63.3886 33.8773 63.4002 33.6597C63.4117 33.4421 63.3637 33.2255 63.2614 33.0332C63.1591 32.8408 63.0064 32.6799 62.8195 32.5679C62.6327 32.4558 62.4188 32.3968 62.2009 32.3971C62.119 32.3883 62.0363 32.3883 61.9543 32.3971C61.7252 32.4419 61.5149 32.5545 61.3505 32.7203C61.2973 32.7755 61.2489 32.8353 61.2059 32.8988C61.1007 33.0532 61.0364 33.2317 61.0188 33.4176C60.9848 33.5745 60.9848 33.7369 61.0188 33.8939C61.0492 34.0502 61.113 34.1982 61.2059 34.3276C61.2489 34.3912 61.2973 34.4509 61.3505 34.5062C61.5149 34.672 61.7252 34.7845 61.9543 34.8293C62.0363 34.8381 62.119 34.8381 62.2009 34.8293C62.4004 34.8259 62.5958 34.7728 62.7696 34.6748C62.9433 34.5768 63.0899 34.437 63.196 34.2681Z" fill="#20ACF5"/>
<path d="M81.7099 33.6302C81.7099 33.3072 81.6141 32.9915 81.4347 32.723C81.2553 32.4545 81.0003 32.2452 80.7019 32.1216C80.4036 31.998 80.0752 31.9657 79.7585 32.0287C79.4418 32.0917 79.1508 32.2472 78.9225 32.4756C78.6941 32.7039 78.5386 32.9949 78.4756 33.3116C78.4126 33.6283 78.4449 33.9567 78.5685 34.255C78.6921 34.5534 78.9014 34.8084 79.1699 34.9878C79.4384 35.1672 79.7541 35.263 80.0771 35.263C80.5101 35.263 80.9254 35.091 81.2317 34.7848C81.5379 34.4785 81.7099 34.0632 81.7099 33.6302Z" fill="#20ACF5"/>
<path d="M45.2006 33.6302C45.2006 33.462 45.1508 33.2976 45.0573 33.1577C44.9639 33.0179 44.831 32.9089 44.6756 32.8445C44.5202 32.7801 44.3493 32.7633 44.1843 32.7961C44.0193 32.8289 43.8678 32.9099 43.7488 33.0289C43.6299 33.1478 43.5489 33.2993 43.5161 33.4643C43.4833 33.6293 43.5001 33.8003 43.5645 33.9557C43.6289 34.1111 43.7379 34.2439 43.8777 34.3373C44.0176 34.4308 44.182 34.4807 44.3502 34.4807C44.5757 34.4807 44.7921 34.3911 44.9515 34.2316C45.111 34.0721 45.2006 33.8558 45.2006 33.6302Z" fill="#20ACF5"/>
<path d="M33.1159 33.6302C33.0966 33.4531 33.0126 33.2894 32.88 33.1704C32.7474 33.0514 32.5755 32.9857 32.3973 32.9857C32.2192 32.9857 32.0473 33.0514 31.9146 33.1704C31.782 33.2894 31.698 33.4531 31.6787 33.6302C31.6677 33.7312 31.6781 33.8333 31.7092 33.9299C31.7403 34.0266 31.7914 34.1156 31.8592 34.1912C31.927 34.2668 32.0099 34.3272 32.1027 34.3686C32.1954 34.41 32.2958 34.4314 32.3973 34.4314C32.4988 34.4314 32.5992 34.41 32.692 34.3686C32.7847 34.3272 32.8676 34.2668 32.9354 34.1912C33.0032 34.1156 33.0543 34.0266 33.0854 33.9299C33.1165 33.8333 33.1269 33.7312 33.1159 33.6302Z" fill="#20ACF5"/>
<path d="M39.018 34.0724C39.0979 33.9522 39.1437 33.8126 39.1506 33.6684C39.1574 33.5242 39.1252 33.3808 39.0571 33.2535C38.9891 33.1262 38.8879 33.0197 38.7642 32.9452C38.6405 32.8708 38.499 32.8313 38.3547 32.8308C38.3037 32.8266 38.2525 32.8266 38.2016 32.8308C38.0466 32.8625 37.9046 32.9395 37.7934 33.0519L37.6998 33.171C37.6397 33.2545 37.599 33.3504 37.5808 33.4516C37.5725 33.5052 37.5725 33.5597 37.5808 33.6132C37.5719 33.6667 37.5719 33.7213 37.5808 33.7748C37.599 33.8761 37.6397 33.9719 37.6998 34.0554L37.7934 34.1745C37.9046 34.287 38.0466 34.3639 38.2016 34.3956C38.2525 34.3998 38.3037 34.3998 38.3547 34.3956C38.4831 34.399 38.6104 34.3714 38.7258 34.3151C38.8413 34.2589 38.9415 34.1756 39.018 34.0724Z" fill="#20ACF5"/>
<path d="M51.2558 33.6302C51.2573 33.4699 51.2183 33.3119 51.1425 33.1706C51.0667 33.0294 50.9565 32.9096 50.8221 32.8223C50.6633 32.7093 50.4726 32.6497 50.2778 32.6522C50.2126 32.6476 50.1473 32.6476 50.0822 32.6522C49.8583 32.6945 49.6561 32.8137 49.5107 32.9892C49.3653 33.1646 49.2858 33.3853 49.2858 33.6132C49.2858 33.8411 49.3653 34.0618 49.5107 34.2373C49.6561 34.4127 49.8583 34.5319 50.0822 34.5742C50.1473 34.5788 50.2126 34.5788 50.2778 34.5742C50.4726 34.5767 50.6633 34.5171 50.8221 34.4041C50.9517 34.32 51.0589 34.2056 51.1345 34.0707C51.2101 33.9359 51.2517 33.7847 51.2558 33.6302Z" fill="#20ACF5"/>
<path d="M15.0441 33.6302C15.0468 33.5469 15.0297 33.4642 14.9942 33.3888C14.9587 33.3134 14.9059 33.2475 14.84 33.1965C14.7527 33.1355 14.6488 33.1028 14.5423 33.1029C14.5084 33.0988 14.4742 33.0988 14.4403 33.1029C14.3188 33.125 14.2089 33.1891 14.1298 33.2839C14.0507 33.3787 14.0073 33.4982 14.0073 33.6217C14.0073 33.7452 14.0507 33.8648 14.1298 33.9596C14.2089 34.0544 14.3188 34.1184 14.4403 34.1405C14.4742 34.1447 14.5084 34.1447 14.5423 34.1405C14.6474 34.1397 14.7503 34.1103 14.84 34.0554C14.9028 34.0036 14.9536 33.9387 14.9889 33.8653C15.0241 33.7919 15.043 33.7117 15.0441 33.6302Z" fill="#20ACF5"/>
<path d="M57.3619 33.6302C57.3619 33.4146 57.2979 33.2038 57.1779 33.0246C57.0579 32.8454 56.8874 32.7059 56.688 32.6237C56.4886 32.5416 56.2693 32.5205 56.0579 32.5632C55.8465 32.6059 55.6525 32.7105 55.5006 32.8635C55.3487 33.0166 55.2457 33.2114 55.2047 33.4231C55.1637 33.6348 55.1864 33.854 55.2701 34.0527C55.3538 34.2515 55.4947 34.4209 55.6748 34.5395C55.8549 34.6581 56.0662 34.7205 56.2819 34.7188C56.4244 34.7188 56.5656 34.6906 56.6972 34.6358C56.8288 34.5809 56.9482 34.5006 57.0486 34.3994C57.149 34.2982 57.2284 34.1782 57.2822 34.0461C57.336 33.9141 57.3631 33.7728 57.3619 33.6302Z" fill="#20ACF5"/>
<path d="M21.0652 33.6302C21.0652 33.5141 21.0308 33.4007 20.9663 33.3042C20.9018 33.2077 20.8102 33.1325 20.703 33.088C20.5957 33.0436 20.4778 33.032 20.3639 33.0546C20.2501 33.0773 20.1455 33.1332 20.0635 33.2152C19.9814 33.2973 19.9255 33.4019 19.9029 33.5157C19.8802 33.6295 19.8919 33.7475 19.9363 33.8547C19.9807 33.962 20.0559 34.0536 20.1524 34.1181C20.2489 34.1826 20.3623 34.217 20.4784 34.217C20.634 34.217 20.7833 34.1552 20.8933 34.0451C21.0034 33.9351 21.0652 33.7858 21.0652 33.6302Z" fill="#20ACF5"/>
<path d="M26.9757 33.9959C27.0476 33.8875 27.0861 33.7603 27.0863 33.6302C27.0851 33.5002 27.0468 33.3733 26.9757 33.2645C26.9156 33.1781 26.8355 33.1075 26.7422 33.0586C26.6489 33.0098 26.5452 32.9841 26.44 32.9839C26.3947 32.9796 26.3491 32.9796 26.3039 32.9839C26.1816 33.012 26.0696 33.0739 25.9807 33.1625C25.9503 33.1893 25.9245 33.2209 25.9042 33.256C25.8546 33.3278 25.8199 33.4088 25.8021 33.4941L25.8021 33.6217L25.8021 33.7493C25.8182 33.8352 25.8531 33.9165 25.9042 33.9874C25.9221 34.0241 25.9483 34.0561 25.9807 34.0809C26.0696 34.1695 26.1816 34.2313 26.3039 34.2595C26.3491 34.2638 26.3947 34.2638 26.44 34.2595C26.5438 34.2612 26.6465 34.2382 26.7396 34.1923C26.8328 34.1465 26.9137 34.0792 26.9757 33.9959Z" fill="#20ACF5"/>
<path d="M81.5824 40.2211C81.6677 40.0193 81.7111 39.8023 81.7099 39.5833C81.7099 39.1502 81.5379 38.7349 81.2317 38.4287C80.9255 38.1225 80.5101 37.9504 80.0771 37.9504C79.644 37.9504 79.2287 38.1225 78.9225 38.4287C78.6163 38.7349 78.4442 39.1502 78.4442 39.5833C78.4431 39.8023 78.4865 40.0193 78.5718 40.2211C78.6568 40.4131 78.7748 40.5887 78.9205 40.7399C79.228 41.0452 79.6437 41.2166 80.0771 41.2166C80.5104 41.2166 80.9262 41.0452 81.2337 40.7399C81.3794 40.5887 81.4974 40.4131 81.5824 40.2211Z" fill="#20ACF5"/>
<path d="M75.3402 40.4167C75.3939 40.3363 75.4394 40.2509 75.4763 40.1616C75.5549 39.9819 75.5954 39.7879 75.5954 39.5918C75.6011 39.2886 75.5118 38.9913 75.3402 38.7413C75.2053 38.5403 75.023 38.3755 74.8095 38.2613C74.596 38.1472 74.3577 38.0871 74.1156 38.0865C74.0166 38.0782 73.917 38.0782 73.8179 38.0865C73.5384 38.1467 73.2817 38.2854 73.0781 38.4862C73.0115 38.5539 72.9516 38.628 72.8995 38.7073C72.7794 38.883 72.7009 39.0836 72.6699 39.2941C72.6612 39.3931 72.6612 39.4927 72.6699 39.5918C72.6615 39.6908 72.6615 39.7904 72.6699 39.8894C72.6921 39.983 72.7234 40.0741 72.7634 40.1616C72.7968 40.2525 72.8426 40.3383 72.8995 40.4167C72.9496 40.495 73.0096 40.5664 73.0781 40.6293C73.2789 40.8356 73.5363 40.9777 73.8179 41.0375C73.917 41.0459 74.0166 41.0459 74.1156 41.0375C74.3101 41.0389 74.5029 41.0012 74.6826 40.9267C74.8622 40.8522 75.0251 40.7424 75.1616 40.6038C75.2284 40.5488 75.2884 40.486 75.3402 40.4167Z" fill="#20ACF5"/>
<path d="M69.3872 40.1106C69.4734 39.9075 69.5081 39.6863 69.4879 39.4666C69.4678 39.2469 69.3935 39.0357 69.2718 38.8517C69.1501 38.6677 68.9847 38.5168 68.7904 38.4124C68.5961 38.3079 68.3789 38.2533 68.1583 38.2533C67.9377 38.2533 67.7206 38.3079 67.5262 38.4124C67.3319 38.5168 67.1665 38.6677 67.0448 38.8517C66.9231 39.0357 66.8488 39.2469 66.8287 39.4666C66.8086 39.6863 66.8432 39.9075 66.9294 40.1106C66.9999 40.2658 67.0978 40.407 67.2186 40.5273C67.3418 40.651 67.4883 40.7491 67.6495 40.8161C67.8108 40.883 67.9837 40.9175 68.1583 40.9175C68.3329 40.9175 68.5058 40.883 68.6671 40.8161C68.8283 40.7491 68.9748 40.651 69.098 40.5273C69.2188 40.407 69.3168 40.2658 69.3872 40.1106Z" fill="#20ACF5"/>
<path d="M78.6229 36.6067C78.6229 36.2985 78.5314 35.9973 78.36 35.7412C78.1886 35.4851 77.945 35.2856 77.6601 35.1681C77.3753 35.0505 77.0619 35.0202 76.7598 35.081C76.4577 35.1417 76.1804 35.2908 75.9631 35.5093C75.7458 35.7278 75.5982 36.0059 75.5391 36.3083C75.48 36.6108 75.5121 36.924 75.6312 37.2082C75.7503 37.4924 75.9511 37.7349 76.2081 37.9049C76.4652 38.0748 76.7669 38.1647 77.0751 38.163C77.279 38.163 77.481 38.1227 77.6693 38.0444C77.8577 37.9661 78.0287 37.8513 78.1725 37.7067C78.3164 37.562 78.4302 37.3904 78.5075 37.2016C78.5848 37.0129 78.624 36.8107 78.6229 36.6067Z" fill="#20ACF5"/>
<path d="M72.5422 12.7689C72.5422 12.4914 72.4599 12.2201 72.3057 11.9893C72.1515 11.7586 71.9323 11.5787 71.6759 11.4725C71.4195 11.3663 71.1374 11.3385 70.8652 11.3927C70.593 11.4468 70.343 11.5805 70.1467 11.7767C69.9505 11.9729 69.8168 12.223 69.7627 12.4952C69.7085 12.7674 69.7363 13.0495 69.8425 13.3059C69.9487 13.5623 70.1286 13.7815 70.3594 13.9357C70.5901 14.0899 70.8614 14.1722 71.1389 14.1722C71.3235 14.1733 71.5065 14.1378 71.6773 14.0676C71.848 13.9975 72.0032 13.8942 72.1337 13.7637C72.2642 13.6332 72.3675 13.478 72.4377 13.3073C72.5078 13.1365 72.5433 12.9535 72.5422 12.7689Z" fill="#20ACF5"/>
<path d="M72.5422 36.6067C72.5422 36.3292 72.4599 36.0579 72.3057 35.8271C72.1515 35.5964 71.9323 35.4165 71.6759 35.3103C71.4195 35.2041 71.1374 35.1763 70.8652 35.2304C70.593 35.2846 70.343 35.4182 70.1467 35.6145C69.9505 35.8107 69.8168 36.0607 69.7627 36.3329C69.7085 36.6051 69.7363 36.8873 69.8425 37.1437C69.9487 37.4001 70.1286 37.6192 70.3594 37.7734C70.5901 37.9276 70.8614 38.0099 71.1389 38.0099C71.3235 38.0111 71.5065 37.9755 71.6773 37.9054C71.848 37.8353 72.0032 37.732 72.1337 37.6014C72.2642 37.4709 72.3675 37.3158 72.4377 37.145C72.5078 36.9743 72.5433 36.7913 72.5422 36.6067Z" fill="#20ACF5"/>
<path d="M84.7801 36.6067C84.7801 36.2703 84.6803 35.9415 84.4934 35.6618C84.3065 35.3821 84.0409 35.1641 83.7301 35.0353C83.4193 34.9066 83.0773 34.8729 82.7474 34.9385C82.4174 35.0042 82.1143 35.1662 81.8765 35.404C81.6386 35.6419 81.4766 35.945 81.411 36.2749C81.3453 36.6049 81.379 36.9468 81.5078 37.2576C81.6365 37.5684 81.8545 37.8341 82.1342 38.021C82.4139 38.2079 82.7428 38.3076 83.0792 38.3076C83.5303 38.3076 83.9629 38.1284 84.2819 37.8094C84.6009 37.4905 84.7801 37.0578 84.7801 36.6067Z" fill="#20ACF5"/>
<path d="M66.4446 12.769C66.4446 12.5184 66.3703 12.2734 66.231 12.065C66.0918 11.8566 65.8939 11.6942 65.6623 11.5983C65.4308 11.5024 65.176 11.4773 64.9302 11.5262C64.6844 11.5751 64.4586 11.6958 64.2814 11.873C64.1042 12.0502 63.9835 12.276 63.9346 12.5218C63.8857 12.7676 63.9108 13.0224 64.0067 13.2539C64.1026 13.4854 64.2651 13.6833 64.4734 13.8226C64.6818 13.9618 64.9268 14.0361 65.1774 14.0361C65.3438 14.0361 65.5086 14.0034 65.6623 13.9397C65.8161 13.876 65.9558 13.7827 66.0734 13.665C66.1911 13.5473 66.2845 13.4076 66.3481 13.2539C66.4118 13.1002 66.4446 12.9354 66.4446 12.769Z" fill="#20ACF5"/>
<path d="M75.3401 10.6173C75.5061 10.3742 75.5949 10.0867 75.5949 9.7924C75.5949 9.49805 75.5061 9.21055 75.3401 8.96747C75.2047 8.76751 75.0222 8.60395 74.8086 8.49123C74.595 8.37851 74.357 8.32009 74.1155 8.32114C74.0165 8.31274 73.9169 8.31274 73.8178 8.32114C73.5383 8.38138 73.2816 8.52003 73.078 8.72085C73.0114 8.78854 72.9515 8.8626 72.8994 8.94196C72.7873 9.09998 72.7091 9.27951 72.6698 9.46923C72.6358 9.66621 72.6358 9.86756 72.6698 10.0645C72.7123 10.2532 72.7902 10.4321 72.8994 10.5918C72.9495 10.6701 73.0095 10.7415 73.078 10.8044C73.2788 11.0107 73.5363 11.1528 73.8178 11.2126C73.9169 11.221 74.0165 11.221 74.1155 11.2126C74.3525 11.2194 74.5876 11.1688 74.8008 11.0652C75.0141 10.9615 75.1991 10.8079 75.3401 10.6173Z" fill="#20ACF5"/>
<path d="M69.4892 9.79237C69.4909 9.52758 69.4138 9.26827 69.2677 9.0474C69.1217 8.82653 68.9132 8.65408 68.6689 8.55197C68.4246 8.44986 68.1554 8.4227 67.8956 8.47395C67.6358 8.52519 67.3972 8.65253 67.2099 8.83977C67.0227 9.02701 66.8953 9.2657 66.8441 9.52549C66.7928 9.78528 66.82 10.0544 66.9221 10.2988C67.0242 10.5431 67.1967 10.7515 67.4175 10.8976C67.6384 11.0436 67.8977 11.1207 68.1625 11.1191C68.5137 11.1168 68.8498 10.9763 69.0982 10.728C69.3465 10.4797 69.487 10.1435 69.4892 9.79237Z" fill="#20ACF5"/>
<path d="M63.1959 10.4558C63.329 10.257 63.4001 10.0231 63.4001 9.78391C63.4001 9.54469 63.329 9.31085 63.1959 9.11206C63.0859 8.94943 62.9376 8.8163 62.7642 8.72436C62.5907 8.63243 62.3972 8.5845 62.2009 8.58479C62.1189 8.576 62.0362 8.576 61.9543 8.58479C61.7252 8.62959 61.5148 8.74218 61.3505 8.90796C61.2933 8.9596 61.2445 9.01986 61.2059 9.08655C61.1146 9.2137 61.0508 9.35854 61.0188 9.51177C61.0104 9.59377 61.0104 9.6764 61.0188 9.7584C61.01 9.83753 61.01 9.91739 61.0188 9.99652C61.0492 10.1529 61.113 10.3008 61.2059 10.4302C61.2489 10.4938 61.2972 10.5536 61.3505 10.6088C61.5148 10.7746 61.7252 10.8872 61.9543 10.932C62.0362 10.9408 62.1189 10.9408 62.2009 10.932C62.3924 10.936 62.5823 10.895 62.7551 10.8123C62.9279 10.7295 63.0789 10.6074 63.1959 10.4558Z" fill="#20ACF5"/>
</svg>
