<?xml version="1.0" encoding="utf-8"?>
<!-- Generator: Adobe Illustrator 26.0.3, SVG Export Plug-In . SVG Version: 6.00 Build 0)  -->
<svg version="1.1" id="Layer_1" xmlns="http://www.w3.org/2000/svg" xmlns:xlink="http://www.w3.org/1999/xlink" x="0px" y="0px"
	 viewBox="0 0 581.1 181.4" style="enable-background:new 0 0 581.1 181.4;" xml:space="preserve">
<style type="text/css">
	.st0{fill:#20ACF5;}
	.st1{fill:#FFFFFF;}
</style>
<g>
	<g>
		<path class="st0" d="M108.9,51.3H79.8l30.4,30.4c1.3-4.3,2-8.9,2-13.4C112.2,62.5,111.1,56.7,108.9,51.3z"/>
		<path class="st0" d="M84.5,26.2L63.9,46.8h43c-2.1-4-4.9-7.7-8.1-10.9C94.7,31.8,89.8,28.5,84.5,26.2z"/>
		<path class="st0" d="M49.4,25.7v29.1l30.4-30.4c-4.3-1.3-8.9-2-13.4-2C60.6,22.5,54.8,23.6,49.4,25.7z"/>
		<path class="st0" d="M34,35.9c-4.1,4.1-7.4,8.9-9.7,14.3l20.6,20.6v-43C40.8,30,37.2,32.7,34,35.9z"/>
		<path class="st0" d="M23.8,85.3h29.1L22.5,54.9c-1.3,4.3-2,8.9-2,13.4C20.5,74.1,21.6,79.9,23.8,85.3z"/>
		<path class="st0" d="M48.3,110.4l20.6-20.6h-43c2.1,4,4.9,7.7,8.1,10.9C38.1,104.8,42.9,108.1,48.3,110.4z"/>
		<path class="st0" d="M98.8,100.7c4.1-4.1,7.4-8.9,9.7-14.3L87.9,65.8v43C91.9,106.6,95.6,103.9,98.8,100.7z"/>
		<path class="st1" d="M73.4,51.3H59.3l-9.9,9.9v14.1l9.9,9.9h14.1l9.9-9.9V61.3L73.4,51.3z M69.4,68.3c-0.2,0.1-0.3,0.2-0.4,0.4
			c-0.1,0.2-0.1,0.4,0,0.6c0.6,3.6,1.1,7.2,1.7,10.8c0.1,0.6-0.1,0.6-0.5,0.6c-1.3,0-2.5,0-3.8,0s-2.6,0-3.9,0
			c-0.4,0-0.5-0.2-0.4-0.5c0.6-3.6,1.2-7.2,1.8-10.8c0.1-0.6,0-0.8-0.5-1.1c-1.3-0.7-2.4-1.8-3-3.1c-0.6-1.4-0.7-2.9-0.3-4.3
			c0.4-1.5,1.2-2.8,2.5-3.7c1.2-0.9,2.7-1.4,4.2-1.3c1.5,0.1,2.9,0.7,4,1.7s1.9,2.3,2.1,3.8C73.4,64.3,72.1,66.9,69.4,68.3z"/>
		<path class="st0" d="M66.4,114.1c5.8,0,11.6-1.1,17-3.3V81.8L53,112.1C57.3,113.5,61.8,114.1,66.4,114.1z"/>
		<path class="st1" d="M180,61.6h-15c-0.1-1.2-0.4-2.3-0.8-3.4c-0.4-1-1.1-1.9-1.9-2.6c-0.8-0.8-1.8-1.3-2.9-1.7
			c-1.2-0.4-2.5-0.6-3.8-0.6c-2.5,0-4.6,0.6-6.3,1.8c-1.7,1.2-3,3-3.9,5.2c-0.9,2.2-1.3,5-1.3,8.1c0,3.4,0.5,6.1,1.4,8.4
			s2.2,3.9,3.9,5.1s3.8,1.7,6.1,1.7c1.2,0,2.5-0.2,3.7-0.5c1-0.3,2-0.8,2.8-1.5c0.8-0.6,1.5-1.5,2-2.4c0.5-1,0.9-2.1,1-3.2l15,0.1
			c-0.2,2.5-0.9,4.9-1.9,7.1c-1.2,2.5-2.8,4.7-4.8,6.6c-2.2,2.1-4.8,3.8-7.6,4.9c-3,1.2-6.5,1.8-10.5,1.8c-5,0-9.5-1.1-13.5-3.2
			c-4-2.2-7.3-5.5-9.4-9.5c-2.3-4.2-3.4-9.3-3.4-15.3c0-6.1,1.2-11.2,3.5-15.4c2.2-4,5.5-7.3,9.5-9.5c4-2.2,8.4-3.2,13.3-3.2
			c3.2,0,6.5,0.4,9.5,1.4c2.8,0.9,5.4,2.3,7.6,4.1c2.2,1.8,4,4.1,5.3,6.7C179,55.4,179.8,58.5,180,61.6z"/>
		<path class="st1" d="M239.7,68.5c0,6.1-1.2,11.2-3.5,15.4c-2.2,4-5.5,7.3-9.6,9.5c-4,2.2-8.5,3.2-13.4,3.2c-5,0-9.4-1.1-13.5-3.2
			c-4-2.2-7.3-5.5-9.6-9.5c-2.4-4.2-3.5-9.3-3.5-15.3c0-6.1,1.2-11.2,3.5-15.4c2.2-4,5.5-7.3,9.6-9.5c4-2.2,8.5-3.2,13.5-3.2
			c5,0,9.4,1.1,13.4,3.2c4,2.2,7.4,5.5,9.6,9.5C238.5,57.3,239.7,62.4,239.7,68.5z M224.4,68.5c0-3.3-0.4-6-1.3-8.3
			c-0.9-2.2-2.1-4-3.8-5.1c-1.7-1.2-3.8-1.8-6.2-1.8s-4.5,0.6-6.2,1.8s-3,2.9-3.8,5.1c-0.9,2.2-1.3,5-1.3,8.3s0.4,6,1.3,8.3
			c0.9,2.2,2.1,4,3.8,5.1c1.7,1.2,3.8,1.8,6.2,1.8s4.5-0.6,6.2-1.8c1.7-1.2,3-2.9,3.8-5.1C224,74.5,224.4,71.7,224.4,68.5z"/>
		<path class="st0" d="M358.4,41.1h14.8v35c0,4.2-1,7.7-3,10.8c-2,3.1-4.9,5.5-8.3,7c-3.5,1.7-7.7,2.5-12.3,2.5
			c-4.7,0-8.9-0.8-12.4-2.5c-3.4-1.5-6.2-3.9-8.2-7c-2-3-3-6.6-3-10.8v-35h14.8v33.7c0,1.6,0.4,3.1,1.1,4.5c0.7,1.3,1.8,2.4,3.1,3.1
			c1.4,0.8,3,1.1,4.5,1.1c1.6,0,3.1-0.4,4.6-1.1c1.3-0.7,2.4-1.8,3.1-3.1c0.8-1.4,1.1-3,1.1-4.5L358.4,41.1z"/>
		<path class="st0" d="M427.5,41.1v54.6h-12.4L395.4,67h-0.3v28.7h-14.8V41.1h12.6l19.4,28.6h0.4V41.1H427.5z"/>
		<path class="st0" d="M449.4,41.1v54.6h-14.8V41.1H449.4z"/>
		<path class="st0" d="M454.9,53.1v-12h47.5v12H486v42.7h-14.6V53.1H454.9z"/>
		<path class="st0" d="M505.7,41.1h16.5l10.7,22.2h0.4L544,41.1h16.5l-20,37.5v17.2h-14.7V78.6L505.7,41.1z"/>
		<path class="st0" d="M300.8,41.1L288.1,72h-0.6l-12.7-30.9h-3.5h-8.8l22.2,52.4h7.4l12.2-29.3h0.4v31.6h14.5V41.1H300.8z"/>
		<path class="st1" d="M246.5,41.1v54.6H261V64h0.4l12.2,29.5h4.4h3.5l-22.3-52.4H246.5z"/>
	</g>
	<g>
		<path class="st1" d="M30.5,158.6h-9.9v-28.1h10c2.8,0,5.3,0.6,7.3,1.7c2,1.1,3.6,2.7,4.7,4.8c1.1,2.1,1.7,4.6,1.7,7.5
			c0,2.9-0.6,5.4-1.7,7.5c-1.1,2.1-2.7,3.7-4.7,4.8C35.8,158,33.3,158.6,30.5,158.6z M26.5,153.5h3.8c1.8,0,3.2-0.3,4.4-0.9
			s2.1-1.6,2.7-2.9c0.6-1.3,0.9-3,0.9-5.1c0-2.1-0.3-3.8-0.9-5.1c-0.6-1.3-1.5-2.3-2.7-2.9c-1.2-0.6-2.7-0.9-4.4-0.9h-3.8V153.5z"/>
		<path class="st1" d="M54.5,130.5v28.1h-5.9v-28.1H54.5z"/>
		<path class="st1" d="M74.7,138.6c-0.1-1.1-0.6-2-1.4-2.6c-0.8-0.6-2-0.9-3.4-0.9c-1,0-1.8,0.1-2.5,0.4c-0.7,0.3-1.2,0.6-1.5,1.1
			c-0.4,0.5-0.5,1-0.5,1.6c0,0.5,0.1,0.9,0.3,1.3c0.2,0.4,0.6,0.7,1,1c0.4,0.3,0.9,0.5,1.4,0.7c0.5,0.2,1.1,0.4,1.7,0.5l2.5,0.6
			c1.2,0.3,2.3,0.6,3.4,1.1s1.9,1,2.7,1.7c0.7,0.7,1.3,1.5,1.7,2.4c0.4,0.9,0.6,1.9,0.6,3.1c0,1.7-0.4,3.2-1.3,4.5
			c-0.9,1.3-2.1,2.2-3.7,2.9c-1.6,0.7-3.6,1-5.9,1c-2.3,0-4.2-0.3-5.9-1c-1.7-0.7-3-1.7-3.9-3.1c-0.9-1.4-1.4-3.1-1.5-5.1h5.7
			c0.1,0.9,0.3,1.7,0.8,2.4c0.5,0.6,1.1,1.1,1.9,1.4c0.8,0.3,1.7,0.5,2.7,0.5c1,0,1.9-0.1,2.6-0.4c0.7-0.3,1.3-0.7,1.7-1.2
			c0.4-0.5,0.6-1.1,0.6-1.8c0-0.6-0.2-1.2-0.6-1.6c-0.4-0.4-0.9-0.8-1.6-1.1c-0.7-0.3-1.6-0.6-2.6-0.8l-3.1-0.8
			c-2.4-0.6-4.2-1.5-5.6-2.7c-1.4-1.2-2.1-2.9-2-4.9c0-1.7,0.4-3.2,1.4-4.5c0.9-1.3,2.2-2.3,3.8-3c1.6-0.7,3.4-1.1,5.5-1.1
			c2.1,0,3.9,0.4,5.5,1.1c1.6,0.7,2.8,1.7,3.6,3c0.9,1.3,1.3,2.7,1.3,4.4H74.7z"/>
		<path class="st1" d="M109.5,140.3h-6c-0.1-0.8-0.3-1.5-0.7-2.1c-0.3-0.6-0.8-1.1-1.3-1.6c-0.5-0.4-1.1-0.8-1.8-1
			c-0.7-0.2-1.4-0.3-2.2-0.3c-1.5,0-2.7,0.4-3.8,1.1c-1.1,0.7-1.9,1.8-2.5,3.1c-0.6,1.4-0.9,3-0.9,5c0,2,0.3,3.7,0.9,5
			c0.6,1.4,1.4,2.4,2.5,3.1c1.1,0.7,2.3,1,3.7,1c0.8,0,1.5-0.1,2.2-0.3c0.7-0.2,1.3-0.5,1.8-0.9c0.5-0.4,1-0.9,1.3-1.5
			c0.4-0.6,0.6-1.3,0.7-2l6,0c-0.2,1.3-0.5,2.5-1.2,3.7c-0.6,1.2-1.4,2.3-2.5,3.2c-1,0.9-2.3,1.7-3.7,2.2c-1.4,0.5-3,0.8-4.8,0.8
			c-2.5,0-4.7-0.6-6.7-1.7c-2-1.1-3.5-2.8-4.7-4.9c-1.1-2.1-1.7-4.7-1.7-7.8c0-3.1,0.6-5.7,1.7-7.8c1.2-2.1,2.7-3.8,4.7-4.9
			c2-1.1,4.2-1.7,6.7-1.7c1.6,0,3.1,0.2,4.5,0.7s2.6,1.1,3.7,2c1.1,0.9,2,1.9,2.6,3.2C108.8,137.3,109.3,138.7,109.5,140.3z"/>
		<path class="st1" d="M139.5,144.5c0,3.1-0.6,5.7-1.7,7.8c-1.2,2.1-2.7,3.8-4.7,4.9c-2,1.1-4.2,1.7-6.7,1.7c-2.5,0-4.7-0.6-6.7-1.7
			c-2-1.1-3.5-2.8-4.7-4.9c-1.2-2.1-1.7-4.7-1.7-7.8c0-3.1,0.6-5.7,1.7-7.8c1.2-2.1,2.7-3.8,4.7-4.9c2-1.1,4.2-1.7,6.7-1.7
			c2.5,0,4.7,0.6,6.7,1.7s3.6,2.8,4.7,4.9C138.9,138.9,139.5,141.5,139.5,144.5z M133.5,144.5c0-2-0.3-3.7-0.9-5
			c-0.6-1.4-1.4-2.4-2.5-3.1c-1.1-0.7-2.3-1.1-3.8-1.1c-1.4,0-2.7,0.4-3.8,1.1c-1.1,0.7-1.9,1.7-2.5,3.1c-0.6,1.4-0.9,3-0.9,5
			c0,2,0.3,3.7,0.9,5c0.6,1.4,1.4,2.4,2.5,3.1c1.1,0.7,2.3,1.1,3.8,1.1c1.4,0,2.7-0.4,3.8-1.1c1.1-0.7,1.9-1.7,2.5-3.1
			C133.2,148.2,133.5,146.5,133.5,144.5z"/>
		<path class="st1" d="M147.4,130.5l6.8,21.3h0.3l6.8-21.3h6.6l-9.7,28.1h-7.6l-9.7-28.1H147.4z"/>
		<path class="st1" d="M171.2,158.6v-28.1h18.9v4.9h-13v6.7h12v4.9h-12v6.7h13v4.9H171.2z"/>
		<path class="st1" d="M194.8,158.6v-28.1h11.1c2.1,0,3.9,0.4,5.4,1.1s2.6,1.8,3.4,3.2c0.8,1.4,1.2,3,1.2,4.8c0,1.9-0.4,3.5-1.2,4.8
			c-0.8,1.3-2,2.4-3.5,3.1c-1.5,0.7-3.4,1.1-5.5,1.1h-7.4v-4.8h6.5c1.1,0,2.1-0.2,2.8-0.5c0.7-0.3,1.3-0.8,1.7-1.4
			c0.4-0.6,0.6-1.4,0.6-2.3c0-0.9-0.2-1.7-0.6-2.4c-0.4-0.6-0.9-1.1-1.7-1.5c-0.8-0.3-1.7-0.5-2.8-0.5h-4v23.2H194.8z M210,145.8
			l7,12.8h-6.6l-6.8-12.8H210z"/>
		<path class="st1" d="M252.6,130.5v28.1h-5.1l-12.2-17.7H235v17.7h-5.9v-28.1h5.2l12.1,17.7h0.2v-17.7H252.6z"/>
		<path class="st1" d="M257.5,158.6v-28.1h18.9v4.9h-13v6.7h12v4.9h-12v6.7h13v4.9H257.5z"/>
		<path class="st1" d="M287.4,158.6l-8-28.1h6.5l4.6,19.5h0.2l5.1-19.5h5.6l5.1,19.5h0.2l4.6-19.5h6.5l-8,28.1h-5.8l-5.3-18.4h-0.2
			l-5.3,18.4H287.4z"/>
		<path class="st1" d="M330,158.6v-28.1h11.1c2.1,0,3.9,0.4,5.4,1.2c1.5,0.8,2.6,1.9,3.4,3.4s1.2,3.1,1.2,4.9s-0.4,3.5-1.2,4.9
			c-0.8,1.4-2,2.5-3.5,3.3c-1.5,0.8-3.4,1.2-5.5,1.2h-7.1v-4.8h6.1c1.1,0,2.1-0.2,2.8-0.6c0.7-0.4,1.3-1,1.7-1.7
			c0.4-0.7,0.6-1.5,0.6-2.4c0-0.9-0.2-1.7-0.6-2.4c-0.4-0.7-0.9-1.2-1.7-1.6c-0.7-0.4-1.7-0.6-2.9-0.6h-4v23.2H330z"/>
		<path class="st1" d="M355,158.6v-28.1h11.1c2.1,0,3.9,0.4,5.4,1.1s2.6,1.8,3.4,3.2c0.8,1.4,1.2,3,1.2,4.8c0,1.9-0.4,3.5-1.2,4.8
			c-0.8,1.3-2,2.4-3.5,3.1c-1.5,0.7-3.4,1.1-5.5,1.1h-7.4v-4.8h6.5c1.1,0,2.1-0.2,2.8-0.5c0.7-0.3,1.3-0.8,1.7-1.4
			c0.4-0.6,0.6-1.4,0.6-2.3c0-0.9-0.2-1.7-0.6-2.4c-0.4-0.6-0.9-1.1-1.7-1.5c-0.8-0.3-1.7-0.5-2.8-0.5h-4v23.2H355z M370.2,145.8
			l7,12.8h-6.6l-6.8-12.8H370.2z"/>
		<path class="st1" d="M406.2,144.5c0,3.1-0.6,5.7-1.7,7.8c-1.2,2.1-2.7,3.8-4.7,4.9c-2,1.1-4.2,1.7-6.7,1.7c-2.5,0-4.7-0.6-6.7-1.7
			c-2-1.1-3.5-2.8-4.7-4.9c-1.2-2.1-1.7-4.7-1.7-7.8c0-3.1,0.6-5.7,1.7-7.8c1.2-2.1,2.7-3.8,4.7-4.9c2-1.1,4.2-1.7,6.7-1.7
			c2.5,0,4.7,0.6,6.7,1.7c2,1.1,3.6,2.8,4.7,4.9C405.6,138.9,406.2,141.5,406.2,144.5z M400.1,144.5c0-2-0.3-3.7-0.9-5
			c-0.6-1.4-1.4-2.4-2.5-3.1c-1.1-0.7-2.3-1.1-3.8-1.1c-1.4,0-2.7,0.4-3.8,1.1c-1.1,0.7-1.9,1.7-2.5,3.1c-0.6,1.4-0.9,3-0.9,5
			c0,2,0.3,3.7,0.9,5c0.6,1.4,1.4,2.4,2.5,3.1c1.1,0.7,2.3,1.1,3.8,1.1c1.4,0,2.7-0.4,3.8-1.1c1.1-0.7,1.9-1.7,2.5-3.1
			C399.8,148.2,400.1,146.5,400.1,144.5z"/>
		<path class="st1" d="M425.8,138.6c-0.1-1.1-0.6-2-1.4-2.6c-0.8-0.6-2-0.9-3.4-0.9c-1,0-1.8,0.1-2.5,0.4c-0.7,0.3-1.2,0.6-1.5,1.1
			c-0.4,0.5-0.5,1-0.5,1.6c0,0.5,0.1,0.9,0.3,1.3c0.2,0.4,0.6,0.7,1,1c0.4,0.3,0.9,0.5,1.4,0.7c0.5,0.2,1.1,0.4,1.7,0.5l2.5,0.6
			c1.2,0.3,2.3,0.6,3.4,1.1s1.9,1,2.7,1.7c0.7,0.7,1.3,1.5,1.7,2.4c0.4,0.9,0.6,1.9,0.6,3.1c0,1.7-0.4,3.2-1.3,4.5
			c-0.9,1.3-2.1,2.2-3.7,2.9c-1.6,0.7-3.6,1-5.9,1c-2.3,0-4.2-0.3-5.9-1c-1.7-0.7-3-1.7-3.9-3.1c-0.9-1.4-1.4-3.1-1.5-5.1h5.7
			c0.1,0.9,0.3,1.7,0.8,2.4c0.5,0.6,1.1,1.1,1.9,1.4s1.7,0.5,2.7,0.5c1,0,1.9-0.1,2.6-0.4c0.7-0.3,1.3-0.7,1.7-1.2
			c0.4-0.5,0.6-1.1,0.6-1.8c0-0.6-0.2-1.2-0.6-1.6c-0.4-0.4-0.9-0.8-1.6-1.1c-0.7-0.3-1.6-0.6-2.6-0.8l-3.1-0.8
			c-2.4-0.6-4.2-1.5-5.6-2.7c-1.4-1.2-2.1-2.9-2-4.9c0-1.7,0.4-3.2,1.4-4.5c0.9-1.3,2.2-2.3,3.8-3c1.6-0.7,3.4-1.1,5.5-1.1
			c2.1,0,3.9,0.4,5.5,1.1c1.6,0.7,2.8,1.7,3.6,3c0.9,1.3,1.3,2.7,1.3,4.4H425.8z"/>
		<path class="st1" d="M435.8,158.6v-28.1h11.1c2.1,0,3.9,0.4,5.4,1.2c1.5,0.8,2.6,1.9,3.4,3.4c0.8,1.4,1.2,3.1,1.2,4.9
			s-0.4,3.5-1.2,4.9c-0.8,1.4-2,2.5-3.5,3.3c-1.5,0.8-3.4,1.2-5.5,1.2h-7.1v-4.8h6.1c1.1,0,2.1-0.2,2.8-0.6c0.7-0.4,1.3-1,1.7-1.7
			c0.4-0.7,0.6-1.5,0.6-2.4c0-0.9-0.2-1.7-0.6-2.4c-0.4-0.7-0.9-1.2-1.7-1.6c-0.7-0.4-1.7-0.6-2.9-0.6h-4v23.2H435.8z"/>
		<path class="st1" d="M460.8,158.6v-28.1h18.9v4.9h-13v6.7h12v4.9h-12v6.7h13v4.9H460.8z"/>
		<path class="st1" d="M509.2,140.3h-6c-0.1-0.8-0.3-1.5-0.7-2.1c-0.3-0.6-0.8-1.1-1.3-1.6c-0.5-0.4-1.1-0.8-1.8-1
			c-0.7-0.2-1.4-0.3-2.2-0.3c-1.5,0-2.7,0.4-3.8,1.1c-1.1,0.7-1.9,1.8-2.5,3.1c-0.6,1.4-0.9,3-0.9,5c0,2,0.3,3.7,0.9,5
			c0.6,1.4,1.4,2.4,2.5,3.1c1.1,0.7,2.3,1,3.7,1c0.8,0,1.5-0.1,2.2-0.3c0.7-0.2,1.3-0.5,1.8-0.9c0.5-0.4,1-0.9,1.3-1.5
			c0.4-0.6,0.6-1.3,0.7-2l6,0c-0.2,1.3-0.5,2.5-1.2,3.7c-0.6,1.2-1.4,2.3-2.5,3.2c-1,0.9-2.3,1.7-3.7,2.2c-1.4,0.5-3,0.8-4.8,0.8
			c-2.5,0-4.7-0.6-6.7-1.7c-2-1.1-3.5-2.8-4.7-4.9c-1.1-2.1-1.7-4.7-1.7-7.8c0-3.1,0.6-5.7,1.7-7.8c1.2-2.1,2.7-3.8,4.7-4.9
			c2-1.1,4.2-1.7,6.7-1.7c1.6,0,3.1,0.2,4.5,0.7c1.4,0.5,2.6,1.1,3.7,2c1.1,0.9,2,1.9,2.6,3.2C508.6,137.3,509,138.7,509.2,140.3z"
			/>
		<path class="st1" d="M512.4,135.4v-4.9h23.1v4.9h-8.6v23.2H521v-23.2H512.4z"/>
		<path class="st1" d="M554.5,138.6c-0.1-1.1-0.6-2-1.4-2.6c-0.8-0.6-2-0.9-3.4-0.9c-1,0-1.8,0.1-2.5,0.4c-0.7,0.3-1.2,0.6-1.5,1.1
			c-0.4,0.5-0.5,1-0.5,1.6c0,0.5,0.1,0.9,0.3,1.3c0.2,0.4,0.6,0.7,1,1c0.4,0.3,0.9,0.5,1.4,0.7c0.5,0.2,1.1,0.4,1.7,0.5l2.5,0.6
			c1.2,0.3,2.3,0.6,3.4,1.1s1.9,1,2.7,1.7c0.7,0.7,1.3,1.5,1.7,2.4c0.4,0.9,0.6,1.9,0.6,3.1c0,1.7-0.4,3.2-1.3,4.5
			c-0.9,1.3-2.1,2.2-3.7,2.9c-1.6,0.7-3.6,1-5.9,1c-2.3,0-4.2-0.3-5.9-1c-1.7-0.7-3-1.7-3.9-3.1c-0.9-1.4-1.4-3.1-1.5-5.1h5.7
			c0.1,0.9,0.3,1.7,0.8,2.4c0.5,0.6,1.1,1.1,1.9,1.4s1.7,0.5,2.7,0.5c1,0,1.9-0.1,2.6-0.4c0.7-0.3,1.3-0.7,1.7-1.2
			c0.4-0.5,0.6-1.1,0.6-1.8c0-0.6-0.2-1.2-0.6-1.6c-0.4-0.4-0.9-0.8-1.6-1.1c-0.7-0.3-1.6-0.6-2.6-0.8l-3.1-0.8
			c-2.4-0.6-4.2-1.5-5.6-2.7c-1.4-1.2-2.1-2.9-2-4.9c0-1.7,0.4-3.2,1.4-4.5c0.9-1.3,2.2-2.3,3.8-3c1.6-0.7,3.4-1.1,5.5-1.1
			c2.1,0,3.9,0.4,5.5,1.1c1.6,0.7,2.8,1.7,3.6,3c0.9,1.3,1.3,2.7,1.3,4.4H554.5z"/>
	</g>
</g>
</svg>
