<?xml version="1.0" encoding="utf-8"?>
<!-- Generator: Adobe Illustrator 26.0.3, SVG Export Plug-In . SVG Version: 6.00 Build 0)  -->
<svg version="1.1" id="Layer_1" xmlns="http://www.w3.org/2000/svg" xmlns:xlink="http://www.w3.org/1999/xlink" x="0px" y="0px"
	 viewBox="0 0 1786 328" style="enable-background:new 0 0 1786 328;" xml:space="preserve">
<style type="text/css">
	.st0{fill:#20ACF5;}
	.st1{fill:#FFFFFF;}
</style>
<g>
	<path class="st0" d="M302.4,108.7h-94.7l98.8,98.8c4.3-14.1,6.5-28.8,6.5-43.6C313,145,309.4,126.3,302.4,108.7z"/>
	<path class="st0" d="M222.9,27l-67,67h139.7c-6.9-13-15.8-25-26.3-35.4C256,45.1,240.2,34.4,222.9,27z"/>
	<path class="st0" d="M108.8,25.4v94.7l98.8-98.8c-14.1-4.3-28.8-6.5-43.6-6.5C145.1,14.8,126.3,18.4,108.8,25.4z"/>
	<path class="st0" d="M58.6,58.5C45.2,71.9,34.5,87.6,27,105l67,67V32.3C80.9,39.2,69,48.1,58.6,58.5z"/>
	<path class="st0" d="M25.5,219.1h94.7l-98.8-98.8c-4.3,14.1-6.5,28.8-6.5,43.6C14.9,182.8,18.5,201.5,25.5,219.1z"/>
	<path class="st0" d="M105.1,300.9l67-67H32.3c6.9,13,15.8,25,26.3,35.4C71.9,282.7,87.7,293.4,105.1,300.9z"/>
	<path class="st0" d="M269.3,269.3c13.4-13.3,24.1-29.1,31.5-46.5l-67-67v139.7C247,288.6,258.9,279.8,269.3,269.3z"/>
	<path class="st1" d="M186.8,108.7h-45.7l-32.3,32.3v45.7l32.3,32.3h45.7l32.3-32.3v-45.7L186.8,108.7z M173.9,164
		c-0.6,0.2-1.1,0.7-1.4,1.3c-0.3,0.6-0.3,1.3-0.1,1.9c1.9,11.8,3.7,23.5,5.6,35.2c0.3,1.8-0.3,1.8-1.7,1.8c-4.1,0-8.2,0-12.4,0
		c-4.2,0-8.4-0.1-12.6,0c-1.4,0-1.6-0.5-1.4-1.7c2-11.7,3.8-23.3,5.8-35c0.3-1.8,0.1-2.7-1.7-3.6c-4.3-2.2-7.7-5.8-9.7-10.2
		c-2-4.4-2.3-9.4-1.1-14c1.2-4.8,4-9,8-12c4-2.9,8.8-4.4,13.8-4.1c4.9,0.3,9.5,2.2,13.1,5.4c3.6,3.2,6.1,7.6,6.9,12.4
		C186.7,150.9,182.7,159.4,173.9,164z"/>
	<path class="st0" d="M164,313c18.9,0,37.6-3.5,55.2-10.6v-94.7l-98.8,98.8C134.5,310.8,149.2,313,164,313z"/>
	<path class="st1" d="M533.6,142.2h-48.9c-0.3-3.8-1.2-7.5-2.7-11c-1.4-3.2-3.5-6.1-6.1-8.5c-2.7-2.5-5.9-4.3-9.3-5.5
		c-4-1.4-8.2-2.1-12.4-2c-8.1,0-14.9,2-20.5,5.9c-5.6,3.9-9.8,9.6-12.7,16.9c-2.9,7.3-4.3,16.2-4.3,26.4c0,10.9,1.5,20,4.4,27.3
		c2.9,7.3,7.2,12.8,12.7,16.5c5.5,3.7,12.2,5.5,20,5.5c4,0.1,8.1-0.5,11.9-1.6c3.3-1,6.5-2.7,9.2-4.9c2.6-2.1,4.8-4.8,6.4-7.8
		c1.7-3.2,2.8-6.7,3.3-10.3l48.9,0.3c-0.7,8-2.8,15.8-6.3,23c-3.8,8-9.1,15.3-15.5,21.5c-7.1,6.9-15.5,12.2-24.8,15.8
		c-9.8,4-21.3,6-34.3,6c-16.3,0-30.9-3.5-43.8-10.5c-13-7.1-23.7-17.8-30.6-30.9c-7.5-13.6-11.2-30.2-11.2-49.9
		c0-19.8,3.8-36.5,11.5-50c7.1-13,17.8-23.8,30.8-30.8c13-7,27.4-10.5,43.4-10.5c10.5-0.1,21,1.4,31,4.6c9,2.9,17.5,7.4,24.8,13.4
		c7.2,5.9,13,13.3,17.2,21.7C530.1,121.9,532.9,131.9,533.6,142.2z"/>
	<path class="st1" d="M727.5,164.4c0,19.8-3.8,36.5-11.5,50c-7.2,13.1-18,23.8-31.1,30.8c-13.1,7-27.7,10.5-43.7,10.5
		c-16.1,0-30.7-3.5-43.8-10.5c-13.1-7.1-23.9-17.8-31.1-30.8c-7.7-13.6-11.5-30.2-11.5-49.8c0-19.8,3.8-36.5,11.5-50
		c7.1-13.1,17.9-23.8,31.1-30.8c13-7,27.7-10.5,43.8-10.5c16.1,0,30.7,3.5,43.7,10.5c13.1,7.1,24,17.8,31.1,30.8
		C723.7,128,727.5,144.6,727.5,164.4z M677.9,164.4c0-10.6-1.4-19.6-4.2-26.9c-2.8-7.3-6.9-12.9-12.4-16.7
		c-5.5-3.8-12.2-5.7-20.2-5.7c-8,0-14.7,1.9-20.2,5.7c-5.5,3.8-9.6,9.3-12.4,16.7c-2.8,7.3-4.2,16.3-4.2,26.9
		c0,10.6,1.4,19.6,4.2,26.9c2.8,7.3,6.9,12.9,12.4,16.7c5.5,3.8,12.2,5.7,20.2,5.7c8,0,14.7-1.9,20.2-5.7c5.5-3.8,9.6-9.3,12.4-16.7
		C676.5,184,677.9,175,677.9,164.4z"/>
	<path class="st0" d="M1113.5,75.5h48.2v113.8c0,13.5-3.2,25.2-9.7,35.1c-6.6,10-16,17.9-26.9,22.8c-11.5,5.4-24.9,8-40.1,8
		c-15.3,0-28.8-2.7-40.3-8c-10.9-4.9-20.3-12.8-26.8-22.8c-6.4-9.9-9.6-21.6-9.6-35.1V75.5h48.2v109.7c-0.1,5.1,1.2,10.2,3.7,14.7
		c2.4,4.2,5.9,7.7,10.1,10.1c4.5,2.5,9.6,3.7,14.7,3.6c5.2,0.1,10.2-1.2,14.8-3.6c4.2-2.4,7.7-5.9,10-10.1c2.5-4.5,3.7-9.6,3.6-14.7
		L1113.5,75.5z"/>
	<path class="st0" d="M1338.4,75.5v177.7h-40.2l-64.2-93.4h-1v93.4h-48.2V75.5h40.9l63.2,93h1.4v-93H1338.4z"/>
	<path class="st0" d="M1409.5,75.5v177.7h-48.2V75.5H1409.5z"/>
	<path class="st0" d="M1427.5,114.4V75.5h154.4v38.9h-53.4v138.8H1481V114.4H1427.5z"/>
	<path class="st0" d="M1592.7,75.5h53.8l34.7,72.2h1.4l34.7-72.2h53.8l-65.2,121.8v55.9h-47.9v-55.9L1592.7,75.5z"/>
	<path class="st0" d="M926.2,75.5l-41.3,100.6h-2.1L841.5,75.5H830h-28.5l72.3,170.3h24.2l39.6-95.3h1.4v102.7h47.2V75.5H926.2z"/>
	<path class="st1" d="M749.7,75.5v177.7h47.2V149.8h1.4l39.6,96h14.2h11.5L791.2,75.5H749.7z"/>
</g>
</svg>
