<svg width="72" height="39" viewBox="0 0 72 39" fill="none" xmlns="http://www.w3.org/2000/svg">
<g id="master card">
<path id="Vector" d="M70 19.5C70 30.2 60.8985 39 49.6 39C38.4062 39 29.2 30.2 29.2 19.5C29.2 8.8 38.3016 0 49.4954 0C60.8985 0 70 8.8 70 19.5Z" fill="#F9B50B"/>
<path id="Vector_2" d="M42.6954 19.6C42.6954 18.2 42.4862 16.8 42.2769 15.5H29.7231C29.8277 14.8 30.0369 14.2 30.2462 13.4H41.44C41.2308 12.7 40.9169 12 40.6031 11.3H31.0831C31.3969 10.6 31.8154 10 32.2338 9.2H39.4523C39.0338 8.5 38.5108 7.8 37.8831 7.1H33.9077C34.5354 6.4 35.1631 5.8 36 5.1C32.4431 1.9 27.6308 0 22.2954 0C11.2062 0.3 2 8.8 2 19.5C2 30.2 11.1015 39 22.4 39C27.7354 39 32.4431 37 36.1046 33.9C36.8369 33.3 37.4646 32.6 38.1969 31.8H34.0123C33.4892 31.2 32.9662 30.5 32.5477 29.8H39.6615C40.08 29.2 40.4985 28.5 40.8123 27.7H31.2923C30.9785 27.1 30.6646 26.4 30.4554 25.6H41.6492C42.2769 23.8 42.6954 21.8 42.6954 19.6Z" fill="#C8191C"/>
<path id="Vector_3" d="M29.6184 24.4999L29.9323 22.6999C29.8277 22.6999 29.6184 22.7999 29.4092 22.7999C28.6769 22.7999 28.5723 22.3999 28.6769 22.1999L29.3046 18.5999H30.4554L30.7692 16.5999H29.7231L29.9323 15.3999H27.7354C27.7354 15.3999 26.48 22.1999 26.48 22.9999C26.48 24.1999 27.2123 24.7999 28.2584 24.7999C28.8861 24.7999 29.4092 24.5999 29.6184 24.4999Z" fill="white"/>
<path id="Vector_4" d="M30.3508 21.2001C30.3508 24.1001 32.4431 24.8001 34.1169 24.8001C35.6862 24.8001 36.4185 24.5001 36.4185 24.5001L36.8369 22.5001C36.8369 22.5001 35.6862 23.0001 34.5354 23.0001C32.1292 23.0001 32.5477 21.3001 32.5477 21.3001H36.9415C36.9415 21.3001 37.2554 20.0001 37.2554 19.4001C37.2554 18.1001 36.5231 16.4001 34.1169 16.4001C32.0246 16.3001 30.3508 18.6001 30.3508 21.2001ZM34.1169 18.2001C35.2677 18.2001 35.0585 19.5001 35.0585 19.6001H32.6523C32.7569 19.5001 32.9662 18.2001 34.1169 18.2001Z" fill="white"/>
<path id="Vector_5" d="M47.8215 24.4999L48.24 22.1999C48.24 22.1999 47.1938 22.6999 46.3569 22.6999C44.8923 22.6999 44.16 21.5999 44.16 20.2999C44.16 17.7999 45.4154 16.4999 46.9846 16.4999C48.0308 16.4999 48.9723 17.0999 48.9723 17.0999L49.2862 14.8999C49.2862 14.8999 48.0308 14.3999 46.7754 14.3999C44.2646 14.3999 41.8585 16.4999 41.8585 20.3999C41.8585 22.9999 43.1138 24.6999 45.7292 24.6999C46.6708 24.7999 47.8215 24.4999 47.8215 24.4999Z" fill="white"/>
<path id="Vector_6" d="M17.7969 16.2998C16.3323 16.2998 15.1815 16.6998 15.1815 16.6998L14.8677 18.4998C14.8677 18.4998 15.8092 18.0998 17.2738 18.0998C18.0062 18.0998 18.6338 18.1998 18.6338 18.7998C18.6338 19.1998 18.5292 19.2998 18.5292 19.2998H17.5877C15.7046 19.2998 13.7169 19.9998 13.7169 22.3998C13.7169 24.2998 14.9723 24.6998 15.8092 24.6998C17.2738 24.6998 18.0061 23.7998 18.1108 23.7998L18.0062 24.5998H19.7846L20.6215 18.8998C20.6215 16.3998 18.5292 16.2998 17.7969 16.2998ZM18.2154 20.8998C18.2154 21.1998 18.0062 22.8998 16.7508 22.8998C16.1231 22.8998 15.9138 22.3998 15.9138 22.0998C15.9138 21.5998 16.2277 20.8998 17.9015 20.8998C18.1108 20.8998 18.2154 20.8998 18.2154 20.8998Z" fill="white"/>
<path id="Vector_7" d="M22.7138 24.7002C23.2369 24.7002 25.9569 24.8002 25.9569 22.0002C25.9569 19.4002 23.3415 19.9002 23.3415 18.9002C23.3415 18.4002 23.76 18.2002 24.4923 18.2002C24.8061 18.2002 25.9569 18.3002 25.9569 18.3002L26.2708 16.4002C26.2708 16.4002 25.5385 16.2002 24.1785 16.2002C22.6092 16.2002 20.9354 16.8002 20.9354 18.9002C20.9354 21.3002 23.6554 21.1002 23.6554 22.0002C23.6554 22.6002 22.9231 22.7002 22.4 22.7002C21.4585 22.7002 20.4123 22.4002 20.4123 22.4002L20.0984 24.3002C20.3077 24.5002 20.9354 24.7002 22.7138 24.7002Z" fill="white"/>
<path id="Vector_8" d="M65.8154 14.7002L65.3969 17.5002C65.3969 17.5002 64.56 16.5002 63.3046 16.5002C61.3169 16.5002 59.6431 18.8002 59.6431 21.5002C59.6431 23.2002 60.48 24.9002 62.3631 24.9002C63.6185 24.9002 64.4554 24.1002 64.4554 24.1002L64.3508 24.8002H66.5477L68.1169 14.9002L65.8154 14.7002ZM64.7692 20.1002C64.7692 21.2002 64.2461 22.7002 62.9908 22.7002C62.2585 22.7002 61.84 22.1002 61.84 21.0002C61.84 19.3002 62.5723 18.3002 63.6185 18.3002C64.3508 18.4002 64.7692 18.9002 64.7692 20.1002Z" fill="white"/>
<path id="Vector_9" d="M5.97536 24.6002L7.23075 17.2002L7.43998 24.6002H8.9046L11.7292 17.2002L10.5784 24.6002H12.88L14.6584 14.7002H11.1015L8.9046 20.8002L8.79998 14.7002H5.66152L3.88306 24.6002H5.97536Z" fill="white"/>
<path id="Vector_10" d="M39.4523 24.6C40.08 21.2 40.1846 18.4 41.7538 18.9C41.9631 17.6 42.2769 17 42.4861 16.5H42.0677C41.1261 16.5 40.2892 17.7 40.2892 17.7L40.4984 16.6H38.4061L37.0461 24.6H39.4523V24.6Z" fill="white"/>
<path id="Vector_11" d="M52.8431 16.2998C51.3784 16.2998 50.2277 16.6998 50.2277 16.6998L49.9138 18.4998C49.9138 18.4998 50.8554 18.0998 52.32 18.0998C53.0523 18.0998 53.68 18.1998 53.68 18.7998C53.68 19.1998 53.5754 19.2998 53.5754 19.2998H52.6338C50.7508 19.2998 48.7631 19.9998 48.7631 22.3998C48.7631 24.2998 50.0184 24.6998 50.8554 24.6998C52.32 24.6998 53.0523 23.7998 53.1569 23.7998L53.0523 24.5998H55.04L55.8769 18.8998C55.8769 16.3998 53.5754 16.2998 52.8431 16.2998ZM53.3661 20.8998C53.3661 21.1998 53.1569 22.8998 51.9015 22.8998C51.2738 22.8998 51.0646 22.3998 51.0646 22.0998C51.0646 21.5998 51.3784 20.8998 53.0523 20.8998C53.2615 20.8998 53.2615 20.8998 53.3661 20.8998Z" fill="white"/>
<path id="Vector_12" d="M57.5507 24.6C58.1784 21.2 58.2831 18.4 59.8523 18.9C60.0615 17.6 60.3754 17 60.5846 16.5H60.1661C59.2246 16.5 58.3877 17.7 58.3877 17.7L58.5969 16.6H56.5046L55.1446 24.6H57.5507V24.6Z" fill="white"/>
</g>
</svg>
