<svg width="24" height="24" viewBox="0 0 24 24" fill="none" xmlns="http://www.w3.org/2000/svg">
<g clip-path="url(#clip0_152_4610)">
<path d="M22.1802 10.1387C22.1074 10.1382 22.0353 10.1523 21.9681 10.1801C21.9008 10.2079 21.8398 10.249 21.7887 10.3008C21.7376 10.3526 21.6974 10.4141 21.6705 10.4817C21.6436 10.5493 21.6305 10.6216 21.632 10.6944C21.632 10.8358 21.6881 10.9715 21.7882 11.0715C21.8882 11.1715 22.0238 11.2277 22.1653 11.2277C22.3067 11.2277 22.4424 11.1715 22.5424 11.0715C22.6424 10.9715 22.6986 10.8358 22.6986 10.6944C22.7017 10.5525 22.6492 10.4149 22.5524 10.3111C22.4556 10.2073 22.322 10.1455 22.1802 10.1387Z" fill="#20ACF5"/>
<path d="M19.3189 10.344C19.409 10.2498 19.5324 10.1948 19.6627 10.1909C19.7274 10.1924 19.7911 10.2065 19.8503 10.2326C19.9094 10.2587 19.9629 10.2962 20.0076 10.343C20.0522 10.3897 20.0873 10.4448 20.1107 10.5051C20.134 10.5654 20.1453 10.6298 20.1438 10.6944C20.1438 10.822 20.0931 10.9444 20.0029 11.0346C19.9127 11.1248 19.7903 11.1755 19.6627 11.1755C19.5351 11.1755 19.4127 11.1248 19.3225 11.0346C19.2323 10.9444 19.1816 10.822 19.1816 10.6944C19.1796 10.5641 19.2289 10.4383 19.3189 10.344Z" fill="#20ACF5"/>
<path d="M16.9872 10.2798C17.0407 10.2566 17.0982 10.2441 17.1565 10.2432C17.2736 10.2461 17.3847 10.2952 17.4657 10.3797C17.5468 10.4642 17.5911 10.5774 17.5891 10.6944C17.5947 10.7549 17.5877 10.8158 17.5684 10.8734C17.5491 10.9309 17.518 10.9838 17.4771 11.0287C17.4362 11.0736 17.3864 11.1094 17.3309 11.1339C17.2754 11.1584 17.2153 11.1711 17.1546 11.1711C17.0939 11.1711 17.0339 11.1584 16.9784 11.1339C16.9228 11.1094 16.873 11.0736 16.8321 11.0287C16.7912 10.9838 16.7602 10.9309 16.7409 10.8734C16.7216 10.8158 16.7145 10.7549 16.7201 10.6944C16.7191 10.6362 16.7296 10.5783 16.751 10.524C16.7724 10.4698 16.8043 10.4203 16.8448 10.3784C16.8853 10.3365 16.9337 10.303 16.9872 10.2798Z" fill="#20ACF5"/>
<path d="M14.3621 10.4141C14.4317 10.3376 14.5282 10.2911 14.6314 10.2843C14.6857 10.2828 14.7398 10.2924 14.7903 10.3124C14.8407 10.3325 14.8866 10.3627 14.925 10.4011C14.9634 10.4395 14.9935 10.4853 15.0136 10.5358C15.0337 10.5863 15.0432 10.6403 15.0417 10.6946C15.0417 10.7985 15.0004 10.8981 14.927 10.9715C14.8536 11.0449 14.754 11.0862 14.6501 11.0862C14.5462 11.0862 14.4466 11.0449 14.3732 10.9715C14.2997 10.8981 14.2585 10.7985 14.2585 10.6946C14.2554 10.5912 14.2925 10.4907 14.3621 10.4141Z" fill="#20ACF5"/>
<path d="M22.1802 12.7495C22.0697 12.745 21.9602 12.7737 21.8661 12.8318C21.7719 12.8899 21.6972 12.9749 21.6516 13.0757C21.6059 13.1766 21.5915 13.2887 21.61 13.3979C21.6286 13.507 21.6793 13.6081 21.7557 13.6882C21.832 13.7683 21.9306 13.8238 22.0387 13.8475C22.1468 13.8713 22.2595 13.8622 22.3625 13.8214C22.4654 13.7807 22.5538 13.7101 22.6163 13.6188C22.6789 13.5275 22.7127 13.4196 22.7136 13.3089C22.7156 13.2371 22.7033 13.1656 22.6775 13.0985C22.6518 13.0315 22.613 12.9702 22.5634 12.9182C22.5138 12.8662 22.4544 12.8245 22.3887 12.7955C22.3229 12.7666 22.2521 12.7509 22.1802 12.7495Z" fill="#20ACF5"/>
<path d="M14.3988 12.9583C14.4686 12.9155 14.5497 12.8946 14.6315 12.8984C14.6843 12.8993 14.7363 12.9107 14.7846 12.9319C14.8329 12.9531 14.8765 12.9837 14.9129 13.0218C14.9493 13.06 14.9778 13.105 14.9967 13.1542C15.0157 13.2034 15.0246 13.2559 15.0231 13.3086C15.0231 13.3905 14.9985 13.4706 14.9525 13.5384C14.9065 13.6062 14.8413 13.6587 14.7653 13.6891C14.6892 13.7195 14.6058 13.7265 14.5257 13.7091C14.4457 13.6917 14.3727 13.6507 14.3161 13.5915C14.2596 13.5322 14.222 13.4574 14.2084 13.3766C14.1947 13.2958 14.2056 13.2128 14.2395 13.1383C14.2734 13.0637 14.3289 13.001 14.3988 12.9583Z" fill="#20ACF5"/>
<path d="M19.6628 12.8054C19.5623 12.8001 19.4625 12.8252 19.3763 12.8772C19.2901 12.9293 19.2216 13.006 19.1794 13.0974C19.1373 13.1888 19.1235 13.2908 19.1399 13.3901C19.1563 13.4894 19.202 13.5816 19.2713 13.6546C19.3406 13.7277 19.4301 13.7783 19.5284 13.7999C19.6268 13.8215 19.7293 13.8132 19.8228 13.776C19.9164 13.7388 19.9966 13.6744 20.0532 13.5911C20.1097 13.5078 20.14 13.4095 20.1402 13.3089C20.1432 13.1789 20.0947 13.053 20.0052 12.9587C19.9158 12.8644 19.7927 12.8093 19.6628 12.8054Z" fill="#20ACF5"/>
<path d="M16.8961 12.9158C16.9747 12.8695 17.0655 12.848 17.1565 12.854C17.2726 12.8598 17.3818 12.9105 17.4612 12.9954C17.5405 13.0804 17.5837 13.1928 17.5817 13.309C17.5815 13.4002 17.5538 13.4893 17.5024 13.5646C17.451 13.64 17.3781 13.6981 17.2932 13.7315C17.2083 13.7649 17.1153 13.772 17.0263 13.7519C16.9373 13.7317 16.8565 13.6853 16.7942 13.6187C16.7319 13.552 16.6911 13.4682 16.6771 13.3781C16.663 13.2879 16.6764 13.1957 16.7154 13.1132C16.7545 13.0308 16.8174 12.962 16.8961 12.9158Z" fill="#20ACF5"/>
<path d="M18.4059 11.5259C18.3444 11.5268 18.2836 11.54 18.2272 11.5646C18.1707 11.5891 18.1197 11.6246 18.0771 11.669C18.0344 11.7134 18.001 11.7658 17.9787 11.8231C17.9564 11.8805 17.9457 11.9417 17.9472 12.0033C17.948 12.0672 17.9606 12.1304 17.9845 12.1897C18.0186 12.2741 18.0768 12.3466 18.1517 12.3983C18.2265 12.4499 18.3149 12.4786 18.4059 12.4807C18.4667 12.4797 18.5267 12.4667 18.5824 12.4424C18.6381 12.418 18.6884 12.3829 18.7304 12.3389C18.7724 12.2962 18.8053 12.2455 18.8273 12.1897C18.8512 12.1304 18.8638 12.0672 18.8646 12.0033C18.8661 11.9417 18.8554 11.8805 18.8331 11.8231C18.8108 11.7658 18.7774 11.7134 18.7347 11.669C18.6921 11.6246 18.6411 11.5891 18.5846 11.5646C18.5282 11.54 18.4674 11.5268 18.4059 11.5259Z" fill="#20ACF5"/>
<path d="M13.1109 11.7396C13.1809 11.6697 13.2758 11.6304 13.3747 11.6304C13.4736 11.6304 13.5684 11.6697 13.6384 11.7396C13.7083 11.8096 13.7476 11.9044 13.7476 12.0033C13.7474 12.0545 13.7373 12.1052 13.7178 12.1525C13.6984 12.1995 13.6706 12.2424 13.6357 12.2793C13.5659 12.3488 13.4713 12.3878 13.3728 12.3878C13.2743 12.3878 13.1797 12.3488 13.1099 12.2793C13.0761 12.2423 13.0495 12.1993 13.0315 12.1525C13.012 12.1052 13.0019 12.0545 13.0017 12.0033C13.0017 11.9044 13.041 11.8096 13.1109 11.7396Z" fill="#20ACF5"/>
<path d="M16.1196 11.6303C16.053 11.5804 15.9716 11.5541 15.8884 11.5557H15.8063C15.7075 11.5793 15.6202 11.6373 15.5601 11.7193C15.5 11.8012 15.4709 11.9019 15.4781 12.0033C15.4783 12.0605 15.4884 12.1173 15.508 12.1711C15.5289 12.2212 15.5593 12.2668 15.5975 12.3054C15.6535 12.3653 15.7263 12.4069 15.8063 12.4247H15.8884C15.9716 12.4264 16.053 12.4001 16.1196 12.3501C16.1432 12.336 16.1646 12.3184 16.183 12.2979C16.221 12.2599 16.2502 12.2141 16.2688 12.1637C16.3066 12.0726 16.3124 11.9714 16.2853 11.8766C16.2582 11.7817 16.1998 11.6989 16.1196 11.6415V11.6303Z" fill="#20ACF5"/>
<path d="M20.8189 11.4741C20.8536 11.4702 20.8886 11.4702 20.9233 11.4741C21.01 11.469 21.0966 11.4867 21.1744 11.5252C21.2522 11.5638 21.3186 11.622 21.3671 11.6941C21.424 11.7818 21.4538 11.8843 21.4529 11.9888C21.4542 12.0589 21.4415 12.1287 21.4156 12.1939C21.4017 12.2249 21.3855 12.2548 21.3671 12.2834C21.3503 12.3117 21.3302 12.338 21.3074 12.3617C21.2596 12.4121 21.2016 12.4517 21.1373 12.4781C21.073 12.5045 21.0039 12.5169 20.9345 12.5146C20.8998 12.5185 20.8648 12.5185 20.8301 12.5146C20.7321 12.494 20.6425 12.4447 20.5727 12.3729C20.5499 12.3492 20.5299 12.3229 20.513 12.2946C20.4947 12.266 20.4785 12.2361 20.4646 12.2051C20.4524 12.1735 20.4424 12.1411 20.4347 12.1081C20.4329 12.0721 20.4329 12.036 20.4347 12C20.4327 11.9652 20.4327 11.9303 20.4347 11.8955C20.4484 11.8277 20.475 11.7631 20.513 11.7053L20.5615 11.6158C20.6313 11.544 20.7209 11.4947 20.8189 11.4741Z" fill="#20ACF5"/>
<path d="M23.4371 11.418C23.3616 11.4194 23.2872 11.4357 23.2181 11.4659C23.149 11.4962 23.0865 11.5397 23.0342 11.5941C22.9819 11.6485 22.9408 11.7126 22.9133 11.7829C22.8858 11.8531 22.8724 11.9281 22.8739 12.0035C22.875 12.0814 22.8902 12.1585 22.9186 12.231C22.9472 12.3006 22.989 12.3639 23.0417 12.4175C23.0927 12.4712 23.154 12.514 23.222 12.5435C23.2899 12.5729 23.363 12.5884 23.4371 12.5891C23.5116 12.5883 23.5853 12.5728 23.6538 12.5433C23.7223 12.5139 23.7843 12.4711 23.8361 12.4175C23.8865 12.3628 23.9269 12.2997 23.9555 12.231C23.9916 12.1438 24.0061 12.0492 23.9978 11.9551C23.9895 11.8611 23.9585 11.7705 23.9076 11.691C23.8567 11.6115 23.7873 11.5455 23.7054 11.4986C23.6234 11.4517 23.5314 11.4253 23.4371 11.4217V11.418Z" fill="#20ACF5"/>
<path d="M4.68156 10.344C4.59153 10.2498 4.46804 10.1948 4.33779 10.1909C4.20688 10.1939 4.08244 10.2484 3.99161 10.3428C3.90079 10.4371 3.85094 10.5635 3.85294 10.6944C3.84705 10.7614 3.85516 10.8289 3.87675 10.8926C3.89835 10.9563 3.93296 11.0148 3.97838 11.0644C4.0238 11.114 4.07905 11.1536 4.1406 11.1807C4.20215 11.2078 4.26867 11.2217 4.33592 11.2217C4.40318 11.2217 4.46969 11.2078 4.53125 11.1807C4.5928 11.1536 4.64804 11.114 4.69347 11.0644C4.73889 11.0148 4.7735 10.9563 4.79509 10.8926C4.81669 10.8289 4.8248 10.7614 4.81891 10.6944C4.82092 10.5641 4.77159 10.4383 4.68156 10.344Z" fill="#20ACF5"/>
<path d="M6.85149 10.2432C6.90978 10.2441 6.9673 10.2566 7.02078 10.2798C7.07425 10.303 7.12263 10.3365 7.16316 10.3784C7.20368 10.4203 7.23555 10.4698 7.25694 10.524C7.27834 10.5783 7.28884 10.6362 7.28786 10.6944C7.29346 10.7549 7.28639 10.8158 7.26711 10.8734C7.24782 10.9309 7.21674 10.9838 7.17585 11.0287C7.13495 11.0736 7.08515 11.1094 7.02962 11.1339C6.97409 11.1584 6.91406 11.1711 6.85336 11.1711C6.79265 11.1711 6.73262 11.1584 6.67709 11.1339C6.62156 11.1094 6.57176 11.0736 6.53087 11.0287C6.48997 10.9838 6.45889 10.9309 6.4396 10.8734C6.42032 10.8158 6.41325 10.7549 6.41886 10.6944C6.41685 10.5774 6.4612 10.4642 6.54224 10.3797C6.62327 10.2952 6.73443 10.2461 6.85149 10.2432Z" fill="#20ACF5"/>
<path d="M2.02786 10.1844C1.96235 10.1557 1.89183 10.1401 1.82032 10.1387C1.7488 10.1401 1.67828 10.1557 1.61277 10.1844C1.54726 10.2131 1.48805 10.2544 1.43852 10.306C1.389 10.3576 1.35012 10.4185 1.32412 10.4851C1.29812 10.5518 1.2855 10.6229 1.28698 10.6944C1.28698 10.8358 1.34317 10.9715 1.44319 11.0715C1.54321 11.1715 1.67887 11.2277 1.82032 11.2277C1.96176 11.2277 2.09742 11.1715 2.19744 11.0715C2.29746 10.9715 2.35365 10.8358 2.35365 10.6944C2.35513 10.6229 2.34251 10.5518 2.31651 10.4851C2.29051 10.4185 2.25164 10.3576 2.20211 10.306C2.15258 10.2544 2.09337 10.2131 2.02786 10.1844Z" fill="#20ACF5"/>
<path d="M9.36906 10.2842C9.42179 10.2851 9.47381 10.2966 9.5221 10.3177C9.5704 10.3389 9.61401 10.3695 9.65043 10.4076C9.68684 10.4458 9.71534 10.4908 9.73426 10.54C9.75318 10.5892 9.76216 10.6417 9.76067 10.6944C9.76067 10.7983 9.71941 10.8979 9.64597 10.9713C9.57253 11.0448 9.47292 11.086 9.36906 11.086C9.2652 11.086 9.16559 11.0448 9.09215 10.9713C9.01871 10.8979 8.97745 10.7983 8.97745 10.6944C8.97597 10.6417 8.98494 10.5892 9.00387 10.54C9.02279 10.4908 9.05128 10.4458 9.0877 10.4076C9.12411 10.3695 9.16773 10.3389 9.21602 10.3177C9.26432 10.2966 9.31633 10.2851 9.36906 10.2842Z" fill="#20ACF5"/>
<path d="M2.21589 12.9134C2.11097 12.8085 1.96868 12.7495 1.8203 12.7495C1.67193 12.7495 1.52964 12.8085 1.42472 12.9134C1.31981 13.0183 1.26086 13.1606 1.26086 13.309C1.26086 13.4573 1.31981 13.5996 1.42472 13.7045C1.52964 13.8095 1.67193 13.8684 1.8203 13.8684C1.96868 13.8684 2.11097 13.8095 2.21589 13.7045C2.3208 13.5996 2.37975 13.4573 2.37975 13.309C2.37975 13.1606 2.3208 13.0183 2.21589 12.9134Z" fill="#20ACF5"/>
<path d="M9.36906 12.8984C9.4509 12.8946 9.53197 12.9155 9.60184 12.9583C9.67172 13.001 9.72719 13.0637 9.76112 13.1383C9.79505 13.2128 9.80588 13.2958 9.79222 13.3766C9.77856 13.4574 9.74103 13.5322 9.68447 13.5915C9.62791 13.6507 9.5549 13.6917 9.47485 13.7091C9.39481 13.7265 9.31138 13.7195 9.23533 13.6891C9.15927 13.6587 9.09406 13.6062 9.0481 13.5384C9.00214 13.4706 8.97754 13.3905 8.97745 13.3086C8.97597 13.2559 8.98494 13.2034 9.00387 13.1542C9.02279 13.105 9.05128 13.06 9.0877 13.0218C9.12411 12.9837 9.16773 12.9531 9.21602 12.9319C9.26432 12.9107 9.31633 12.8993 9.36906 12.8984Z" fill="#20ACF5"/>
<path d="M12.2304 10.4141C12.1609 10.3376 12.0643 10.2911 11.9611 10.2843C11.9068 10.2828 11.8527 10.2924 11.8023 10.3124C11.7518 10.3325 11.706 10.3627 11.6675 10.4011C11.6291 10.4395 11.599 10.4853 11.5789 10.5358C11.5588 10.5863 11.5493 10.6403 11.5508 10.6946C11.5508 10.7985 11.5921 10.8981 11.6655 10.9715C11.739 11.0449 11.8386 11.0862 11.9424 11.0862C12.0463 11.0862 12.1459 11.0449 12.2193 10.9715C12.2928 10.8981 12.334 10.7985 12.334 10.6946C12.3372 10.5912 12.3 10.4907 12.2304 10.4141Z" fill="#20ACF5"/>
<path d="M11.9611 12.8986C12.0427 12.8964 12.1231 12.9185 12.192 12.9622C12.2609 13.0059 12.3153 13.0692 12.348 13.1439C12.3808 13.2187 12.3905 13.3015 12.376 13.3818C12.3614 13.4621 12.3233 13.5363 12.2664 13.5948C12.2095 13.6533 12.1364 13.6935 12.0565 13.7102C11.9767 13.727 11.8936 13.7195 11.818 13.6888C11.7424 13.6581 11.6776 13.6056 11.632 13.5379C11.5864 13.4702 11.5621 13.3905 11.562 13.3088C11.5606 13.2555 11.5698 13.2024 11.5892 13.1527C11.6085 13.103 11.6377 13.0577 11.6749 13.0194C11.7121 12.9812 11.7566 12.9508 11.8058 12.93C11.8549 12.9093 11.9078 12.8986 11.9611 12.8986Z" fill="#20ACF5"/>
<path d="M4.62238 12.8812C4.53717 12.8281 4.43805 12.8018 4.33776 12.8055C4.27279 12.8065 4.20865 12.8203 4.14904 12.8462C4.08944 12.8721 4.03554 12.9095 3.99047 12.9563C3.9454 13.0031 3.91004 13.0584 3.88643 13.1189C3.86282 13.1794 3.85143 13.2441 3.85291 13.309C3.85298 13.4094 3.88304 13.5074 3.93924 13.5906C3.99543 13.6737 4.07519 13.7382 4.16828 13.7757C4.26138 13.8132 4.36355 13.822 4.4617 13.801C4.55984 13.78 4.64947 13.7302 4.71909 13.6579C4.7887 13.5856 4.83512 13.4942 4.85239 13.3953C4.86966 13.2964 4.85699 13.1947 4.81601 13.1031C4.77503 13.0115 4.7076 12.9342 4.62238 12.8812Z" fill="#20ACF5"/>
<path d="M6.85152 12.8541C6.94234 12.8496 7.03241 12.8724 7.11012 12.9196C7.18783 12.9668 7.24962 13.0362 7.28751 13.1189C7.32541 13.2015 7.33767 13.2936 7.32272 13.3833C7.30778 13.473 7.2663 13.5562 7.20365 13.6221C7.141 13.688 7.06004 13.7336 6.97122 13.753C6.8824 13.7725 6.7898 13.7648 6.70534 13.7312C6.62089 13.6975 6.54846 13.6393 6.49741 13.564C6.44635 13.4888 6.419 13.4 6.41889 13.3091C6.41687 13.1916 6.4611 13.0781 6.54203 12.993C6.62297 12.9079 6.73413 12.858 6.85152 12.8541Z" fill="#20ACF5"/>
<path d="M5.77335 11.5646C5.71691 11.54 5.65616 11.5268 5.59462 11.5259C5.53307 11.5268 5.47233 11.54 5.41589 11.5646C5.35945 11.5891 5.30844 11.6246 5.26579 11.669C5.22314 11.7134 5.1897 11.7658 5.16741 11.8231C5.14511 11.8805 5.13439 11.9417 5.13588 12.0033C5.1367 12.0672 5.14935 12.1304 5.17317 12.1897C5.20737 12.2741 5.26549 12.3466 5.34038 12.3983C5.41527 12.4499 5.50365 12.4786 5.59462 12.4807C5.6554 12.4797 5.71538 12.4667 5.77108 12.4424C5.82678 12.418 5.8771 12.3829 5.91909 12.3389C5.96108 12.2962 5.99405 12.2455 6.01606 12.1897C6.03989 12.1304 6.05253 12.0672 6.05336 12.0033C6.05484 11.9417 6.04413 11.8805 6.02183 11.8231C5.99954 11.7658 5.9661 11.7134 5.92345 11.669C5.8808 11.6246 5.82978 11.5891 5.77335 11.5646Z" fill="#20ACF5"/>
<path d="M10.6259 11.6304C10.7248 11.6304 10.8197 11.6697 10.8896 11.7396C10.9596 11.8096 10.9989 11.9044 10.9989 12.0033C10.9987 12.0545 10.9885 12.1052 10.969 12.1525C10.951 12.1993 10.9245 12.2423 10.8907 12.2793C10.8562 12.3146 10.815 12.3426 10.7695 12.3618C10.724 12.381 10.6752 12.391 10.6259 12.3912C10.5765 12.391 10.5277 12.381 10.4823 12.3618C10.4368 12.3426 10.3956 12.3146 10.3611 12.2793C10.3273 12.2423 10.3008 12.1993 10.2828 12.1525C10.2633 12.1052 10.2531 12.0545 10.2529 12.0033C10.2529 11.9044 10.2922 11.8096 10.3622 11.7396C10.4321 11.6697 10.527 11.6304 10.6259 11.6304Z" fill="#20ACF5"/>
<path d="M8.10839 11.5562C8.02642 11.5554 7.94646 11.5816 7.88089 11.6308C7.82081 11.6719 7.77241 11.7278 7.74038 11.7932C7.70835 11.8585 7.6938 11.9311 7.69814 12.0037C7.7035 12.0606 7.71864 12.1161 7.74289 12.1678C7.7638 12.2179 7.7942 12.2635 7.8324 12.3021C7.84651 12.3202 7.8628 12.3365 7.88089 12.3506C7.94646 12.3998 8.02642 12.426 8.10839 12.4252H8.19417C8.26023 12.4091 8.3216 12.3777 8.3734 12.3337C8.42521 12.2897 8.466 12.2341 8.49254 12.1716C8.5121 12.1178 8.52219 12.061 8.52238 12.0037C8.52958 11.9023 8.50053 11.8017 8.44042 11.7197C8.38031 11.6377 8.29304 11.5798 8.19417 11.5562H8.10839Z" fill="#20ACF5"/>
<path d="M3.07717 11.4741C3.11188 11.4702 3.1469 11.4702 3.1816 11.4741C3.28069 11.4979 3.36956 11.5528 3.43521 11.6307C3.45856 11.655 3.47977 11.6812 3.49862 11.709C3.53702 11.7663 3.56248 11.8312 3.57321 11.8993C3.57706 11.934 3.57706 11.969 3.57321 12.0037C3.57687 12.0396 3.57687 12.0759 3.57321 12.1118C3.56847 12.1451 3.55971 12.1777 3.5471 12.2088C3.53319 12.2398 3.51698 12.2697 3.49862 12.2983C3.48169 12.3276 3.4603 12.354 3.43521 12.3766C3.36745 12.4491 3.27881 12.4986 3.1816 12.5184C3.1469 12.5222 3.11188 12.5222 3.07717 12.5184C3.00774 12.5206 2.93861 12.5082 2.87432 12.4818C2.81004 12.4555 2.75207 12.4158 2.70421 12.3655C2.68027 12.3427 2.66012 12.3163 2.64454 12.2871C2.63047 12.261 2.61922 12.2335 2.61097 12.2051C2.58428 12.1413 2.57034 12.0728 2.56995 12.0037C2.57038 11.8988 2.6015 11.7964 2.65946 11.709C2.70382 11.638 2.76532 11.5793 2.83831 11.5382C2.9113 11.4972 2.99344 11.4751 3.07717 11.4741Z" fill="#20ACF5"/>
<path d="M0.83024 11.4961C0.748787 11.449 0.657174 11.4222 0.563163 11.418C0.468831 11.4216 0.376775 11.448 0.29484 11.4949C0.212906 11.5418 0.143522 11.6078 0.0926037 11.6872C0.0416849 11.7667 0.0107404 11.8574 0.00240775 11.9514C-0.00592494 12.0454 0.00860117 12.1401 0.044748 12.2273C0.0705314 12.2974 0.111256 12.361 0.164095 12.4138C0.215685 12.4677 0.277609 12.5107 0.346172 12.5402C0.414735 12.5696 0.488533 12.585 0.563163 12.5853C0.637197 12.5847 0.71035 12.5692 0.778267 12.5397C0.846184 12.5103 0.907478 12.4674 0.958501 12.4138C1.01134 12.361 1.05206 12.2974 1.07785 12.2273C1.11391 12.1404 1.12848 12.046 1.12034 11.9523C1.1122 11.8585 1.08159 11.7681 1.03109 11.6887C0.980588 11.6093 0.911694 11.5432 0.83024 11.4961Z" fill="#20ACF5"/>
</g>
<defs>
<clipPath id="clip0_152_4610">
<rect width="24" height="24" fill="white"/>
</clipPath>
</defs>
</svg>
