<svg width="24" height="4" viewBox="0 0 24 4" fill="none" xmlns="http://www.w3.org/2000/svg">
<g id="minus" clip-path="url(#clip0_152_4610)">
<g id="minus_2">
<path d="M22.1802 0.138685C22.1074 0.138172 22.0353 0.15225 21.9681 0.180089C21.9008 0.207929 21.8398 0.248963 21.7887 0.300769C21.7376 0.352575 21.6974 0.4141 21.6705 0.481708C21.6436 0.549317 21.6305 0.621638 21.632 0.694396C21.632 0.835845 21.6881 0.971501 21.7882 1.07152C21.8882 1.17154 22.0238 1.22773 22.1653 1.22773C22.3067 1.22773 22.4424 1.17154 22.5424 1.07152C22.6424 0.971501 22.6986 0.835845 22.6986 0.694396C22.7017 0.552469 22.6492 0.41495 22.5524 0.311145C22.4556 0.207341 22.322 0.145458 22.1802 0.138685Z" fill="#20ACF5"/>
<path d="M19.3189 0.344041C19.409 0.249826 19.5324 0.194822 19.6627 0.190918C19.7274 0.192371 19.7911 0.206548 19.8503 0.232641C19.9094 0.258733 19.9629 0.296229 20.0076 0.342987C20.0522 0.389744 20.0873 0.444847 20.1107 0.505146C20.134 0.565445 20.1453 0.629759 20.1438 0.694414C20.1438 0.822015 20.0931 0.94439 20.0029 1.03462C19.9127 1.12484 19.7903 1.17553 19.6627 1.17553C19.5351 1.17553 19.4127 1.12484 19.3225 1.03462C19.2323 0.94439 19.1816 0.822015 19.1816 0.694414C19.1796 0.564116 19.2289 0.438257 19.3189 0.344041Z" fill="#20ACF5"/>
<path d="M16.9872 0.279786C17.0407 0.25658 17.0982 0.244135 17.1565 0.243164C17.2736 0.246099 17.3847 0.295177 17.4657 0.379707C17.5468 0.464236 17.5911 0.577365 17.5891 0.694446C17.5947 0.754888 17.5877 0.815835 17.5684 0.873392C17.5491 0.930948 17.518 0.983847 17.4771 1.02871C17.4362 1.07357 17.3864 1.1094 17.3309 1.13392C17.2754 1.15844 17.2153 1.17111 17.1546 1.17111C17.0939 1.17111 17.0339 1.15844 16.9784 1.13392C16.9228 1.1094 16.873 1.07357 16.8321 1.02871C16.7912 0.983847 16.7602 0.930948 16.7409 0.873392C16.7216 0.815835 16.7145 0.754888 16.7201 0.694446C16.7191 0.63616 16.7296 0.578251 16.751 0.524025C16.7724 0.4698 16.8043 0.42032 16.8448 0.378413C16.8853 0.336506 16.9337 0.302992 16.9872 0.279786Z" fill="#20ACF5"/>
<path d="M14.3621 0.414124C14.4317 0.337591 14.5282 0.291061 14.6314 0.284341C14.6857 0.282796 14.7398 0.292352 14.7903 0.312422C14.8407 0.332493 14.8866 0.362656 14.925 0.401064C14.9634 0.439472 14.9935 0.485317 15.0136 0.53579C15.0337 0.586263 15.0432 0.640302 15.0417 0.694598C15.0417 0.798459 15.0004 0.898066 14.927 0.971506C14.8536 1.04495 14.754 1.08621 14.6501 1.08621C14.5462 1.08621 14.4466 1.04495 14.3732 0.971506C14.2997 0.898066 14.2585 0.798459 14.2585 0.694598C14.2554 0.591213 14.2925 0.490657 14.3621 0.414124Z" fill="#20ACF5"/>
<path d="M22.1802 2.74947C22.0697 2.74502 21.9602 2.77369 21.8661 2.83182C21.7719 2.88994 21.6972 2.97487 21.6516 3.07572C21.6059 3.17657 21.5915 3.28874 21.61 3.39786C21.6286 3.50698 21.6793 3.60807 21.7557 3.68818C21.832 3.7683 21.9306 3.82378 22.0387 3.84752C22.1468 3.87125 22.2595 3.86217 22.3625 3.82142C22.4654 3.78067 22.5538 3.71013 22.6163 3.61882C22.6789 3.52751 22.7127 3.4196 22.7136 3.30891C22.7156 3.23709 22.7033 3.16559 22.6775 3.09852C22.6518 3.03146 22.613 2.97016 22.5634 2.91816C22.5138 2.86615 22.4544 2.82447 22.3887 2.79552C22.3229 2.76657 22.2521 2.75092 22.1802 2.74947Z" fill="#20ACF5"/>
<path d="M14.3988 2.95827C14.4686 2.91551 14.5497 2.89465 14.6315 2.89837C14.6843 2.89934 14.7363 2.91075 14.7846 2.93194C14.8329 2.95313 14.8765 2.98368 14.9129 3.02183C14.9493 3.05998 14.9778 3.10497 14.9967 3.15419C15.0157 3.20342 15.0246 3.25591 15.0231 3.30863C15.0231 3.39055 14.9985 3.47056 14.9525 3.53837C14.9065 3.60618 14.8413 3.65868 14.7653 3.68911C14.6892 3.71954 14.6058 3.7265 14.5257 3.7091C14.4457 3.6917 14.3727 3.65073 14.3161 3.59148C14.2596 3.53222 14.222 3.45739 14.2084 3.37662C14.1947 3.29585 14.2056 3.21284 14.2395 3.13828C14.2734 3.06372 14.3289 3.00102 14.3988 2.95827Z" fill="#20ACF5"/>
<path d="M19.6628 2.80537C19.5623 2.80015 19.4625 2.82518 19.3763 2.87724C19.2901 2.92929 19.2216 3.00598 19.1794 3.0974C19.1373 3.18882 19.1235 3.29078 19.1399 3.3901C19.1563 3.48943 19.202 3.58156 19.2713 3.65461C19.3406 3.72766 19.4301 3.77827 19.5284 3.79991C19.6268 3.82155 19.7293 3.81322 19.8228 3.776C19.9164 3.73878 19.9966 3.67438 20.0532 3.59111C20.1097 3.50784 20.14 3.40953 20.1402 3.30886C20.1432 3.17891 20.0947 3.05305 20.0052 2.95872C19.9158 2.8644 19.7927 2.80927 19.6628 2.80537Z" fill="#20ACF5"/>
<path d="M16.8961 2.91577C16.9747 2.86954 17.0655 2.84803 17.1565 2.85401C17.2726 2.8598 17.3818 2.91052 17.4612 2.99544C17.5405 3.08036 17.5837 3.19281 17.5817 3.30902C17.5815 3.40024 17.5538 3.4893 17.5024 3.56463C17.451 3.63997 17.3781 3.6981 17.2932 3.73148C17.2083 3.76487 17.1153 3.77197 17.0263 3.75185C16.9373 3.73174 16.8565 3.68535 16.7942 3.6187C16.7319 3.55204 16.6911 3.46821 16.6771 3.37807C16.663 3.28794 16.6764 3.19566 16.7154 3.11322C16.7545 3.03078 16.8174 2.96199 16.8961 2.91577Z" fill="#20ACF5"/>
<path d="M18.4059 1.52588C18.3444 1.52685 18.2836 1.53999 18.2272 1.56456C18.1707 1.58912 18.1197 1.62462 18.0771 1.669C18.0344 1.71338 18.001 1.76577 17.9787 1.82314C17.9564 1.88051 17.9457 1.94173 17.9472 2.00327C17.948 2.0672 17.9606 2.13042 17.9845 2.18975C18.0186 2.27408 18.0768 2.34656 18.1517 2.39825C18.2265 2.44994 18.3149 2.47859 18.4059 2.48066C18.4667 2.47971 18.5267 2.46669 18.5824 2.44236C18.6381 2.41803 18.6884 2.38287 18.7304 2.33893C18.7724 2.2962 18.8053 2.24547 18.8273 2.18975C18.8512 2.13042 18.8638 2.0672 18.8646 2.00327C18.8661 1.94173 18.8554 1.88051 18.8331 1.82314C18.8108 1.76577 18.7774 1.71338 18.7347 1.669C18.6921 1.62462 18.6411 1.58912 18.5846 1.56456C18.5282 1.53999 18.4674 1.52685 18.4059 1.52588Z" fill="#20ACF5"/>
<path d="M13.1109 1.73961C13.1809 1.66967 13.2758 1.63037 13.3747 1.63037C13.4736 1.63037 13.5684 1.66967 13.6384 1.73961C13.7083 1.80955 13.7476 1.90442 13.7476 2.00333C13.7474 2.05452 13.7373 2.10519 13.7178 2.15252C13.6984 2.19946 13.6706 2.24244 13.6357 2.27932C13.5659 2.34879 13.4713 2.38778 13.3728 2.38778C13.2743 2.38778 13.1797 2.34879 13.1099 2.27932C13.0761 2.24229 13.0495 2.19929 13.0315 2.15252C13.012 2.10519 13.0019 2.05452 13.0017 2.00333C13.0017 1.90442 13.041 1.80955 13.1109 1.73961Z" fill="#20ACF5"/>
<path d="M16.1196 1.63033C16.053 1.58035 15.9716 1.55409 15.8884 1.55574H15.8063C15.7075 1.57935 15.6202 1.6373 15.5601 1.71927C15.5 1.80124 15.4709 1.9019 15.4781 2.00329C15.4783 2.06054 15.4884 2.11732 15.508 2.17112C15.5289 2.22122 15.5593 2.26682 15.5975 2.30539C15.6535 2.36533 15.7263 2.40693 15.8063 2.42473H15.8884C15.9716 2.42638 16.053 2.40012 16.1196 2.35014C16.1432 2.33595 16.1646 2.31836 16.183 2.29793C16.221 2.25987 16.2502 2.21407 16.2688 2.16366C16.3066 2.07258 16.3124 1.97138 16.2853 1.87656C16.2582 1.78174 16.1998 1.69889 16.1196 1.64152V1.63033Z" fill="#20ACF5"/>
<path d="M20.8189 1.47408C20.8536 1.47023 20.8886 1.47023 20.9233 1.47408C21.01 1.46902 21.0966 1.48665 21.1744 1.52524C21.2522 1.56383 21.3186 1.62204 21.3671 1.69412C21.424 1.78181 21.4538 1.88427 21.4529 1.98876C21.4542 2.05894 21.4415 2.12866 21.4156 2.19389C21.4017 2.22489 21.3855 2.25481 21.3671 2.2834C21.3503 2.3117 21.3302 2.33797 21.3074 2.36172C21.2596 2.41208 21.2016 2.45175 21.1373 2.4781C21.073 2.50446 21.0039 2.51691 20.9345 2.51464C20.8998 2.51849 20.8648 2.51849 20.8301 2.51464C20.7321 2.49403 20.6425 2.44469 20.5727 2.37291C20.5499 2.34916 20.5299 2.32288 20.513 2.29459C20.4947 2.266 20.4785 2.23608 20.4646 2.20508C20.4524 2.17347 20.4424 2.14107 20.4347 2.10811C20.4329 2.07208 20.4329 2.03598 20.4347 1.99995C20.4327 1.96517 20.4327 1.9303 20.4347 1.89552C20.4484 1.82769 20.475 1.76312 20.513 1.70531L20.5615 1.6158C20.6313 1.54403 20.7209 1.49469 20.8189 1.47408Z" fill="#20ACF5"/>
<path d="M23.4371 1.41797C23.3616 1.41942 23.2872 1.43573 23.2181 1.46594C23.149 1.49616 23.0865 1.5397 23.0342 1.59407C22.9819 1.64845 22.9408 1.7126 22.9133 1.78285C22.8858 1.8531 22.8724 1.92809 22.8739 2.00352C22.875 2.08142 22.8902 2.15849 22.9186 2.23102C22.9472 2.30055 22.989 2.36388 23.0417 2.4175C23.0927 2.47115 23.154 2.51399 23.222 2.54346C23.2899 2.57293 23.363 2.58844 23.4371 2.58906C23.5116 2.58831 23.5853 2.57276 23.6538 2.54331C23.7223 2.51386 23.7843 2.47109 23.8361 2.4175C23.8865 2.36278 23.9269 2.29967 23.9555 2.23102C23.9916 2.14382 24.0061 2.04916 23.9978 1.95513C23.9895 1.86109 23.9585 1.77047 23.9076 1.69098C23.8567 1.61149 23.7873 1.54548 23.7054 1.4986C23.6234 1.45171 23.5314 1.42533 23.4371 1.4217V1.41797Z" fill="#20ACF5"/>
<path d="M4.68156 0.344041C4.59153 0.249826 4.46804 0.194822 4.33779 0.190918C4.20688 0.193856 4.08244 0.248438 3.99161 0.342758C3.90079 0.437079 3.85094 0.563487 3.85294 0.694414C3.84705 0.761408 3.85516 0.828895 3.87675 0.892586C3.89835 0.956277 3.93296 1.01478 3.97838 1.06437C4.0238 1.11397 4.07905 1.15357 4.1406 1.18066C4.20215 1.20775 4.26867 1.22175 4.33592 1.22175C4.40318 1.22175 4.46969 1.20775 4.53125 1.18066C4.5928 1.15357 4.64804 1.11397 4.69347 1.06437C4.73889 1.01478 4.7735 0.956277 4.79509 0.892586C4.81669 0.828895 4.8248 0.761408 4.81891 0.694414C4.82092 0.564116 4.77159 0.438257 4.68156 0.344041Z" fill="#20ACF5"/>
<path d="M6.85149 0.243164C6.90978 0.244135 6.9673 0.25658 7.02078 0.279786C7.07425 0.302992 7.12263 0.336506 7.16316 0.378413C7.20368 0.42032 7.23555 0.4698 7.25694 0.524025C7.27834 0.578251 7.28884 0.63616 7.28786 0.694446C7.29346 0.754888 7.28639 0.815835 7.26711 0.873392C7.24782 0.930948 7.21674 0.983847 7.17585 1.02871C7.13495 1.07357 7.08515 1.1094 7.02962 1.13392C6.97409 1.15844 6.91406 1.17111 6.85336 1.17111C6.79265 1.17111 6.73262 1.15844 6.67709 1.13392C6.62156 1.1094 6.57176 1.07357 6.53087 1.02871C6.48997 0.983847 6.45889 0.930948 6.4396 0.873392C6.42032 0.815835 6.41325 0.754888 6.41886 0.694446C6.41685 0.577365 6.4612 0.464236 6.54224 0.379707C6.62327 0.295177 6.73443 0.246099 6.85149 0.243164Z" fill="#20ACF5"/>
<path d="M2.02786 0.184373C1.96235 0.155655 1.89183 0.140126 1.82032 0.138672C1.7488 0.140126 1.67828 0.155655 1.61277 0.184373C1.54726 0.21309 1.48805 0.254432 1.43852 0.306037C1.389 0.357643 1.35012 0.418501 1.32412 0.485134C1.29812 0.551768 1.2855 0.622871 1.28698 0.694383C1.28698 0.835832 1.34317 0.971487 1.44319 1.07151C1.54321 1.17153 1.67887 1.22772 1.82032 1.22772C1.96176 1.22772 2.09742 1.17153 2.19744 1.07151C2.29746 0.971487 2.35365 0.835832 2.35365 0.694383C2.35513 0.622871 2.34251 0.551768 2.31651 0.485134C2.29051 0.418501 2.25164 0.357643 2.20211 0.306037C2.15258 0.254432 2.09337 0.21309 2.02786 0.184373Z" fill="#20ACF5"/>
<path d="M9.36906 0.28418C9.42179 0.285144 9.47381 0.296552 9.5221 0.317742C9.5704 0.338932 9.61401 0.369485 9.65043 0.407634C9.68684 0.445783 9.71534 0.490772 9.73426 0.54C9.75318 0.589228 9.76216 0.641718 9.76067 0.694436C9.76067 0.798297 9.71941 0.897904 9.64597 0.971345C9.57253 1.04479 9.47292 1.08604 9.36906 1.08604C9.2652 1.08604 9.16559 1.04479 9.09215 0.971345C9.01871 0.897904 8.97745 0.798297 8.97745 0.694436C8.97597 0.641718 8.98494 0.589228 9.00387 0.54C9.02279 0.490772 9.05128 0.445783 9.0877 0.407634C9.12411 0.369485 9.16773 0.338932 9.21602 0.317742C9.26432 0.296552 9.31633 0.285144 9.36906 0.28418Z" fill="#20ACF5"/>
<path d="M2.21589 2.91337C2.11097 2.80845 1.96868 2.74951 1.8203 2.74951C1.67193 2.74951 1.52964 2.80845 1.42472 2.91337C1.31981 3.01828 1.26086 3.16058 1.26086 3.30895C1.26086 3.45733 1.31981 3.59962 1.42472 3.70454C1.52964 3.80945 1.67193 3.86839 1.8203 3.86839C1.96868 3.86839 2.11097 3.80945 2.21589 3.70454C2.3208 3.59962 2.37975 3.45733 2.37975 3.30895C2.37975 3.16058 2.3208 3.01828 2.21589 2.91337Z" fill="#20ACF5"/>
<path d="M9.36906 2.89837C9.4509 2.89465 9.53197 2.91551 9.60184 2.95827C9.67172 3.00102 9.72719 3.06372 9.76112 3.13828C9.79505 3.21284 9.80588 3.29585 9.79222 3.37662C9.77856 3.45739 9.74103 3.53222 9.68447 3.59148C9.62791 3.65073 9.5549 3.6917 9.47485 3.7091C9.39481 3.7265 9.31138 3.71954 9.23533 3.68911C9.15927 3.65868 9.09406 3.60618 9.0481 3.53837C9.00214 3.47056 8.97754 3.39055 8.97745 3.30863C8.97597 3.25591 8.98494 3.20342 9.00387 3.15419C9.02279 3.10497 9.05128 3.05998 9.0877 3.02183C9.12411 2.98368 9.16773 2.95313 9.21602 2.93194C9.26432 2.91075 9.31633 2.89934 9.36906 2.89837Z" fill="#20ACF5"/>
<path d="M12.2304 0.414124C12.1609 0.337591 12.0643 0.291061 11.9611 0.284341C11.9068 0.282796 11.8527 0.292352 11.8023 0.312422C11.7518 0.332493 11.706 0.362656 11.6675 0.401064C11.6291 0.439472 11.599 0.485317 11.5789 0.53579C11.5588 0.586263 11.5493 0.640302 11.5508 0.694598C11.5508 0.798459 11.5921 0.898066 11.6655 0.971506C11.739 1.04495 11.8386 1.08621 11.9424 1.08621C12.0463 1.08621 12.1459 1.04495 12.2193 0.971506C12.2928 0.898066 12.334 0.798459 12.334 0.694598C12.3372 0.591213 12.3 0.490657 12.2304 0.414124Z" fill="#20ACF5"/>
<path d="M11.9611 2.89859C12.0427 2.89636 12.1231 2.91852 12.192 2.96223C12.2609 3.00593 12.3153 3.0692 12.348 3.14394C12.3808 3.21868 12.3905 3.3015 12.376 3.3818C12.3614 3.46211 12.3233 3.53625 12.2664 3.59475C12.2095 3.65325 12.1364 3.69345 12.0565 3.71021C11.9767 3.72697 11.8936 3.71952 11.818 3.68883C11.7424 3.65813 11.6776 3.60558 11.632 3.53789C11.5864 3.47021 11.5621 3.39046 11.562 3.30885C11.5606 3.25551 11.5698 3.20241 11.5892 3.15269C11.6085 3.10298 11.6377 3.05765 11.6749 3.0194C11.7121 2.98115 11.7566 2.95075 11.8058 2.93C11.8549 2.90925 11.9078 2.89857 11.9611 2.89859Z" fill="#20ACF5"/>
<path d="M4.62238 2.88116C4.53717 2.82814 4.43805 2.8018 4.33776 2.80552C4.27279 2.80649 4.20865 2.82031 4.14904 2.84619C4.08944 2.87206 4.03554 2.90948 3.99047 2.95629C3.9454 3.0031 3.91004 3.05836 3.88643 3.1189C3.86282 3.17944 3.85143 3.24405 3.85291 3.30902C3.85298 3.40938 3.88304 3.50743 3.93924 3.59059C3.99543 3.67374 4.07519 3.73821 4.16828 3.7757C4.26138 3.8132 4.36355 3.82202 4.4617 3.80104C4.55984 3.78005 4.64947 3.73021 4.71909 3.65792C4.7887 3.58563 4.83512 3.49418 4.85239 3.39531C4.86966 3.29645 4.85699 3.19468 4.81601 3.10307C4.77503 3.01145 4.7076 2.93418 4.62238 2.88116Z" fill="#20ACF5"/>
<path d="M6.85152 2.85407C6.94234 2.84959 7.03241 2.87243 7.11012 2.91963C7.18783 2.96684 7.24962 3.03624 7.28751 3.11889C7.32541 3.20154 7.33767 3.29364 7.32272 3.38333C7.30778 3.47302 7.2663 3.55617 7.20365 3.62206C7.141 3.68795 7.06004 3.73356 6.97122 3.75301C6.8824 3.77246 6.7898 3.76485 6.70534 3.73117C6.62089 3.69748 6.54846 3.63927 6.49741 3.56404C6.44635 3.48881 6.419 3.4 6.41889 3.30908C6.41687 3.19164 6.4611 3.0781 6.54203 2.99298C6.62297 2.90786 6.73413 2.85796 6.85152 2.85407Z" fill="#20ACF5"/>
<path d="M5.77335 1.56456C5.71691 1.53999 5.65616 1.52685 5.59462 1.52588C5.53307 1.52685 5.47233 1.53999 5.41589 1.56456C5.35945 1.58912 5.30844 1.62462 5.26579 1.669C5.22314 1.71338 5.1897 1.76577 5.16741 1.82314C5.14511 1.88051 5.13439 1.94173 5.13588 2.00327C5.1367 2.0672 5.14935 2.13042 5.17317 2.18975C5.20737 2.27408 5.26549 2.34656 5.34038 2.39825C5.41527 2.44994 5.50365 2.47859 5.59462 2.48066C5.6554 2.47971 5.71538 2.46669 5.77108 2.44236C5.82678 2.41803 5.8771 2.38287 5.91909 2.33893C5.96108 2.2962 5.99405 2.24547 6.01606 2.18975C6.03989 2.13042 6.05253 2.0672 6.05336 2.00327C6.05484 1.94173 6.04413 1.88051 6.02183 1.82314C5.99954 1.76577 5.9661 1.71338 5.92345 1.669C5.8808 1.62462 5.82978 1.58912 5.77335 1.56456Z" fill="#20ACF5"/>
<path d="M10.6259 1.63037C10.7248 1.63037 10.8197 1.66967 10.8896 1.73961C10.9596 1.80955 10.9989 1.90442 10.9989 2.00333C10.9987 2.05452 10.9885 2.10519 10.969 2.15252C10.951 2.19929 10.9245 2.24229 10.8907 2.27932C10.8562 2.31456 10.815 2.3426 10.7695 2.3618C10.724 2.38101 10.6752 2.39101 10.6259 2.39121C10.5765 2.39101 10.5277 2.38101 10.4823 2.3618C10.4368 2.3426 10.3956 2.31456 10.3611 2.27932C10.3273 2.24229 10.3008 2.19929 10.2828 2.15252C10.2633 2.10519 10.2531 2.05452 10.2529 2.00333C10.2529 1.90442 10.2922 1.80955 10.3622 1.73961C10.4321 1.66967 10.527 1.63037 10.6259 1.63037Z" fill="#20ACF5"/>
<path d="M8.10839 1.55617C8.02642 1.55536 7.94646 1.58157 7.88089 1.63076C7.82081 1.67186 7.77241 1.72781 7.74038 1.79317C7.70835 1.85853 7.6938 1.93107 7.69814 2.00372C7.7035 2.06059 7.71864 2.11611 7.74289 2.16783C7.7638 2.21793 7.7942 2.26352 7.8324 2.30209C7.84651 2.32018 7.8628 2.33646 7.88089 2.35058C7.94646 2.39977 8.02642 2.42598 8.10839 2.42517H8.19417C8.26023 2.40906 8.3216 2.37774 8.3734 2.33371C8.42521 2.28968 8.466 2.23415 8.49254 2.17156C8.5121 2.11775 8.52219 2.06097 8.52238 2.00372C8.52958 1.90233 8.50053 1.80168 8.44042 1.71971C8.38031 1.63774 8.29304 1.57978 8.19417 1.55617H8.10839Z" fill="#20ACF5"/>
<path d="M3.07717 1.47408C3.11188 1.47023 3.1469 1.47023 3.1816 1.47408C3.28069 1.49788 3.36956 1.55278 3.43521 1.63072C3.45856 1.65496 3.47977 1.68116 3.49862 1.70904C3.53702 1.76627 3.56248 1.83118 3.57321 1.89925C3.57706 1.93396 3.57706 1.96898 3.57321 2.00368C3.57687 2.03964 3.57687 2.07588 3.57321 2.11184C3.56847 2.1451 3.55971 2.17767 3.5471 2.20881C3.53319 2.23981 3.51698 2.26973 3.49862 2.29832C3.48169 2.32757 3.4603 2.354 3.43521 2.37664C3.36745 2.44908 3.27881 2.49862 3.1816 2.51837C3.1469 2.52222 3.11188 2.52222 3.07717 2.51837C3.00774 2.52064 2.93861 2.50819 2.87432 2.48183C2.81004 2.45548 2.75207 2.41581 2.70421 2.36545C2.68027 2.3427 2.66012 2.31626 2.64454 2.28713C2.63047 2.26105 2.61922 2.23354 2.61097 2.20508C2.58428 2.14127 2.57034 2.07285 2.56995 2.00368C2.57038 1.89884 2.6015 1.79641 2.65946 1.70904C2.70382 1.63802 2.76532 1.57928 2.83831 1.53822C2.9113 1.49717 2.99344 1.47511 3.07717 1.47408Z" fill="#20ACF5"/>
<path d="M0.83024 1.49611C0.748787 1.44898 0.657174 1.42218 0.563163 1.41797C0.468831 1.4216 0.376775 1.44798 0.29484 1.49487C0.212906 1.54175 0.143522 1.60776 0.0926037 1.68725C0.0416849 1.76674 0.0107404 1.85737 0.00240775 1.9514C-0.00592494 2.04543 0.00860117 2.14009 0.044748 2.22729C0.0705314 2.29737 0.111256 2.36101 0.164095 2.41377C0.215685 2.4677 0.277609 2.51069 0.346172 2.54016C0.414735 2.56964 0.488533 2.585 0.563163 2.58533C0.637197 2.58471 0.71035 2.5692 0.778267 2.53973C0.846184 2.51026 0.907478 2.46742 0.958501 2.41377C1.01134 2.36101 1.05206 2.29737 1.07785 2.22729C1.11391 2.14037 1.12848 2.04604 1.12034 1.95228C1.1122 1.85853 1.08159 1.76812 1.03109 1.68871C0.980588 1.6093 0.911694 1.54324 0.83024 1.49611Z" fill="#20ACF5"/>
</g>
</g>
<defs>
<clipPath id="clip0_152_4610">
<rect width="24" height="3.72214" fill="white" transform="translate(0 0.13916)"/>
</clipPath>
</defs>
</svg>
