<svg width="24" height="24" viewBox="0 0 24 24" fill="none" xmlns="http://www.w3.org/2000/svg">
<g clip-path="url(#clip0_152_3355)">
<path d="M11.4163 0.563281C11.4202 0.713977 11.4836 0.857003 11.5926 0.961124C11.7016 1.06524 11.8474 1.122 11.9981 1.11899C12.0762 1.12002 12.1537 1.10477 12.2256 1.07424C12.2957 1.04845 12.3593 1.00773 12.4121 0.954889C12.4657 0.903866 12.5085 0.842573 12.538 0.774655C12.5675 0.706738 12.583 0.633585 12.5836 0.559551C12.5828 0.485551 12.5672 0.412462 12.5377 0.344574C12.5083 0.276686 12.4655 0.215366 12.4121 0.164213C12.3593 0.111374 12.2957 0.0706493 12.2256 0.0448659C12.1537 0.0143287 12.0762 -0.000912727 11.9981 0.000110642C11.9228 -0.00137135 11.848 0.0120473 11.778 0.0395939C11.7079 0.0671405 11.644 0.108271 11.59 0.160616C11.5359 0.212962 11.4927 0.275488 11.4629 0.344595C11.4331 0.413702 11.4172 0.488024 11.4163 0.563281Z" fill="#20ACF5"/>
<path d="M10.1371 1.82018C10.1371 1.96856 10.196 2.11085 10.3009 2.21577C10.4059 2.32068 10.5482 2.37962 10.6965 2.37962C10.8449 2.37962 10.9872 2.32068 11.0921 2.21577C11.197 2.11085 11.256 1.96856 11.256 1.82018C11.256 1.67181 11.197 1.52951 11.0921 1.4246C10.9872 1.31968 10.8449 1.26074 10.6965 1.26074C10.5482 1.26074 10.4059 1.31968 10.3009 1.4246C10.196 1.52951 10.1371 1.67181 10.1371 1.82018Z" fill="#20ACF5"/>
<path d="M10.193 4.33744C10.19 4.43687 10.2168 4.53492 10.2698 4.61905C10.3229 4.70317 10.3999 4.76954 10.4909 4.80967C10.5819 4.84979 10.6829 4.86184 10.7808 4.84428C10.8787 4.82671 10.9691 4.78033 11.0405 4.71107C11.1119 4.6418 11.161 4.55281 11.1815 4.45548C11.2021 4.35815 11.1931 4.25691 11.1557 4.16472C11.1184 4.07252 11.0544 3.99357 10.9719 3.93797C10.8894 3.88237 10.7922 3.85264 10.6927 3.8526C10.6281 3.85161 10.5639 3.86337 10.5038 3.8872C10.4437 3.91103 10.3888 3.94648 10.3424 3.9915C10.296 4.03652 10.2589 4.09025 10.2333 4.14961C10.2076 4.20896 10.1939 4.27279 10.193 4.33744Z" fill="#20ACF5"/>
<path d="M22.1799 10.1372C22.0691 10.1327 21.9596 10.1615 21.8653 10.2198C21.771 10.278 21.6963 10.3632 21.6508 10.4643C21.6053 10.5653 21.5911 10.6777 21.6099 10.7869C21.6287 10.8962 21.6798 10.9972 21.7566 11.0772C21.8333 11.1572 21.9322 11.2124 22.0406 11.2357C22.149 11.259 22.2618 11.2494 22.3647 11.2081C22.4675 11.1668 22.5557 11.0956 22.6178 11.0038C22.6799 10.912 22.7131 10.8037 22.7132 10.6929C22.7147 10.6214 22.7021 10.5503 22.6761 10.4836C22.6501 10.417 22.6112 10.3561 22.5617 10.3045C22.5122 10.2529 22.453 10.2116 22.3874 10.1829C22.3219 10.1542 22.2514 10.1386 22.1799 10.1372Z" fill="#20ACF5"/>
<path d="M19.379 10.266C19.4641 10.2139 19.5628 10.1884 19.6625 10.1929C19.7918 10.1968 19.9143 10.2514 20.0037 10.3449C20.093 10.4384 20.1419 10.5633 20.1399 10.6927C20.1398 10.7924 20.1098 10.8899 20.0539 10.9725C19.9979 11.0551 19.9185 11.119 19.8259 11.1561C19.7332 11.1932 19.6316 11.2017 19.5341 11.1805C19.4366 11.1594 19.3477 11.1095 19.2788 11.0374C19.2098 10.9652 19.1641 10.8741 19.1474 10.7757C19.1307 10.6773 19.1439 10.5762 19.1852 10.4854C19.2264 10.3945 19.294 10.3181 19.379 10.266Z" fill="#20ACF5"/>
<path d="M16.9006 10.3084C16.9772 10.2611 17.0663 10.2379 17.1562 10.2416C17.2733 10.2445 17.3844 10.2936 17.4655 10.3781C17.5465 10.4627 17.5908 10.5758 17.5888 10.6929C17.5888 10.7829 17.5618 10.8709 17.5113 10.9454C17.4608 11.02 17.3892 11.0778 17.3057 11.1113C17.2221 11.1448 17.1304 11.1526 17.0424 11.1336C16.9544 11.1147 16.8741 11.0698 16.8118 11.0048C16.7495 10.9398 16.708 10.8577 16.6928 10.7689C16.6776 10.6802 16.6892 10.5889 16.7262 10.5069C16.7633 10.4248 16.824 10.3557 16.9006 10.3084Z" fill="#20ACF5"/>
<path d="M14.4015 10.3471C14.4703 10.3042 14.5503 10.2829 14.6313 10.2859C14.6837 10.2869 14.7354 10.2982 14.7834 10.3191C14.8315 10.3401 14.8749 10.3703 14.9113 10.4081C14.9477 10.4458 14.9762 10.4904 14.9954 10.5392C15.0145 10.5879 15.0239 10.64 15.0229 10.6924C15.0228 10.7735 14.9986 10.8526 14.9532 10.9198C14.9078 10.9869 14.8434 11.039 14.7683 11.0692C14.6931 11.0995 14.6106 11.1067 14.5314 11.0897C14.4522 11.0728 14.3798 11.0326 14.3236 10.9742C14.2674 10.9159 14.2299 10.842 14.2159 10.7622C14.202 10.6824 14.2122 10.6002 14.2452 10.5263C14.2783 10.4523 14.3327 10.3899 14.4015 10.3471Z" fill="#20ACF5"/>
<path d="M22.1799 12.7514C22.0691 12.747 21.9596 12.7757 21.8653 12.834C21.771 12.8923 21.6963 12.9774 21.6508 13.0785C21.6053 13.1796 21.5911 13.292 21.6099 13.4012C21.6287 13.5104 21.6798 13.6115 21.7566 13.6915C21.8333 13.7715 21.9322 13.8266 22.0406 13.85C22.149 13.8733 22.2618 13.8637 22.3647 13.8223C22.4675 13.781 22.5557 13.7099 22.6178 13.6181C22.6799 13.5263 22.7131 13.418 22.7132 13.3071C22.7147 13.2356 22.7021 13.1645 22.6761 13.0979C22.6501 13.0313 22.6112 12.9704 22.5617 12.9188C22.5122 12.8672 22.453 12.8258 22.3874 12.7971C22.3219 12.7684 22.2514 12.7529 22.1799 12.7514Z" fill="#20ACF5"/>
<path d="M14.4015 12.9618C14.4703 12.919 14.5503 12.8977 14.6313 12.9007C14.6837 12.9016 14.7354 12.9129 14.7834 12.9339C14.8315 12.9548 14.8749 12.9851 14.9113 13.0228C14.9477 13.0606 14.9762 13.1051 14.9954 13.1539C15.0145 13.2027 15.0239 13.2548 15.0229 13.3072C15.0228 13.3882 14.9986 13.4674 14.9532 13.5345C14.9078 13.6017 14.8434 13.6537 14.7683 13.684C14.6931 13.7143 14.6106 13.7214 14.5314 13.7045C14.4522 13.6875 14.3798 13.6473 14.3236 13.589C14.2674 13.5306 14.2299 13.4568 14.2159 13.377C14.202 13.2971 14.2122 13.215 14.2452 13.141C14.2783 13.067 14.3327 13.0046 14.4015 12.9618Z" fill="#20ACF5"/>
<path d="M19.6625 12.8071C19.5628 12.8027 19.4641 12.8281 19.379 12.8803C19.294 12.9324 19.2264 13.0088 19.1852 13.0996C19.1439 13.1905 19.1307 13.2916 19.1474 13.39C19.1641 13.4883 19.2098 13.5795 19.2788 13.6516C19.3477 13.7238 19.4366 13.7736 19.5341 13.7948C19.6316 13.816 19.7332 13.8075 19.8259 13.7704C19.9185 13.7333 19.9979 13.6693 20.0539 13.5867C20.1098 13.5041 20.1398 13.4067 20.1399 13.3069C20.1419 13.1776 20.093 13.0527 20.0037 12.9592C19.9143 12.8657 19.7918 12.811 19.6625 12.8071Z" fill="#20ACF5"/>
<path d="M16.9006 12.9227C16.9772 12.8754 17.0663 12.8521 17.1562 12.8559C17.2733 12.8588 17.3844 12.9079 17.4655 12.9924C17.5465 13.0769 17.5908 13.1901 17.5888 13.3071C17.5888 13.3972 17.5618 13.4851 17.5113 13.5597C17.4608 13.6342 17.3892 13.692 17.3057 13.7256C17.2221 13.7591 17.1304 13.7669 17.0424 13.7479C16.9544 13.7289 16.8741 13.684 16.8118 13.6191C16.7495 13.5541 16.708 13.4719 16.6928 13.3832C16.6776 13.2945 16.6892 13.2032 16.7262 13.1211C16.7633 13.0391 16.824 12.9699 16.9006 12.9227Z" fill="#20ACF5"/>
<path d="M18.4056 11.5244C18.3444 11.5254 18.2839 11.5384 18.2277 11.5627C18.1715 11.5871 18.1207 11.6222 18.0781 11.6662C18.0355 11.7102 18.002 11.7621 17.9795 11.8191C17.9569 11.876 17.9459 11.9368 17.9468 11.9981C17.9473 12.062 17.96 12.1253 17.9841 12.1846C18.0061 12.2403 18.0391 12.291 18.0811 12.3337C18.1223 12.3787 18.1724 12.4146 18.2283 12.439C18.2842 12.4634 18.3446 12.4758 18.4056 12.4755C18.4665 12.4754 18.5267 12.4627 18.5826 12.4384C18.6384 12.414 18.6886 12.3784 18.7301 12.3337C18.772 12.291 18.805 12.2403 18.827 12.1846C18.8512 12.1253 18.8638 12.062 18.8643 11.9981C18.8653 11.9368 18.8542 11.876 18.8317 11.8191C18.8092 11.7621 18.7757 11.7102 18.7331 11.6662C18.6905 11.6222 18.6396 11.5871 18.5834 11.5627C18.5272 11.5384 18.4668 11.5254 18.4056 11.5244Z" fill="#20ACF5"/>
<path d="M13.1106 11.723C13.1805 11.6531 13.2754 11.6138 13.3743 11.6138C13.4732 11.6138 13.5681 11.6531 13.638 11.723C13.708 11.793 13.7473 11.8878 13.7473 11.9867C13.7471 12.0391 13.737 12.091 13.7174 12.1396C13.6972 12.185 13.6694 12.2266 13.6354 12.2627C13.5655 12.3322 13.471 12.3712 13.3724 12.3712C13.2739 12.3712 13.1794 12.3322 13.1095 12.2627C13.0766 12.2265 13.0501 12.1848 13.0312 12.1396C13.0116 12.091 13.0015 12.0391 13.0013 11.9867C13.0013 11.8878 13.0406 11.793 13.1106 11.723Z" fill="#20ACF5"/>
<path d="M16.1193 11.6437C16.0517 11.5959 15.971 11.5698 15.8881 11.5691C15.8609 11.5655 15.8333 11.5655 15.806 11.5691C15.7117 11.5905 15.6276 11.6437 15.5678 11.7198C15.5081 11.7958 15.4763 11.8901 15.4778 11.9869C15.478 12.0441 15.4881 12.1009 15.5077 12.1547C15.5295 12.2054 15.5598 12.2521 15.5972 12.2927C15.6545 12.3502 15.7269 12.3903 15.806 12.4083C15.8333 12.412 15.8609 12.412 15.8881 12.4083C15.9706 12.4089 16.0513 12.3842 16.1193 12.3374L16.1827 12.2852C16.2202 12.2454 16.2494 12.1985 16.2685 12.1472C16.2911 12.0942 16.3025 12.037 16.3021 11.9794C16.2994 11.9132 16.2815 11.8485 16.2498 11.7903C16.2181 11.7321 16.1735 11.6819 16.1193 11.6437Z" fill="#20ACF5"/>
<path d="M20.8186 11.4721C20.8533 11.4683 20.8883 11.4683 20.923 11.4721C21.0112 11.4686 21.0986 11.4885 21.1766 11.5298C21.2545 11.5711 21.3202 11.6322 21.3669 11.7071C21.4237 11.7948 21.4535 11.8972 21.4526 12.0017C21.4539 12.0719 21.4412 12.1416 21.4153 12.2069C21.4022 12.2382 21.386 12.2682 21.3669 12.2964C21.35 12.3247 21.33 12.3509 21.3072 12.3747C21.2595 12.4255 21.2017 12.4658 21.1374 12.4928C21.0731 12.5197 21.0039 12.5329 20.9342 12.5313C20.8995 12.5352 20.8645 12.5352 20.8298 12.5313C20.7322 12.5077 20.6431 12.4573 20.5724 12.3859C20.5496 12.3621 20.5296 12.3358 20.5128 12.3076C20.488 12.2717 20.4679 12.2329 20.4531 12.1919C20.441 12.1603 20.431 12.1279 20.4233 12.095C20.4131 12.0245 20.4131 11.9529 20.4233 11.8824C20.4376 11.8148 20.4642 11.7503 20.5016 11.6922C20.5194 11.6657 20.5394 11.6408 20.5613 11.6176C20.6308 11.5448 20.7204 11.4942 20.8186 11.4721Z" fill="#20ACF5"/>
<path d="M23.4369 11.416C23.2852 11.419 23.1408 11.4818 23.0353 11.5908C22.9298 11.6998 22.8717 11.8461 22.8737 11.9978C22.8745 12.0758 22.8897 12.1529 22.9185 12.2253C22.9471 12.2949 22.9888 12.3582 23.0415 12.4118C23.0926 12.4655 23.1539 12.5083 23.2218 12.5378C23.2897 12.5673 23.3628 12.5828 23.4369 12.5834C23.5114 12.5826 23.5851 12.5671 23.6536 12.5376C23.7221 12.5082 23.7841 12.4654 23.8359 12.4118C23.8863 12.3571 23.9267 12.294 23.9553 12.2253C23.9858 12.1534 24.0011 12.076 24 11.9978C24.002 11.8461 23.9439 11.6998 23.8384 11.5908C23.7329 11.4818 23.5886 11.419 23.4369 11.416Z" fill="#20ACF5"/>
<path d="M4.61917 10.27C4.53504 10.2169 4.43699 10.1901 4.33757 10.1931C4.27291 10.1941 4.20909 10.2078 4.14973 10.2334C4.09037 10.2591 4.03664 10.2961 3.99162 10.3425C3.9466 10.389 3.91116 10.4438 3.88732 10.5039C3.86349 10.564 3.85173 10.6282 3.85272 10.6929C3.85276 10.7923 3.88249 10.8895 3.93809 10.972C3.9937 11.0545 4.07265 11.1185 4.16484 11.1558C4.25703 11.1932 4.35827 11.2022 4.4556 11.1817C4.55293 11.1611 4.64192 11.112 4.71119 11.0406C4.78045 10.9692 4.82683 10.8788 4.8444 10.7809C4.86196 10.683 4.84991 10.5821 4.80979 10.491C4.76967 10.4 4.70329 10.3231 4.61917 10.27Z" fill="#20ACF5"/>
<path d="M6.85128 10.2416C6.94124 10.2379 7.03025 10.2611 7.10687 10.3084C7.1835 10.3557 7.24423 10.4248 7.28126 10.5069C7.3183 10.5889 7.32994 10.6802 7.31469 10.7689C7.29944 10.8577 7.258 10.9398 7.19569 11.0048C7.13338 11.0698 7.05306 11.1147 6.96505 11.1336C6.87704 11.1526 6.78537 11.1448 6.70181 11.1113C6.61826 11.0778 6.54665 11.02 6.49619 10.9454C6.44573 10.8709 6.41872 10.7829 6.41864 10.6929C6.41664 10.5758 6.46099 10.4627 6.54202 10.3781C6.62306 10.2936 6.73422 10.2445 6.85128 10.2416Z" fill="#20ACF5"/>
<path d="M2.21564 10.3011C2.11073 10.1961 1.96843 10.1372 1.82006 10.1372C1.67169 10.1372 1.52939 10.1961 1.42448 10.3011C1.31956 10.406 1.26062 10.5483 1.26062 10.6966C1.26062 10.845 1.31956 10.9873 1.42448 11.0922C1.52939 11.1971 1.67169 11.2561 1.82006 11.2561C1.96843 11.2561 2.11073 11.1971 2.21564 11.0922C2.32056 10.9873 2.3795 10.845 2.3795 10.6966C2.3795 10.5483 2.32056 10.406 2.21564 10.3011Z" fill="#20ACF5"/>
<path d="M9.36873 10.2859C9.4497 10.2829 9.52972 10.3042 9.5985 10.3471C9.66729 10.3899 9.72171 10.4523 9.75478 10.5263C9.78785 10.6002 9.79806 10.6824 9.7841 10.7622C9.77014 10.842 9.73264 10.9159 9.67643 10.9742C9.62021 11.0326 9.54784 11.0728 9.46861 11.0897C9.38937 11.1067 9.30688 11.0995 9.23172 11.0692C9.15656 11.039 9.09217 10.9869 9.04681 10.9198C9.00144 10.8526 8.97718 10.7735 8.97712 10.6924C8.97613 10.64 8.98548 10.5879 9.00463 10.5392C9.02377 10.4904 9.05235 10.4458 9.08871 10.4081C9.12508 10.3703 9.16852 10.3401 9.21657 10.3191C9.26462 10.2982 9.31632 10.2869 9.36873 10.2859Z" fill="#20ACF5"/>
<path d="M2.21564 12.9153C2.11073 12.8104 1.96843 12.7515 1.82006 12.7515C1.67169 12.7515 1.52939 12.8104 1.42448 12.9153C1.31956 13.0202 1.26062 13.1625 1.26062 13.3109C1.26062 13.4593 1.31956 13.6016 1.42448 13.7065C1.52939 13.8114 1.67169 13.8703 1.82006 13.8703C1.96843 13.8703 2.11073 13.8114 2.21564 13.7065C2.32056 13.6016 2.3795 13.4593 2.3795 13.3109C2.3795 13.1625 2.32056 13.0202 2.21564 12.9153Z" fill="#20ACF5"/>
<path d="M9.36873 12.9007C9.4497 12.8977 9.52972 12.919 9.5985 12.9618C9.66729 13.0046 9.72171 13.067 9.75478 13.141C9.78785 13.215 9.79806 13.2971 9.7841 13.377C9.77014 13.4568 9.73264 13.5306 9.67643 13.589C9.62021 13.6473 9.54784 13.6875 9.46861 13.7045C9.38937 13.7214 9.30688 13.7143 9.23172 13.684C9.15656 13.6537 9.09217 13.6017 9.04681 13.5345C9.00144 13.4674 8.97718 13.3882 8.97712 13.3072C8.97613 13.2548 8.98548 13.2027 9.00463 13.1539C9.02377 13.1051 9.05235 13.0606 9.08871 13.0228C9.12508 12.9851 9.16852 12.9548 9.21657 12.9339C9.26462 12.9129 9.31632 12.9016 9.36873 12.9007Z" fill="#20ACF5"/>
<path d="M4.61917 12.8842C4.53504 12.8312 4.43699 12.8044 4.33757 12.8074C4.27291 12.8083 4.20909 12.822 4.14973 12.8477C4.09037 12.8733 4.03664 12.9104 3.99162 12.9568C3.9466 13.0032 3.91116 13.058 3.88732 13.1181C3.86349 13.1783 3.85173 13.2425 3.85272 13.3071C3.85276 13.4066 3.88249 13.5038 3.93809 13.5863C3.9937 13.6687 4.07265 13.7327 4.16484 13.7701C4.25703 13.8074 4.35827 13.8164 4.4556 13.7959C4.55293 13.7754 4.64192 13.7263 4.71119 13.6549C4.78045 13.5835 4.82683 13.4931 4.8444 13.3952C4.86196 13.2972 4.84991 13.1963 4.80979 13.1053C4.76967 13.0143 4.70329 12.9373 4.61917 12.8842Z" fill="#20ACF5"/>
<path d="M6.85128 12.8559C6.94124 12.8521 7.03025 12.8754 7.10687 12.9227C7.1835 12.9699 7.24423 13.0391 7.28126 13.1211C7.3183 13.2032 7.32994 13.2945 7.31469 13.3832C7.29944 13.4719 7.258 13.5541 7.19569 13.6191C7.13338 13.684 7.05306 13.7289 6.96505 13.7479C6.87704 13.7669 6.78537 13.7591 6.70181 13.7256C6.61826 13.692 6.54665 13.6342 6.49619 13.5597C6.44573 13.4851 6.41872 13.3972 6.41864 13.3071C6.41664 13.1901 6.46099 13.0769 6.54202 12.9924C6.62306 12.9079 6.73422 12.8588 6.85128 12.8559Z" fill="#20ACF5"/>
<path d="M5.77227 11.5627C5.71608 11.5384 5.65565 11.5254 5.59442 11.5244C5.5332 11.5254 5.47276 11.5384 5.41657 11.5627C5.36038 11.5871 5.30953 11.6222 5.26694 11.6662C5.22434 11.7102 5.19082 11.7621 5.1683 11.8191C5.14578 11.876 5.13469 11.9368 5.13568 11.9981C5.13615 12.062 5.14881 12.1253 5.17298 12.1846C5.19499 12.2403 5.22796 12.291 5.26995 12.3337C5.31112 12.3787 5.36128 12.4146 5.41716 12.439C5.47305 12.4634 5.53344 12.4758 5.59442 12.4755C5.65534 12.4754 5.71558 12.4627 5.7714 12.4384C5.82723 12.414 5.87743 12.3784 5.9189 12.3337C5.96088 12.291 5.99385 12.2403 6.01587 12.1846C6.04003 12.1253 6.05269 12.062 6.05316 11.9981C6.05415 11.9368 6.04307 11.876 6.02055 11.8191C5.99803 11.7621 5.96451 11.7102 5.92191 11.6662C5.87931 11.6222 5.82846 11.5871 5.77227 11.5627Z" fill="#20ACF5"/>
<path d="M10.6256 11.6138C10.7246 11.6138 10.8194 11.6531 10.8894 11.723C10.9593 11.793 10.9986 11.8878 10.9986 11.9867C10.9984 12.0391 10.9883 12.091 10.9688 12.1396C10.9499 12.1848 10.9234 12.2265 10.8904 12.2627C10.8559 12.298 10.8147 12.326 10.7693 12.3452C10.7238 12.3644 10.675 12.3744 10.6256 12.3746C10.5763 12.3744 10.5275 12.3644 10.482 12.3452C10.4366 12.326 10.3954 12.298 10.3608 12.2627C10.3279 12.2265 10.3014 12.1848 10.2825 12.1396C10.263 12.091 10.2529 12.0391 10.2527 11.9867C10.2527 11.8878 10.292 11.793 10.3619 11.723C10.4319 11.6531 10.5267 11.6138 10.6256 11.6138Z" fill="#20ACF5"/>
<path d="M8.10815 11.5693C8.0265 11.5706 7.94716 11.5966 7.88064 11.6439C7.82622 11.686 7.78261 11.7404 7.75343 11.8026C7.72424 11.8649 7.71031 11.9332 7.71281 12.002C7.713 12.0592 7.72309 12.116 7.74265 12.1698C7.76447 12.2205 7.79474 12.2672 7.83216 12.3078L7.88064 12.3376C7.94759 12.3836 8.0269 12.4083 8.10815 12.4085C8.13661 12.4123 8.16546 12.4123 8.19393 12.4085C8.2728 12.3897 8.34503 12.3498 8.40279 12.2929C8.44021 12.2523 8.47047 12.2056 8.4923 12.1549C8.51185 12.1011 8.52195 12.0443 8.52213 11.987C8.52367 11.8903 8.49189 11.796 8.43213 11.72C8.37237 11.6439 8.28826 11.5907 8.19393 11.5693C8.16547 11.5654 8.13661 11.5654 8.10815 11.5693Z" fill="#20ACF5"/>
<path d="M3.07693 11.4721C3.11163 11.4683 3.14665 11.4683 3.18136 11.4721C3.27885 11.4934 3.36741 11.5442 3.43497 11.6176C3.45911 11.6397 3.48041 11.6648 3.49837 11.6922C3.55282 11.7809 3.58244 11.8827 3.58415 11.9868C3.58801 12.0228 3.58801 12.059 3.58415 12.095C3.57942 12.1282 3.57065 12.1608 3.55805 12.1919C3.54493 12.2233 3.52869 12.2533 3.50956 12.2814C3.49264 12.3107 3.47124 12.3371 3.44616 12.3598C3.37759 12.4319 3.28945 12.4825 3.19255 12.5052C3.15784 12.5091 3.12282 12.5091 3.08812 12.5052C3.01844 12.5068 2.94921 12.4936 2.88494 12.4666C2.82068 12.4397 2.76283 12.3994 2.71516 12.3486C2.69503 12.337 2.67627 12.3233 2.65921 12.3076C2.63729 12.2757 2.62089 12.2404 2.61073 12.2031C2.58355 12.1382 2.5696 12.0684 2.5697 11.998C2.57014 11.8932 2.60126 11.7907 2.65921 11.7034C2.70402 11.633 2.76571 11.575 2.83867 11.5346C2.91163 11.4942 2.99354 11.4728 3.07693 11.4721Z" fill="#20ACF5"/>
<path d="M0.960995 11.5923C0.856874 11.4833 0.713848 11.4199 0.563152 11.416C0.487895 11.417 0.413573 11.4328 0.344466 11.4626C0.275359 11.4925 0.212833 11.5356 0.160487 11.5897C0.108142 11.6438 0.0670113 11.7077 0.0394647 11.7777C0.0119181 11.8478 -0.00150056 11.9226 -1.85707e-05 11.9978C-0.00222274 12.0757 0.0117467 12.1532 0.0410071 12.2253C0.0667905 12.2954 0.107515 12.3591 0.160354 12.4118C0.211944 12.4657 0.273868 12.5087 0.342431 12.5382C0.410994 12.5677 0.484792 12.583 0.559422 12.5834C0.633456 12.5828 0.706609 12.5673 0.774526 12.5378C0.842443 12.5083 0.903737 12.4655 0.95476 12.4118C1.0076 12.3591 1.04832 12.2954 1.07411 12.2253C1.10464 12.1534 1.11989 12.076 1.11886 11.9978C1.12187 11.8471 1.06511 11.7013 0.960995 11.5923Z" fill="#20ACF5"/>
<path d="M10.3083 7.10675C10.261 7.03013 10.2378 6.94111 10.2415 6.85116C10.2444 6.7341 10.2935 6.62294 10.378 6.5419C10.4625 6.46086 10.5757 6.41652 10.6928 6.41852C10.7828 6.4186 10.8707 6.44561 10.9453 6.49607C11.0199 6.54653 11.0776 6.61814 11.1112 6.70169C11.1447 6.78524 11.1525 6.87692 11.1335 6.96493C11.1145 7.05294 11.0697 7.13326 11.0047 7.19557C10.9397 7.25787 10.8575 7.29932 10.7688 7.31457C10.6801 7.32982 10.5888 7.31817 10.5067 7.28114C10.4247 7.24411 10.3556 7.18338 10.3083 7.10675Z" fill="#20ACF5"/>
<path d="M10.3474 9.5985C10.3046 9.52972 10.2833 9.4497 10.2863 9.36873C10.2873 9.31632 10.2985 9.26462 10.3195 9.21657C10.3405 9.16852 10.3707 9.12508 10.4084 9.08871C10.4462 9.05235 10.4907 9.02377 10.5395 9.00463C10.5883 8.98548 10.6404 8.97613 10.6928 8.97712C10.7738 8.97718 10.853 9.00144 10.9201 9.04681C10.9873 9.09217 11.0393 9.15656 11.0696 9.23172C11.0999 9.30688 11.107 9.38937 11.0901 9.46861C11.0732 9.54784 11.0329 9.62021 10.9746 9.67643C10.9162 9.73264 10.8424 9.77014 10.7626 9.7841C10.6828 9.79806 10.6006 9.78785 10.5266 9.75478C10.4527 9.72171 10.3903 9.66729 10.3474 9.5985Z" fill="#20ACF5"/>
<path d="M12.7515 1.82018C12.7515 1.96856 12.8104 2.11085 12.9153 2.21577C13.0202 2.32068 13.1625 2.37962 13.3109 2.37962C13.4593 2.37962 13.6016 2.32068 13.7065 2.21577C13.8114 2.11085 13.8703 1.96856 13.8703 1.82018C13.8703 1.67181 13.8114 1.52951 13.7065 1.4246C13.6016 1.31968 13.4593 1.26074 13.3109 1.26074C13.1625 1.26074 13.0202 1.31968 12.9153 1.4246C12.8104 1.52951 12.7515 1.67181 12.7515 1.82018Z" fill="#20ACF5"/>
<path d="M12.9618 9.5985C12.919 9.52972 12.8977 9.4497 12.9007 9.36873C12.9016 9.31632 12.9129 9.26462 12.9339 9.21657C12.9548 9.16852 12.9851 9.12508 13.0228 9.08871C13.0606 9.05235 13.1051 9.02377 13.1539 9.00463C13.2027 8.98548 13.2548 8.97613 13.3072 8.97712C13.3882 8.97718 13.4674 9.00144 13.5345 9.04681C13.6017 9.09217 13.6537 9.15656 13.684 9.23172C13.7143 9.30688 13.7214 9.38937 13.7045 9.46861C13.6875 9.54784 13.6473 9.62021 13.589 9.67643C13.5306 9.73264 13.4568 9.77014 13.377 9.7841C13.2971 9.79806 13.215 9.78785 13.141 9.75478C13.067 9.72171 13.0046 9.66729 12.9618 9.5985Z" fill="#20ACF5"/>
<path d="M12.8075 4.33744C12.8045 4.43687 12.8313 4.53492 12.8844 4.61905C12.9374 4.70317 13.0144 4.76954 13.1054 4.80967C13.1964 4.84979 13.2974 4.86184 13.3953 4.84428C13.4932 4.82671 13.5836 4.78033 13.655 4.71107C13.7264 4.6418 13.7755 4.55281 13.796 4.45548C13.8166 4.35815 13.8076 4.25691 13.7702 4.16472C13.7329 4.07252 13.6689 3.99357 13.5864 3.93797C13.5039 3.88237 13.4067 3.85264 13.3072 3.8526C13.2426 3.85161 13.1784 3.86337 13.1183 3.8872C13.0582 3.91103 13.0033 3.94648 12.9569 3.9915C12.9105 4.03652 12.8734 4.09025 12.8478 4.14961C12.8221 4.20896 12.8084 4.27279 12.8075 4.33744Z" fill="#20ACF5"/>
<path d="M12.9228 7.10675C12.8755 7.03013 12.8523 6.94111 12.856 6.85116C12.8589 6.7341 12.908 6.62294 12.9925 6.5419C13.077 6.46086 13.1902 6.41652 13.3073 6.41852C13.3973 6.4186 13.4852 6.44561 13.5598 6.49607C13.6344 6.54653 13.6921 6.61814 13.7257 6.70169C13.7592 6.78524 13.767 6.87692 13.748 6.96493C13.729 7.05294 13.6842 7.13326 13.6192 7.19557C13.5542 7.25787 13.472 7.29932 13.3833 7.31457C13.2946 7.32982 13.2033 7.31817 13.1212 7.28114C13.0392 7.24411 12.9701 7.18338 12.9228 7.10675Z" fill="#20ACF5"/>
<path d="M11.5244 5.59454C11.5254 5.65577 11.5384 5.7162 11.5627 5.77239C11.5871 5.82858 11.6222 5.87943 11.6662 5.92203C11.7102 5.96463 11.7621 5.99815 11.8191 6.02067C11.876 6.04319 11.9368 6.05427 11.9981 6.05329C12.062 6.05281 12.1253 6.04015 12.1846 6.01599C12.2403 5.99398 12.291 5.961 12.3337 5.91902C12.3784 5.87756 12.414 5.82735 12.4384 5.77153C12.4627 5.7157 12.4754 5.65546 12.4755 5.59454C12.4758 5.53356 12.4634 5.47317 12.439 5.41729C12.4146 5.3614 12.3787 5.31125 12.3337 5.27007C12.291 5.22809 12.2403 5.19511 12.1846 5.1731C12.1253 5.14893 12.062 5.13628 11.9981 5.1358C11.9368 5.13482 11.876 5.1459 11.8191 5.16842C11.7621 5.19094 11.7102 5.22446 11.6662 5.26706C11.6222 5.30966 11.5871 5.3605 11.5627 5.4167C11.5384 5.47289 11.5254 5.53332 11.5244 5.59454Z" fill="#20ACF5"/>
<path d="M11.7233 10.8891C11.6533 10.8192 11.614 10.7243 11.614 10.6254C11.614 10.5265 11.6533 10.4316 11.7233 10.3617C11.7932 10.2917 11.8881 10.2524 11.987 10.2524C12.0394 10.2526 12.0913 10.2627 12.1399 10.2823C12.1851 10.3012 12.2267 10.3277 12.263 10.3606C12.2982 10.3951 12.3262 10.4363 12.3454 10.4818C12.3647 10.5272 12.3746 10.5761 12.3749 10.6254C12.3746 10.6747 12.3647 10.7236 12.3454 10.769C12.3262 10.8145 12.2982 10.8557 12.263 10.8902C12.2267 10.9231 12.1851 10.9496 12.1399 10.9685C12.0913 10.9881 12.0394 10.9982 11.987 10.9984C11.8881 10.9984 11.7932 10.9591 11.7233 10.8891Z" fill="#20ACF5"/>
<path d="M11.6438 7.88052C11.5964 7.94704 11.5704 8.02638 11.5692 8.10802C11.5653 8.13649 11.5653 8.16534 11.5692 8.19381C11.5906 8.28814 11.6438 8.37225 11.7198 8.43201C11.7959 8.49177 11.8902 8.52355 11.9869 8.52201C12.0442 8.52182 12.1009 8.51173 12.1547 8.49217C12.2055 8.47035 12.2521 8.44008 12.2927 8.40266C12.352 8.34936 12.3958 8.28108 12.4195 8.20499C12.4234 8.17653 12.4234 8.14768 12.4195 8.11921C12.4194 8.03797 12.3947 7.95866 12.3487 7.89171C12.3367 7.8707 12.323 7.85073 12.3077 7.83203C12.2671 7.79461 12.2204 7.76435 12.1697 7.74252C12.1159 7.72297 12.0591 7.71287 12.0018 7.71269C11.9331 7.71019 11.8648 7.72412 11.8025 7.7533C11.7402 7.78249 11.6858 7.8261 11.6438 7.88052Z" fill="#20ACF5"/>
<path d="M11.4722 3.18148C11.4684 3.14678 11.4684 3.11175 11.4722 3.07705C11.4729 2.99366 11.4944 2.91175 11.5348 2.83879C11.5751 2.76583 11.6331 2.70414 11.7035 2.65934C11.7909 2.60138 11.8933 2.57026 11.9981 2.56982C12.0685 2.56973 12.1383 2.58367 12.2032 2.61085C12.2405 2.62101 12.2758 2.63741 12.3077 2.65934C12.3319 2.67126 12.3545 2.68631 12.3748 2.70409C12.4257 2.75176 12.4659 2.80962 12.4929 2.87388C12.5199 2.93814 12.533 3.00737 12.5315 3.07705C12.5353 3.11175 12.5353 3.14678 12.5315 3.18148C12.5087 3.27838 12.4582 3.36653 12.386 3.43509C12.3634 3.46018 12.3369 3.48157 12.3077 3.4985C12.2719 3.52327 12.233 3.54332 12.1921 3.55817C12.1609 3.57078 12.1284 3.57954 12.0951 3.58428C12.0591 3.58813 12.0229 3.58813 11.9869 3.58428C11.8828 3.58257 11.7811 3.55294 11.6923 3.4985C11.6649 3.48053 11.6398 3.45924 11.6177 3.43509C11.5443 3.36754 11.4935 3.27897 11.4722 3.18148Z" fill="#20ACF5"/>
<path d="M10.2661 19.3788C10.214 19.4639 10.1885 19.5626 10.193 19.6623C10.1969 19.7915 10.2515 19.9141 10.345 20.0034C10.4386 20.0927 10.5635 20.1417 10.6928 20.1397C10.7926 20.1396 10.89 20.1096 10.9726 20.0536C11.0552 19.9977 11.1192 19.9183 11.1562 19.8256C11.1933 19.733 11.2018 19.6314 11.1807 19.5339C11.1595 19.4364 11.1096 19.3474 11.0375 19.2785C10.9653 19.2096 10.8742 19.1639 10.7758 19.1472C10.6775 19.1305 10.5763 19.1436 10.4855 19.1849C10.3947 19.2262 10.3183 19.2937 10.2661 19.3788Z" fill="#20ACF5"/>
<path d="M10.2415 17.156C10.2378 17.066 10.261 16.977 10.3083 16.9004C10.3556 16.8237 10.4247 16.763 10.5067 16.726C10.5888 16.6889 10.6801 16.6773 10.7688 16.6926C10.8575 16.7078 10.9397 16.7492 11.0047 16.8116C11.0697 16.8739 11.1145 16.9542 11.1335 17.0422C11.1525 17.1302 11.1447 17.2219 11.1112 17.3054C11.0776 17.389 11.0199 17.4606 10.9453 17.5111C10.8707 17.5615 10.7828 17.5885 10.6928 17.5886C10.5757 17.5906 10.4625 17.5463 10.378 17.4652C10.2935 17.3842 10.2444 17.273 10.2415 17.156Z" fill="#20ACF5"/>
<path d="M10.2196 21.8651C10.1613 21.9593 10.1326 22.0689 10.137 22.1797C10.1385 22.2512 10.154 22.3217 10.1827 22.3872C10.2115 22.4527 10.2528 22.5119 10.3044 22.5614C10.356 22.611 10.4169 22.6498 10.4835 22.6758C10.5501 22.7018 10.6212 22.7145 10.6928 22.713C10.8036 22.7129 10.9119 22.6797 11.0037 22.6175C11.0955 22.5554 11.1666 22.4673 11.208 22.3644C11.2493 22.2616 11.2589 22.1487 11.2356 22.0404C11.2123 21.932 11.1571 21.8331 11.0771 21.7563C10.9971 21.6796 10.896 21.6285 10.7868 21.6097C10.6776 21.5908 10.5652 21.6051 10.4641 21.6506C10.3631 21.6961 10.2779 21.7708 10.2196 21.8651Z" fill="#20ACF5"/>
<path d="M10.2863 14.6309C10.2833 14.5499 10.3046 14.4699 10.3474 14.4011C10.3903 14.3324 10.4527 14.2779 10.5266 14.2449C10.6006 14.2118 10.6828 14.2016 10.7626 14.2156C10.8424 14.2295 10.9162 14.267 10.9746 14.3232C11.0329 14.3794 11.0732 14.4518 11.0901 14.531C11.107 14.6103 11.0999 14.6928 11.0696 14.7679C11.0393 14.8431 10.9873 14.9075 10.9201 14.9528C10.853 14.9982 10.7738 15.0225 10.6928 15.0225C10.6404 15.0235 10.5883 15.0142 10.5395 14.995C10.4907 14.9759 10.4462 14.9473 10.4084 14.9109C10.3707 14.8746 10.3405 14.8311 10.3195 14.7831C10.2985 14.735 10.2873 14.6833 10.2863 14.6309Z" fill="#20ACF5"/>
<path d="M12.8341 21.8651C12.7758 21.9593 12.7471 22.0689 12.7515 22.1797C12.753 22.2512 12.7685 22.3217 12.7973 22.3872C12.826 22.4527 12.8673 22.5119 12.9189 22.5614C12.9705 22.611 13.0314 22.6498 13.098 22.6758C13.1646 22.7018 13.2357 22.7145 13.3073 22.713C13.4181 22.7129 13.5264 22.6797 13.6182 22.6175C13.71 22.5554 13.7811 22.4673 13.8225 22.3644C13.8638 22.2616 13.8734 22.1487 13.8501 22.0404C13.8268 21.932 13.7716 21.8331 13.6916 21.7563C13.6116 21.6796 13.5105 21.6285 13.4013 21.6097C13.2921 21.5908 13.1797 21.6051 13.0786 21.6506C12.9776 21.6961 12.8924 21.7708 12.8341 21.8651Z" fill="#20ACF5"/>
<path d="M12.9007 14.6309C12.8977 14.5499 12.919 14.4699 12.9618 14.4011C13.0046 14.3324 13.067 14.2779 13.141 14.2449C13.215 14.2118 13.2971 14.2016 13.377 14.2156C13.4568 14.2295 13.5306 14.267 13.589 14.3232C13.6473 14.3794 13.6875 14.4518 13.7045 14.531C13.7214 14.6103 13.7143 14.6928 13.684 14.7679C13.6537 14.8431 13.6017 14.9075 13.5345 14.9528C13.4674 14.9982 13.3882 15.0225 13.3072 15.0225C13.2548 15.0235 13.2027 15.0142 13.1539 14.995C13.1051 14.9759 13.0606 14.9473 13.0228 14.9109C12.9851 14.8746 12.9548 14.8311 12.9339 14.7831C12.9129 14.735 12.9016 14.6833 12.9007 14.6309Z" fill="#20ACF5"/>
<path d="M12.8806 19.3788C12.8285 19.4639 12.803 19.5626 12.8075 19.6623C12.8114 19.7915 12.866 19.9141 12.9595 20.0034C13.0531 20.0927 13.178 20.1417 13.3073 20.1397C13.4071 20.1396 13.5045 20.1096 13.5871 20.0536C13.6697 19.9977 13.7337 19.9183 13.7708 19.8256C13.8078 19.733 13.8163 19.6314 13.7952 19.5339C13.774 19.4364 13.7241 19.3474 13.652 19.2785C13.5798 19.2096 13.4887 19.1639 13.3903 19.1472C13.292 19.1305 13.1908 19.1436 13.1 19.1849C13.0092 19.2262 12.9328 19.2937 12.8806 19.3788Z" fill="#20ACF5"/>
<path d="M12.856 17.156C12.8523 17.066 12.8755 16.977 12.9228 16.9004C12.9701 16.8237 13.0392 16.763 13.1212 16.726C13.2033 16.6889 13.2946 16.6773 13.3833 16.6926C13.472 16.7078 13.5542 16.7492 13.6192 16.8116C13.6842 16.8739 13.729 16.9542 13.748 17.0422C13.767 17.1302 13.7592 17.2219 13.7257 17.3054C13.6921 17.389 13.6344 17.4606 13.5598 17.5111C13.4852 17.5615 13.3973 17.5885 13.3073 17.5886C13.1902 17.5906 13.077 17.5463 12.9925 17.4652C12.908 17.3842 12.8589 17.273 12.856 17.156Z" fill="#20ACF5"/>
<path d="M11.5627 18.2277C11.5384 18.2839 11.5254 18.3444 11.5244 18.4056C11.5254 18.4668 11.5384 18.5272 11.5627 18.5834C11.5871 18.6396 11.6222 18.6905 11.6662 18.7331C11.7102 18.7757 11.7621 18.8092 11.8191 18.8317C11.876 18.8542 11.9368 18.8653 11.9981 18.8643C12.062 18.8638 12.1253 18.8512 12.1846 18.827C12.2403 18.805 12.291 18.772 12.3337 18.7301C12.3784 18.6886 12.414 18.6384 12.4384 18.5826C12.4627 18.5267 12.4754 18.4665 12.4755 18.4056C12.4758 18.3446 12.4634 18.2842 12.439 18.2283C12.4146 18.1724 12.3787 18.1223 12.3337 18.0811C12.291 18.0391 12.2403 18.0061 12.1846 17.9841C12.1253 17.96 12.062 17.9473 11.9981 17.9468C11.9368 17.9459 11.876 17.9569 11.8191 17.9795C11.7621 18.002 11.7102 18.0355 11.6662 18.0781C11.6222 18.1207 11.5871 18.1715 11.5627 18.2277Z" fill="#20ACF5"/>
<path d="M11.614 13.3744C11.614 13.2755 11.6533 13.1806 11.7233 13.1107C11.7932 13.0408 11.8881 13.0015 11.987 13.0015C12.0394 13.0016 12.0913 13.0118 12.1399 13.0313C12.1851 13.0502 12.2267 13.0767 12.263 13.1096C12.3324 13.1795 12.3714 13.274 12.3714 13.3726C12.3714 13.4711 12.3324 13.5656 12.263 13.6355C12.2268 13.6695 12.1852 13.6973 12.1399 13.7175C12.0913 13.7371 12.0394 13.7472 11.987 13.7474C11.8881 13.7474 11.7932 13.7081 11.7233 13.6381C11.6533 13.5682 11.614 13.4733 11.614 13.3744Z" fill="#20ACF5"/>
<path d="M11.5693 15.8878C11.57 15.9707 11.596 16.0514 11.6439 16.1191C11.6821 16.1732 11.7322 16.2178 11.7904 16.2495C11.8486 16.2812 11.9133 16.2991 11.9795 16.3018C12.0372 16.3022 12.0943 16.2908 12.1473 16.2683C12.1986 16.2492 12.2455 16.22 12.2853 16.1825C12.3047 16.1631 12.3222 16.1418 12.3376 16.1191C12.3843 16.0511 12.409 15.9704 12.4084 15.8878C12.4121 15.8606 12.4121 15.833 12.4084 15.8058C12.3904 15.7266 12.3503 15.6542 12.2928 15.5969C12.2522 15.5595 12.2055 15.5293 12.1548 15.5074C12.101 15.4879 12.0442 15.4778 11.987 15.4776C11.8903 15.4761 11.796 15.5078 11.7199 15.5676C11.6438 15.6274 11.5906 15.7115 11.5693 15.8058C11.5656 15.833 11.5656 15.8606 11.5693 15.8878Z" fill="#20ACF5"/>
<path d="M11.4722 20.9231C11.4684 20.8884 11.4684 20.8534 11.4722 20.8187C11.4943 20.7204 11.5449 20.6309 11.6177 20.5613C11.6409 20.5394 11.6658 20.5195 11.6923 20.5017C11.7504 20.4642 11.8149 20.4377 11.8825 20.4233H12.0951L12.1921 20.4532C12.233 20.468 12.2719 20.4881 12.3077 20.5129C12.336 20.5297 12.3622 20.5497 12.386 20.5725C12.4574 20.6431 12.5078 20.7322 12.5315 20.8299C12.5353 20.8646 12.5353 20.8996 12.5315 20.9343C12.533 21.004 12.5199 21.0732 12.4929 21.1375C12.4659 21.2017 12.4257 21.2596 12.3748 21.3073C12.3511 21.3301 12.3248 21.3501 12.2965 21.3669C12.2684 21.3861 12.2384 21.4023 12.207 21.4154C12.1417 21.4413 12.072 21.454 12.0019 21.4527C11.8974 21.4536 11.7949 21.4238 11.7072 21.3669C11.6324 21.3203 11.5712 21.2546 11.5299 21.1767C11.4887 21.0987 11.4688 21.0112 11.4722 20.9231Z" fill="#20ACF5"/>
<path d="M11.591 23.0352C11.482 23.1407 11.4192 23.2851 11.4163 23.4368C11.4192 23.5884 11.482 23.7328 11.591 23.8383C11.7001 23.9438 11.8464 24.0019 11.9981 23.9999C12.0762 24.0009 12.1537 23.9857 12.2256 23.9552C12.2942 23.9266 12.3573 23.8862 12.4121 23.8358C12.4657 23.784 12.5084 23.722 12.5379 23.6535C12.5673 23.585 12.5829 23.5113 12.5836 23.4368C12.583 23.3627 12.5675 23.2896 12.538 23.2217C12.5085 23.1537 12.4657 23.0924 12.4121 23.0414C12.3584 22.9887 12.2951 22.9469 12.2256 22.9183C12.1531 22.8896 12.076 22.8744 11.9981 22.8736C11.8464 22.8716 11.7001 22.9297 11.591 23.0352Z" fill="#20ACF5"/>
</g>
<defs>
<clipPath id="clip0_152_3355">
<rect width="24" height="24" fill="white"/>
</clipPath>
</defs>
</svg>
