<svg width="48" height="48" viewBox="0 0 48 48" fill="none" xmlns="http://www.w3.org/2000/svg">
<path fill-rule="evenodd" clip-rule="evenodd" d="M24 4C12.9543 4 4 12.9543 4 24C4 35.0457 12.9543 44 24 44C35.0457 44 44 35.0457 44 24C44 12.9543 35.0457 4 24 4ZM16 13.3335V35.3335H20.826V27.5347H24.3488L28.6724 35.3335H34L29.157 26.7867C29.2266 26.7575 29.2954 26.7276 29.3635 26.6968C30.6043 26.1382 31.5517 25.3361 32.2056 24.2905C32.8594 23.2378 33.1864 21.981 33.1864 20.52C33.1864 19.0662 32.8632 17.8022 32.2167 16.728C31.5777 15.6466 30.6452 14.8123 29.4192 14.2251C28.2006 13.6307 26.7294 13.3335 25.0056 13.3335H16ZM20.826 23.7964H24.1028C25.0241 23.7964 25.7895 23.6746 26.3988 23.4312C27.008 23.1877 27.4613 22.8224 27.7585 22.3354C28.0632 21.8485 28.2155 21.2433 28.2155 20.52C28.2155 19.7896 28.0632 19.1737 27.7585 18.6724C27.4613 18.1711 27.0043 17.7915 26.3876 17.5337C25.7783 17.2687 25.0093 17.1362 24.0805 17.1362H20.826V23.7964Z" fill="#20ACF5"/>
</svg>
