<svg width="150" height="150" viewBox="0 0 150 150" fill="none" xmlns="http://www.w3.org/2000/svg">
<g clip-path="url(#clip0_62_4925)">
<path d="M91 2.33221e-05L149 57.2182L149 148.783L0.499961 -8.27615e-05L91 2.33221e-05Z" fill="#F59820"/>
<path d="M69.2923 24.0698L65.7769 20.5543C66.0909 20.1465 66.3206 19.7247 66.4659 19.2887C66.6112 18.8528 66.6674 18.4122 66.6346 17.9669C66.6018 17.5217 66.4753 17.081 66.255 16.6451C66.044 16.2092 65.7417 15.7944 65.348 15.4007C64.6496 14.7023 63.8762 14.271 63.0278 14.107C62.1841 13.9476 61.3029 14.0554 60.3842 14.4304C59.4701 14.8101 58.5538 15.4593 57.6351 16.378C56.6789 17.3342 56.0133 18.2716 55.6383 19.1903C55.2727 20.109 55.1743 20.9808 55.343 21.8058C55.5211 22.6308 55.9524 23.3854 56.6367 24.0698C57.0211 24.4541 57.4195 24.7541 57.8319 24.9697C58.2491 25.19 58.671 25.3259 59.0975 25.3775C59.5334 25.4291 59.9647 25.3962 60.3912 25.2791C60.8271 25.1619 61.249 24.9603 61.6568 24.6744L65.1511 28.2109C64.4527 28.7875 63.6395 29.2304 62.7114 29.5398C61.788 29.8538 60.8037 29.9991 59.7584 29.9757C58.7178 29.9476 57.6632 29.6992 56.5945 29.2304C55.5305 28.7664 54.504 28.0399 53.515 27.0509C52.2119 25.7478 51.3307 24.2947 50.8714 22.6917C50.4214 21.0887 50.4495 19.4387 50.9557 17.742C51.462 16.0452 52.5049 14.407 54.0845 12.8274C55.6688 11.2431 57.314 10.2025 59.0202 9.70564C60.7263 9.20879 62.3809 9.19004 63.984 9.6494C65.587 10.1087 67.0284 10.9782 68.308 12.2579C69.1798 13.1297 69.8641 14.0578 70.361 15.0421C70.8625 16.0217 71.1625 17.0248 71.261 18.0513C71.3641 19.0731 71.2563 20.095 70.9375 21.1168C70.6188 22.1386 70.0704 23.1229 69.2923 24.0698ZM70.8971 44.0392L72.3455 33.5351L71.558 32.7476L65.5817 38.7239L62.1015 35.2436L76.5007 20.8443L79.981 24.3246L74.3915 29.9142L74.9469 30.4696L84.994 29.3376L89.3462 33.6898L76.9999 34.9413L75.2352 48.3773L70.8971 44.0392ZM90.9053 35.2489L94.3785 38.7221L86.0821 47.0186L86.2016 47.1381L100.165 44.5086L103.16 47.5037L88.7608 61.903L85.2805 58.4227L93.5911 50.1122L93.4997 50.0208L79.4519 52.5941L76.506 49.6481L90.9053 35.2489ZM86.8572 66.9318L93.0374 60.7517L94.0287 61.743C94.5865 61.8508 95.2052 61.8415 95.8849 61.7149C96.5692 61.5837 97.3778 61.2485 98.3105 60.7095C99.248 60.1658 100.366 59.3291 101.664 58.1995L108.21 52.5537L118.06 62.4039L106.375 74.0893L107.922 75.6361L101.749 81.8092L98.4019 78.4625L101.861 75.0033L93.6702 66.8123L90.2039 70.2785L86.8572 66.9318ZM98.0223 65.7366L103.028 70.7426L111.887 61.8836L108.505 58.5018L105.011 61.5462C104.036 62.3992 103.131 63.107 102.297 63.6695C101.463 64.232 100.692 64.6796 99.9839 65.0124C99.2808 65.3405 98.6269 65.5819 98.0223 65.7366ZM115.6 88.7416L117.048 78.2375L116.26 77.45L110.284 83.4263L106.804 79.946L121.203 65.5467L124.683 69.027L119.094 74.6166L119.649 75.172L129.696 74.0401L134.049 78.3922L121.702 79.6437L119.938 93.0797L115.6 88.7416ZM124.323 97.4652L120.583 93.7248L139.84 84.1839L144.474 88.8172L134.933 108.075L131.192 104.334L138.582 90.1812L138.469 90.0687L124.323 97.4652ZM129.491 91.2991L137.309 99.1175L134.666 101.761L126.847 93.9428L129.491 91.2991Z" fill="white"/>
</g>
<defs>
<clipPath id="clip0_62_4925">
<rect width="150" height="150" fill="white"/>
</clipPath>
</defs>
</svg>
