<svg width="150" height="150" viewBox="0 0 150 150" fill="none" xmlns="http://www.w3.org/2000/svg">
<g clip-path="url(#clip0_62_4925)">
<path d="M91 2.33221e-05L149 57.2182L149 148.783L0.499961 -8.27615e-05L91 2.33221e-05Z" fill="#F59820"/>
<g filter="url(#filter0_d_62_4925)">
<path d="M74.7229 20.0287C75.426 19.185 75.7143 18.2709 75.5877 17.2866C75.4752 16.3023 74.9092 15.3004 73.8898 14.2809C73.2148 13.6059 72.5644 13.1314 71.9387 12.8571C71.3129 12.5829 70.7329 12.488 70.1985 12.5724C69.6712 12.6497 69.2072 12.8818 68.8064 13.2685C68.4689 13.5778 68.2475 13.9258 68.142 14.3125C68.0436 14.7063 68.0365 15.1352 68.1209 15.5992C68.2193 16.0632 68.3951 16.5624 68.6482 17.0968C68.9013 17.6311 69.2212 18.1971 69.6079 18.7947L71.0422 21.0727C71.8789 22.3735 72.5117 23.625 72.9406 24.8272C73.3765 26.0366 73.605 27.1861 73.6261 28.2759C73.6542 29.3727 73.4644 30.4133 73.0566 31.3976C72.6488 32.3819 72.016 33.31 71.1583 34.1818C69.7872 35.5388 68.2721 36.3649 66.6128 36.6602C64.9535 36.9555 63.2239 36.7235 61.424 35.9642C59.6311 35.2119 57.8347 33.9358 56.0348 32.1359C54.2279 30.3289 52.9236 28.4833 52.1221 26.599C51.3206 24.7147 51.0991 22.848 51.4577 20.9989C51.8163 19.1498 52.8287 17.371 54.495 15.6625L59.494 20.6614C58.8401 21.3997 58.4464 22.166 58.3128 22.9605C58.1792 23.755 58.2812 24.5601 58.6187 25.3757C58.9632 26.1983 59.5186 26.9928 60.285 27.7591C60.9881 28.4622 61.6806 28.9649 62.3626 29.2672C63.0516 29.5766 63.6985 29.6961 64.3031 29.6258C64.9078 29.5555 65.4316 29.3059 65.8745 28.877C66.2753 28.4622 66.4968 27.9876 66.539 27.4533C66.5882 26.9119 66.4616 26.2791 66.1593 25.5549C65.871 24.8308 65.4246 23.9835 64.8199 23.0133L63.0903 20.229C61.649 17.9299 60.8685 15.7644 60.749 13.7325C60.6365 11.6935 61.4029 9.85847 63.0481 8.22731C64.377 6.88441 65.9062 6.07234 67.6358 5.7911C69.3654 5.50987 71.1512 5.72783 72.9933 6.44498C74.8354 7.16213 76.5756 8.3398 78.2138 9.978C79.8871 11.6514 81.0542 13.388 81.7151 15.1879C82.3901 16.9878 82.5588 18.7385 82.2214 20.44C81.8839 22.1414 81.0507 23.6707 79.7219 25.0276L74.7229 20.0287ZM71.5353 47.0879L65.9246 41.4773L94.8111 27.1659L101.761 34.1159L87.4497 63.0023L81.8391 57.3917L92.9233 36.1619L92.7545 35.9932L71.5353 47.0879ZM79.2868 37.8388L91.0144 49.5663L87.0489 53.5317L75.3214 41.8042L79.2868 37.8388ZM89.7752 65.3278L111.374 43.7289L116.595 48.9493L99.2352 66.3086L108.221 75.2941L103.981 79.5337L89.7752 65.3278ZM106.684 82.2362L128.282 60.6373L143.343 75.6975L139.103 79.9371L129.263 70.0974L124.834 74.5269L133.904 83.5967L129.654 87.8469L120.584 78.777L116.144 83.217L125.983 93.0568L121.744 97.2964L106.684 82.2362Z" fill="white"/>
</g>
</g>
<defs>
<filter id="filter0_d_62_4925" x="43.0283" y="0.960938" width="104.61" height="104.61" filterUnits="userSpaceOnUse" color-interpolation-filters="sRGB">
<feFlood flood-opacity="0" result="BackgroundImageFix"/>
<feColorMatrix in="SourceAlpha" type="matrix" values="0 0 0 0 0 0 0 0 0 0 0 0 0 0 0 0 0 0 127 0" result="hardAlpha"/>
<feOffset dy="4"/>
<feGaussianBlur stdDeviation="2"/>
<feComposite in2="hardAlpha" operator="out"/>
<feColorMatrix type="matrix" values="0 0 0 0 0 0 0 0 0 0 0 0 0 0 0 0 0 0 0.25 0"/>
<feBlend mode="normal" in2="BackgroundImageFix" result="effect1_dropShadow_62_4925"/>
<feBlend mode="normal" in="SourceGraphic" in2="effect1_dropShadow_62_4925" result="shape"/>
</filter>
<clipPath id="clip0_62_4925">
<rect width="150" height="150" fill="white"/>
</clipPath>
</defs>
</svg>
