<svg width="150" height="150" viewBox="0 0 150 150" fill="none" xmlns="http://www.w3.org/2000/svg">
<g clip-path="url(#clip0_62_4925)">
<path d="M91 2.33221e-05L149 57.2182L149 148.783L0.499961 -8.27615e-05L91 2.33221e-05Z" fill="#0E79B7"/>
<path d="M81.3911 29.5382C81.9268 28.8954 82.1464 28.199 82.05 27.4491C81.9642 26.6991 81.533 25.9357 80.7563 25.159C80.242 24.6447 79.7465 24.2831 79.2697 24.0742C78.793 23.8653 78.351 23.793 77.9439 23.8573C77.5422 23.9162 77.1886 24.093 76.8833 24.3876C76.6261 24.6233 76.4574 24.8885 76.377 25.1831C76.302 25.4831 76.2967 25.8099 76.361 26.1634C76.436 26.517 76.5699 26.8973 76.7627 27.3044C76.9556 27.7115 77.1993 28.1428 77.4939 28.5981L78.5867 30.3337C79.2242 31.3248 79.7063 32.2783 80.0331 33.1943C80.3652 34.1157 80.5393 34.9915 80.5554 35.8218C80.5768 36.6575 80.4322 37.4503 80.1215 38.2003C79.8108 38.9503 79.3287 39.6574 78.6751 40.3216C77.6305 41.3555 76.4761 41.9849 75.2119 42.2099C73.9477 42.4349 72.6299 42.2581 71.2585 41.6796C69.8925 41.1064 68.5239 40.1341 67.1525 38.7628C65.7758 37.3861 64.7821 35.9799 64.1714 34.5442C63.5607 33.1086 63.392 31.6863 63.6652 30.2775C63.9384 28.8686 64.7098 27.5133 65.9794 26.2116L69.7881 30.0204C69.2899 30.5828 68.9899 31.1667 68.8881 31.7721C68.7863 32.3774 68.864 32.9907 69.1212 33.6121C69.3836 34.2389 69.8068 34.8442 70.3907 35.4281C70.9264 35.9638 71.4541 36.3468 71.9737 36.5772C72.4987 36.8129 72.9915 36.9039 73.4522 36.8504C73.9129 36.7968 74.312 36.6066 74.6494 36.2799C74.9548 35.9638 75.1235 35.6022 75.1557 35.1951C75.1932 34.7826 75.0967 34.3005 74.8664 33.7487C74.6468 33.197 74.3066 32.5515 73.8459 31.8122L72.5281 29.6909C71.43 27.9392 70.8354 26.2893 70.7443 24.7412C70.6586 23.1877 71.2425 21.7895 72.496 20.5467C73.5084 19.5236 74.6735 18.9049 75.9913 18.6906C77.3091 18.4763 78.6698 18.6424 80.0733 19.1888C81.4768 19.7352 82.8026 20.6324 84.0508 21.8806C85.3257 23.1555 86.2149 24.4787 86.7185 25.85C87.2327 27.2214 87.3613 28.5553 87.1042 29.8516C86.847 31.148 86.2122 32.3131 85.1998 33.347L81.3911 29.5382ZM78.9624 50.1548L74.6876 45.88L96.6963 34.9761L101.992 40.2714L91.0877 62.2801L86.8129 58.0053L95.258 41.8302L95.1294 41.7017L78.9624 50.1548ZM84.8683 43.1079L93.8036 52.0431L90.7823 55.0644L81.8471 46.1291L84.8683 43.1079ZM92.8595 64.0519L109.316 47.5956L113.293 51.5731L100.067 64.7992L106.913 71.6452L103.683 74.8754L92.8595 64.0519ZM105.742 76.9345L122.198 60.4782L133.673 71.9526L130.443 75.1828L122.946 67.6858L119.571 71.0607L126.481 77.971L123.243 81.2093L116.333 74.2989L112.95 77.6818L120.447 85.1787L117.216 88.4089L105.742 76.9345Z" fill="#DFE5E9"/>
</g>
<defs>
<clipPath id="clip0_62_4925">
<rect width="150" height="150" fill="white"/>
</clipPath>
</defs>
</svg>
