<svg width="62" height="40" viewBox="0 0 62 40" fill="none" xmlns="http://www.w3.org/2000/svg">
<g id="Union">
<path d="M57.8439 28.7642C60.3376 24.8315 62 20.8989 62 16.1235C62 13.8765 61.446 11.9102 60.8918 10.2246C58.6753 3.76416 52.5796 -0.168458 45.9299 0.674315C39.5572 1.51709 34.0158 7.41601 34.0158 14.1572C34.0158 19.7754 36.2324 23.9888 40.9426 27.0786C40.9426 27.0786 41.2196 27.3599 41.2196 27.6406C41.2196 28.2021 41.2197 29.0449 40.9426 29.8877C40.1114 32.6968 38.726 35.2251 35.6782 36.0674C34.5699 36.3486 34.0158 37.4722 34.2928 38.3149C34.5699 39.1572 35.1241 40 36.2324 40C37.6177 40 38.7261 40 40.1115 39.7192C47.5924 38.5957 53.6879 35.2246 57.8439 28.7642Z" fill="#0E79B7"/>
<path d="M23.4872 28.4839C25.9808 24.832 27.6432 20.6186 27.6432 15.5625C27.6432 15.001 27.6432 14.1582 27.9202 13.0347L27.0891 9.66357C24.8725 3.20312 18.4998 -0.729496 11.8501 0.113277C4.36919 1.23681 -1.17227 9.10156 0.213076 16.686C0.767229 20.8994 3.26094 24.2705 6.86287 26.5176C7.13994 26.5176 7.13986 26.7983 7.13986 27.0796C7.0515 27.5273 6.99132 27.9751 6.93236 28.4141C6.80646 29.3511 6.68611 30.2471 6.30869 31.0122C5.47748 33.2593 4.09207 34.9443 1.59843 35.7871C0.490143 36.0679 -0.0639951 37.1919 0.213074 38.0347C0.213074 38.8774 1.04433 39.7197 2.15262 39.7197C3.26089 39.7197 4.64623 39.7197 5.7545 39.439C13.2354 38.3154 19.054 34.9443 23.4872 28.4839Z" fill="#0E79B7"/>
</g>
</svg>
