<svg width="62" height="40" viewBox="0 0 62 40" fill="none" xmlns="http://www.w3.org/2000/svg">
<path d="M4.15608 11.2358C1.66243 15.1685 0 19.1011 0 23.8765C0 26.1235 0.554047 28.0898 1.10818 29.7754C3.32475 36.2358 9.42039 40.1685 16.0701 39.3257C22.4428 38.4829 27.9842 32.584 27.9842 25.8428C27.9842 20.2246 25.7676 16.0112 21.0574 12.9214C21.0574 12.9214 20.7804 12.6401 20.7804 12.3594C20.7804 11.7979 20.7803 10.9551 21.0574 10.1123C21.8886 7.30322 23.274 4.7749 26.3218 3.93262C27.4301 3.65137 27.9842 2.52783 27.7072 1.68506C27.4301 0.842773 26.8759 0 25.7676 0C24.3823 0 23.2739 0 21.8885 0.280762C14.4076 1.4043 8.31215 4.77539 4.15608 11.2358Z" fill="#0E79B7"/>
<path d="M38.5128 11.5161C36.0192 15.168 34.3568 19.3813 34.3568 24.4375C34.3568 24.999 34.3568 25.8418 34.0798 26.9653L34.9109 30.3364C37.1275 36.7969 43.5002 40.7295 50.1499 39.8867C57.6308 38.7632 63.1723 30.8984 61.7869 23.314C61.2328 19.1006 58.7391 15.7295 55.1371 13.4824C54.8601 13.4824 54.8601 13.2017 54.8601 12.9204C54.9485 12.4727 55.0087 12.0249 55.0676 11.5859C55.1935 10.6489 55.3139 9.75293 55.6913 8.98779C56.5225 6.74072 57.9079 5.05566 60.4016 4.21289C61.5099 3.93213 62.064 2.80811 61.7869 1.96533C61.7869 1.12256 60.9557 0.280273 59.8474 0.280273C58.7391 0.280273 57.3538 0.280273 56.2455 0.561035C48.7646 1.68457 42.946 5.05566 38.5128 11.5161Z" fill="#0E79B7"/>
</svg>
