<svg width="69" height="21" viewBox="0 0 69 21" fill="none" xmlns="http://www.w3.org/2000/svg">
<g id="visa">
<path id="Vector" d="M63.8 0.299805H59.5C58.2 0.299805 57.2 0.699805 56.6 1.9998L48.4 20.6998H54.2C54.2 20.6998 55.2 18.1998 55.4 17.5998C56 17.5998 61.7 17.5998 62.5 17.5998C62.7 18.2998 63.2 20.5998 63.2 20.5998H68.4L63.8 0.299805ZM57 13.3998C57.5 12.1998 59.2 7.6998 59.2 7.6998C59.2 7.7998 59.7 6.4998 59.9 5.7998L60.3 7.5998C60.3 7.5998 61.4 12.4998 61.6 13.4998H57V13.3998Z" fill="#3362AB"/>
<path id="Vector_2" d="M48.8 14C48.8 18.2 45 21 39.1 21C36.6 21 34.2 20.5 32.9 19.9L33.7 15.3L34.4 15.6C36.2 16.4 37.4 16.7 39.6 16.7C41.2 16.7 42.9 16.1 42.9 14.7C42.9 13.8 42.2 13.2 40 12.2C37.9 11.2 35.1 9.6 35.1 6.7C35.1 2.7 39 0 44.5 0C46.6 0 48.4 0.4 49.5 0.9L48.7 5.3L48.3 4.9C47.3 4.5 46 4.1 44.1 4.1C42 4.2 41 5.1 41 5.9C41 6.8 42.2 7.5 44.1 8.4C47.3 9.9 48.8 11.6 48.8 14Z" fill="#3362AB"/>
<path id="Vector_3" d="M0 0.500098L0.1 0.100098H8.7C9.9 0.100098 10.8 0.500098 11.1 1.8001L13 10.8001C11.1 6.0001 6.7 2.1001 0 0.500098Z" fill="#F9B50B"/>
<path id="Vector_4" d="M25.1 0.300195L16.4 20.6002H10.5L5.5 3.6002C9.1 5.9002 12.1 9.5002 13.2 12.0002L13.8 14.1002L19.2 0.200195H25.1V0.300195Z" fill="#3362AB"/>
<path id="Vector_5" d="M27.4 0.200195H32.9L29.4 20.6002H23.9L27.4 0.200195Z" fill="#3362AB"/>
</g>
</svg>
