<svg width="72" height="39" viewBox="0 0 72 39" fill="none" xmlns="http://www.w3.org/2000/svg">
<g id="visa">
<path id="Vector" d="M65.8 9.2998H61.5C60.2 9.2998 59.2 9.6998 58.6 10.9998L50.4 29.6998H56.2C56.2 29.6998 57.2 27.1998 57.4 26.5998C58 26.5998 63.7 26.5998 64.5 26.5998C64.7 27.2998 65.2 29.5998 65.2 29.5998H70.4L65.8 9.2998ZM59 22.3998C59.5 21.1998 61.2 16.6998 61.2 16.6998C61.2 16.7998 61.7 15.4998 61.9 14.7998L62.3 16.5998C62.3 16.5998 63.4 21.4998 63.6 22.4998H59V22.3998Z" fill="#3362AB"/>
<path id="Vector_2" d="M50.8 23C50.8 27.2 47 30 41.1 30C38.6 30 36.2 29.5 34.9 28.9L35.7 24.3L36.4 24.6C38.2 25.4 39.4 25.7 41.6 25.7C43.2 25.7 44.9 25.1 44.9 23.7C44.9 22.8 44.2 22.2 42 21.2C39.9 20.2 37.1 18.6 37.1 15.7C37.1 11.7 41 9 46.5 9C48.6 9 50.4 9.4 51.5 9.9L50.7 14.3L50.3 13.9C49.3 13.5 48 13.1 46.1 13.1C44 13.2 43 14.1 43 14.9C43 15.8 44.2 16.5 46.1 17.4C49.3 18.9 50.8 20.6 50.8 23Z" fill="#3362AB"/>
<path id="Vector_3" d="M2 9.5001L2.1 9.1001H10.7C11.9 9.1001 12.8 9.5001 13.1 10.8001L15 19.8001C13.1 15.0001 8.7 11.1001 2 9.5001Z" fill="#F9B50B"/>
<path id="Vector_4" d="M27.1 9.3002L18.4 29.6002H12.5L7.5 12.6002C11.1 14.9002 14.1 18.5002 15.2 21.0002L15.8 23.1002L21.2 9.2002H27.1V9.3002Z" fill="#3362AB"/>
<path id="Vector_5" d="M29.4 9.2002H34.9L31.4 29.6002H25.9L29.4 9.2002Z" fill="#3362AB"/>
</g>
</svg>
